<mxfile host="app.diagrams.net" agent="Mozilla/5.0 (Windows NT 10.0; Win64; x64) AppleWebKit/537.36 (KHTML, like Gecko) Chrome/132.0.0.0 Safari/537.36" version="24.8.9">
  <diagram id="WI9T0HZ2pTsCkuznbFz-" name="Page-1">
    <mxGraphModel dx="934" dy="454" grid="1" gridSize="10" guides="1" tooltips="1" connect="1" arrows="1" fold="1" page="1" pageScale="1" pageWidth="827" pageHeight="1169" math="0" shadow="0">
      <root>
        <mxCell id="0" />
        <mxCell id="1" parent="0" />
        <mxCell id="fD2b__GBOGLgcAUjD9c7-7" value="VPC" style="points=[[0,0],[0.25,0],[0.5,0],[0.75,0],[1,0],[1,0.25],[1,0.5],[1,0.75],[1,1],[0.75,1],[0.5,1],[0.25,1],[0,1],[0,0.75],[0,0.5],[0,0.25]];outlineConnect=0;gradientColor=none;html=1;whiteSpace=wrap;fontSize=12;fontStyle=0;container=1;pointerEvents=0;collapsible=0;recursiveResize=0;shape=mxgraph.aws4.group;grIcon=mxgraph.aws4.group_vpc2;strokeColor=#8C4FFF;fillColor=none;verticalAlign=top;align=left;spacingLeft=30;fontColor=#AAB7B8;dashed=0;" vertex="1" parent="1">
          <mxGeometry x="550" y="270" width="530" height="290" as="geometry" />
        </mxCell>
        <mxCell id="fD2b__GBOGLgcAUjD9c7-9" value="Ec2" style="points=[[0,0],[0.25,0],[0.5,0],[0.75,0],[1,0],[1,0.25],[1,0.5],[1,0.75],[1,1],[0.75,1],[0.5,1],[0.25,1],[0,1],[0,0.75],[0,0.5],[0,0.25]];outlineConnect=0;gradientColor=none;html=1;whiteSpace=wrap;fontSize=12;fontStyle=0;container=1;pointerEvents=0;collapsible=0;recursiveResize=0;shape=mxgraph.aws4.group;grIcon=mxgraph.aws4.group_ec2_instance_contents;strokeColor=#D86613;fillColor=none;verticalAlign=top;align=left;spacingLeft=30;fontColor=#D86613;dashed=0;" vertex="1" parent="fD2b__GBOGLgcAUjD9c7-7">
          <mxGeometry x="25" y="30" width="415" height="180" as="geometry" />
        </mxCell>
        <mxCell id="fD2b__GBOGLgcAUjD9c7-41" value="" style="group" vertex="1" connectable="0" parent="fD2b__GBOGLgcAUjD9c7-9">
          <mxGeometry x="20" y="30" width="358.36760204081634" height="140" as="geometry" />
        </mxCell>
        <mxCell id="fD2b__GBOGLgcAUjD9c7-32" value="" style="rounded=0;whiteSpace=wrap;html=1;" vertex="1" parent="fD2b__GBOGLgcAUjD9c7-41">
          <mxGeometry y="12.82" width="310" height="120" as="geometry" />
        </mxCell>
        <mxCell id="fD2b__GBOGLgcAUjD9c7-22" value="" style="shape=image;verticalLabelPosition=bottom;labelBackgroundColor=#ffffff;verticalAlign=top;aspect=fixed;imageAspect=0;image=data:image/svg+xml,PHN2ZyB4bWxuczpjYz0iaHR0cDovL2NyZWF0aXZlY29tbW9ucy5vcmcvbnMjIiB4bWxuczpkYz0iaHR0cDovL3B1cmwub3JnL2RjL2VsZW1lbnRzLzEuMS8iIHhtbG5zOmlua3NjYXBlPSJodHRwOi8vd3d3Lmlua3NjYXBlLm9yZy9uYW1lc3BhY2VzL2lua3NjYXBlIiB4bWxuczpyZGY9Imh0dHA6Ly93d3cudzMub3JnLzE5OTkvMDIvMjItcmRmLXN5bnRheC1ucyMiIHhtbG5zOnNvZGlwb2RpPSJodHRwOi8vc29kaXBvZGkuc291cmNlZm9yZ2UubmV0L0RURC9zb2RpcG9kaS0wLmR0ZCIgeG1sbnM6c3ZnPSJodHRwOi8vd3d3LnczLm9yZy8yMDAwL3N2ZyIgeG1sbnM9Imh0dHA6Ly93d3cudzMub3JnLzIwMDAvc3ZnIiB4bWxuczp4bGluaz0iaHR0cDovL3d3dy53My5vcmcvMTk5OS94bGluayIgdmVyc2lvbj0iMS4xIiBpZD0ic3ZnMTk1MzM4IiBpbmtzY2FwZTp2ZXJzaW9uPSIwLjkyLjMgKDI0MDU1NDYsIDIwMTgtMDMtMTEpIiBzb2RpcG9kaTpkb2NuYW1lPSJweXRob24uc3ZnIiB4PSIwcHgiIHk9IjBweCIgdmlld0JveD0iMCAwIDU1Ljg5IDE2LjIxIiBzdHlsZT0iZW5hYmxlLWJhY2tncm91bmQ6bmV3IDAgMCA1NS44OSAxNi4yMTsiIHhtbDpzcGFjZT0icHJlc2VydmUiPiYjeGE7PHNvZGlwb2RpOm5hbWVkdmlldyBib3JkZXJjb2xvcj0iIzY2NjY2NiIgYm9yZGVyb3BhY2l0eT0iMSIgZml0LW1hcmdpbi1ib3R0b209IjAiIGZpdC1tYXJnaW4tbGVmdD0iMCIgZml0LW1hcmdpbi1yaWdodD0iMCIgZml0LW1hcmdpbi10b3A9IjAiIGdyaWR0b2xlcmFuY2U9IjEwIiBndWlkZXRvbGVyYW5jZT0iMTAiIGlkPSJuYW1lZHZpZXcxOTUzNDAiIGlua3NjYXBlOmN1cnJlbnQtbGF5ZXI9InN2ZzE5NTMzOCIgaW5rc2NhcGU6Y3g9IjMxLjYwOTEzNSIgaW5rc2NhcGU6Y3k9IjMuNjAxMjQxNyIgaW5rc2NhcGU6cGFnZW9wYWNpdHk9IjAiIGlua3NjYXBlOnBhZ2VzaGFkb3c9IjIiIGlua3NjYXBlOndpbmRvdy1oZWlnaHQ9IjEwMTciIGlua3NjYXBlOndpbmRvdy1tYXhpbWl6ZWQ9IjEiIGlua3NjYXBlOndpbmRvdy13aWR0aD0iMTkyMCIgaW5rc2NhcGU6d2luZG93LXg9Ii04IiBpbmtzY2FwZTp3aW5kb3cteT0iLTgiIGlua3NjYXBlOnpvb209IjIwLjI5NDQ3IiBvYmplY3R0b2xlcmFuY2U9IjEwIiBwYWdlY29sb3I9IiNmZmZmZmYiIHNob3dncmlkPSJmYWxzZSI+JiN4YTsJPC9zb2RpcG9kaTpuYW1lZHZpZXc+JiN4YTs8ZyBpZD0ic2hhcGUxMTU2LTIiIHRyYW5zZm9ybT0idHJhbnNsYXRlKDE2LjgyMTczLC0xNS4yNDIxKSI+JiN4YTsJPHRpdGxlIGlkPSJ0aXRsZTE5NTI4NSI+cGF0aDQ2PC90aXRsZT4mI3hhOwk8cGF0aCBpZD0icGF0aDE5NTI4NyIgaW5rc2NhcGU6Y29ubmVjdG9yLWN1cnZhdHVyZT0iMCIgc3R5bGU9ImZpbGw6IzNGNTc2NTsiIGQ9Ik00LjI1LDIyLjE0YzAtMS43MS0wLjQ5LTIuNTktMS40Ny0yLjY0ICAgYy0wLjM4LTAuMDItMC43NiwwLjA1LTEuMTMsMC4xOWMtMC4zLDAuMTEtMC41LDAuMjEtMC42LDAuMzF2NC4xYzAuNjIsMC4zOSwxLjE4LDAuNTcsMS42NiwwLjU0QzMuNzQsMjQuNTcsNC4yNSwyMy43NCw0LjI1LDIyLjE0ICAgeiBNNS40NiwyMi4yMmMwLDAuODctMC4yMSwxLjU5LTAuNjIsMi4xNmMtMC40NiwwLjY1LTEuMDksMC45OS0xLjksMS4wMWMtMC42MSwwLjAyLTEuMjQtMC4xNy0xLjg5LTAuNTh2My43MkwwLDI4LjE2di04LjI1ICAgYzAuMTctMC4yMiwwLjM5LTAuNCwwLjY2LTAuNTVDMS4yOSwxOSwyLjA0LDE4LjgxLDIuOTQsMTguOGwwLjAxLDAuMDFjMC44Mi0wLjAxLDEuNDUsMC4zMywxLjg5LDEuMDEgICBDNS4yNSwyMC40NCw1LjQ2LDIxLjI0LDUuNDYsMjIuMjJ6Ii8+JiN4YTs8L2c+JiN4YTs8ZyBpZD0ic2hhcGUxMTU3LTQiIHRyYW5zZm9ybT0idHJhbnNsYXRlKDIzLjQxNTkzLC0xNS4yNzA3OCkiPiYjeGE7CTx0aXRsZSBpZD0idGl0bGUxOTUyOTAiPnBhdGg0ODwvdGl0bGU+JiN4YTsJPHBhdGggaWQ9InBhdGgxOTUyOTIiIGlua3NjYXBlOmNvbm5lY3Rvci1jdXJ2YXR1cmU9IjAiIHN0eWxlPSJmaWxsOiMzRjU3NjU7IiBkPSJNNS4yNywyNC42OGMwLDEuMTctMC4xMiwxLjk4LTAuMzUsMi40MyAgIGMtMC4yNCwwLjQ1LTAuNjgsMC44MS0xLjM0LDEuMDhjLTAuNTQsMC4yMS0xLjEyLDAuMzItMS43NCwwLjM0bC0wLjE3LTAuNjZDMi4zLDI3Ljc5LDIuNzQsMjcuNywzLDI3LjYxICAgYzAuNTEtMC4xNywwLjg2LTAuNDMsMS4wNS0wLjc5YzAuMTUtMC4yOCwwLjIzLTAuODMsMC4yMy0xLjY1VjI0LjljLTAuNzIsMC4zMy0xLjQ3LDAuNDktMi4yNiwwLjQ5Yy0wLjUxLDAtMC45Ny0wLjE2LTEuMzYtMC40OSAgIEMwLjIyLDI0LjU1LDAsMjQuMSwwLDIzLjU1di00LjM2bDEuMDUtMC4zNnY0LjM5YzAsMC40NywwLjE1LDAuODMsMC40NSwxLjA4YzAuMzEsMC4yNiwwLjcsMC4zOCwxLjE4LDAuMzcgICBjMC40OC0wLjAxLDAuOTktMC4yLDEuNTQtMC41NnYtNS4xMmgxLjA1TDUuMjcsMjQuNjh6Ii8+JiN4YTs8L2c+JiN4YTs8ZyBpZD0ic2hhcGUxMTU4LTYiIHRyYW5zZm9ybT0idHJhbnNsYXRlKDI5LjgzNTYzLC0xOC40MjkwNSkiPiYjeGE7CTx0aXRsZSBpZD0idGl0bGUxOTUyOTUiPnBhdGg1MDwvdGl0bGU+JiN4YTsJPHBhdGggaWQ9InBhdGgxOTUyOTciIGlua3NjYXBlOmNvbm5lY3Rvci1jdXJ2YXR1cmU9IjAiIHN0eWxlPSJmaWxsOiMzRjU3NjU7IiBkPSJNMi45NCwyOC41MmMtMC4xMiwwLjAxLTAuMjQsMC4wMS0wLjM0LDAuMDEgICBjLTAuNTksMC0xLjA2LTAuMTQtMS4zOS0wLjQyYy0wLjMzLTAuMjktMC40OS0wLjY4LTAuNDktMS4xOFYyMi44SDB2LTAuNjZoMC43MnYtMS43NWwxLjA1LTAuMzd2Mi4xMmgxLjE3djAuNjZIMS43N3Y0LjExICAgYzAsMC4zOSwwLjEsMC42NywwLjMxLDAuODNjMC4xOCwwLjEzLDAuNDcsMC4yMSwwLjg2LDAuMjNWMjguNTJ6Ii8+JiN4YTs8L2c+JiN4YTs8ZyBpZD0ic2hhcGUxMTU5LTgiIHRyYW5zZm9ybT0idHJhbnNsYXRlKDM0LjAxNjEzLC0xOC41MykiPiYjeGE7CTx0aXRsZSBpZD0idGl0bGUxOTUzMDAiPnBhdGg1MjwvdGl0bGU+JiN4YTsJPHBhdGggaWQ9InBhdGgxOTUzMDIiIGlua3NjYXBlOmNvbm5lY3Rvci1jdXJ2YXR1cmU9IjAiIHN0eWxlPSJmaWxsOiMzRjU3NjU7IiBkPSJNNS4xMSwyOC41M0g0LjA2di00LjA1ICAgYzAtMC40MS0wLjA5LTAuNzYtMC4yOC0xLjA2Yy0wLjIzLTAuMzMtMC41My0wLjUtMC45My0wLjVjLTAuNDgsMC0xLjA4LDAuMjUtMS44LDAuNzZ2NC44NUgwdi05LjY3bDEuMDUtMC4zM3Y0LjQgICBjMC42Ny0wLjQ4LDEuNC0wLjczLDIuMi0wLjczYzAuNTUsMCwxLDAuMTksMS4zNCwwLjU2YzAuMzUsMC4zNywwLjUyLDAuODQsMC41MiwxLjM5VjI4LjUzeiIvPiYjeGE7PC9nPiYjeGE7PGcgaWQ9InNoYXBlMTE2MC0xMCIgdHJhbnNmb3JtPSJ0cmFuc2xhdGUoNDAuMDkxNzMsLTE4LjQwMDM3KSI+JiN4YTsJPHRpdGxlIGlkPSJ0aXRsZTE5NTMwNSI+cGF0aDU0PC90aXRsZT4mI3hhOwk8cGF0aCBpZD0icGF0aDE5NTMwNyIgaW5rc2NhcGU6Y29ubmVjdG9yLWN1cnZhdHVyZT0iMCIgc3R5bGU9ImZpbGw6IzNGNTc2NTsiIGQ9Ik00LjYxLDI1LjE0YzAtMC42Ni0wLjEzLTEuMi0wLjM3LTEuNjMgICBjLTAuMy0wLjUzLTAuNzYtMC44MS0xLjM4LTAuODNjLTEuMTUsMC4wNi0xLjczLDAuODktMS43MywyLjQ2YzAsMC43MywwLjEyLDEuMzMsMC4zNiwxLjgyYzAuMzEsMC42MiwwLjc3LDAuOTIsMS4zOSwwLjkxICAgQzQuMDMsMjcuODYsNC42MSwyNi45NSw0LjYxLDI1LjE0eiBNNS43NiwyNS4xNGMwLDAuOTQtMC4yNCwxLjcyLTAuNzIsMi4zNGMtMC41MywwLjctMS4yNSwxLjA1LTIuMTgsMS4wNSAgIGMtMC45MiwwLTEuNjQtMC4zNS0yLjE2LTEuMDVDMC4yMywyNi44NiwwLDI2LjA4LDAsMjUuMTRjMC0wLjg4LDAuMjUtMS42MiwwLjc2LTIuMjJDMS4zLDIyLjI4LDIsMjEuOTYsMi44NywyMS45NiAgIFM0LjQ1LDIyLjI4LDUsMjIuOTJDNS41LDIzLjUyLDUuNzYsMjQuMjYsNS43NiwyNS4xNHoiLz4mI3hhOzwvZz4mI3hhOzxnIGlkPSJzaGFwZTExNjEtMTIiIHRyYW5zZm9ybT0idHJhbnNsYXRlKDQ2Ljc5MTQzLC0xOC41MykiPiYjeGE7CTx0aXRsZSBpZD0idGl0bGUxOTUzMTAiPnBhdGg1NjwvdGl0bGU+JiN4YTsJPHBhdGggaWQ9InBhdGgxOTUzMTIiIGlua3NjYXBlOmNvbm5lY3Rvci1jdXJ2YXR1cmU9IjAiIHN0eWxlPSJmaWxsOiMzRjU3NjU7IiBkPSJNNS4wNywyOC41M0g0LjAydi00LjI3ICAgYzAtMC40Ny0wLjE0LTAuODQtMC40Mi0xLjFjLTAuMjgtMC4yNy0wLjY2LTAuMzktMS4xMy0wLjM4Yy0wLjUsMC4wMS0wLjk3LDAuMTctMS40MiwwLjQ4djUuMjdIMHYtNS40ICAgYzAuNi0wLjQzLDEuMTYtMC43MiwxLjY3LTAuODZjMC40Ny0wLjEyLDAuOS0wLjE4LDEuMjYtMC4xOGMwLjI1LDAsMC40OCwwLjAyLDAuNywwLjA3YzAuNDIsMC4wOSwwLjc1LDAuMjcsMS4wMSwwLjUzICAgYzAuMjksMC4yOSwwLjQzLDAuNjMsMC40MywxLjAzTDUuMDcsMjguNTN6Ii8+JiN4YTs8L2c+JiN4YTs8ZyBpZD0ic2hhcGUxMTYyLTE0IiB0cmFuc2Zvcm09InRyYW5zbGF0ZSgtMC4wNzg3NzAzNSwtMTguMzg1NzQpIj4mI3hhOwk8dGl0bGUgaWQ9InRpdGxlMTk1MzE1Ij5wYXRoMTk0ODwvdGl0bGU+JiN4YTsJJiN4YTsJCTxsaW5lYXJHcmFkaWVudCBpZD0icGF0aDE5NTMxN18xXyIgZ3JhZGllbnRVbml0cz0idXNlclNwYWNlT25Vc2UiIHgxPSIxLjQyMzEiIHkxPSIxNC42MTI5IiB4Mj0iMTEuMTU4NiIgeTI9IjE0LjYxMjkiIGdyYWRpZW50VHJhbnNmb3JtPSJtYXRyaXgoMC45OTU1IDAgMCAtMS4wMDQ2IC0xLjMzNzkgMzguMzE5NikiPiYjeGE7CQk8c3RvcCBvZmZzZXQ9IjAiIHN0eWxlPSJzdG9wLWNvbG9yOiM1QTlGRDQiLz4mI3hhOwkJPHN0b3Agb2Zmc2V0PSIxIiBzdHlsZT0ic3RvcC1jb2xvcjojMzA2OTk4Ii8+JiN4YTsJPC9saW5lYXJHcmFkaWVudD4mI3hhOwk8cGF0aCBpZD0icGF0aDE5NTMxNyIgaW5rc2NhcGU6Y29ubmVjdG9yLWN1cnZhdHVyZT0iMCIgc3R5bGU9ImZpbGw6dXJsKCNwYXRoMTk1MzE3XzFfKTsiIGQ9Ik02LjU0LDE4Ljc1ICAgYy0wLjU0LDAtMS4wNSwwLjA1LTEuNSwwLjEzYy0xLjM0LDAuMjQtMS41OCwwLjczLTEuNTgsMS42NHYxLjJoMy4xNXYwLjQxSDMuNDZIMi4yN2MtMC45MSwwLTEuNzIsMC41NS0xLjk3LDEuNTkgICBjLTAuMjksMS4yMS0wLjMsMS45NiwwLDMuMjFjMC4yMywwLjk0LDAuNzYsMS42LDEuNjgsMS42aDEuMDh2LTEuNDRjMC0xLjA0LDAuOTEtMS45NiwxLjk4LTEuOTZoMy4xNWMwLjg4LDAsMS41OC0wLjcyLDEuNTgtMS42ICAgdi0zLjAxYzAtMC44NS0wLjczLTEuNS0xLjU4LTEuNjRDNy42NSwxOC43OSw3LjA4LDE4Ljc1LDYuNTQsMTguNzV6IE00Ljg0LDE5LjcyYzAuMzIsMCwwLjU5LDAuMjcsMC41OSwwLjZzLTAuMjcsMC42LTAuNTksMC42ICAgYy0wLjMzLDAtMC41OS0wLjI3LTAuNTktMC42UzQuNTEsMTkuNzIsNC44NCwxOS43MnoiLz4mI3hhOzwvZz4mI3hhOzxnIGlkPSJzaGFwZTExNjMtMTgiIHRyYW5zZm9ybT0idHJhbnNsYXRlKDMuMzc5NTk5NywtMTQuODMxNjcpIj4mI3hhOwk8dGl0bGUgaWQ9InRpdGxlMTk1MzIwIj5wYXRoMTk1MDwvdGl0bGU+JiN4YTsJJiN4YTsJCTxsaW5lYXJHcmFkaWVudCBpZD0icGF0aDE5NTMyMl8xXyIgZ3JhZGllbnRVbml0cz0idXNlclNwYWNlT25Vc2UiIHgxPSItMS4yMDY0IiB5MT0iMTIuNTI4OCIgeDI9IjguNTczNSIgeTI9IjEyLjUyODgiIGdyYWRpZW50VHJhbnNmb3JtPSJtYXRyaXgoMC45OTIyIDAgMCAtMS4wMDc4IDEuMTk3MSAzNi4xMjU0KSI+JiN4YTsJCTxzdG9wIG9mZnNldD0iMCIgc3R5bGU9InN0b3AtY29sb3I6I0ZGRDQzQiIvPiYjeGE7CQk8c3RvcCBvZmZzZXQ9IjEiIHN0eWxlPSJzdG9wLWNvbG9yOiNGRkU4NzMiLz4mI3hhOwk8L2xpbmVhckdyYWRpZW50PiYjeGE7CTxwYXRoIGlkPSJwYXRoMTk1MzIyIiBpbmtzY2FwZTpjb25uZWN0b3ItY3VydmF0dXJlPSIwIiBzdHlsZT0iZmlsbDp1cmwoI3BhdGgxOTUzMjJfMV8pOyIgZD0iTTYuNywxOC41N3YxLjRjMCwxLjA5LTAuOTIsMi0xLjk3LDIgICBIMS41OEMwLjcxLDIxLjk3LDAsMjIuNzEsMCwyMy41OHYzYzAsMC44NiwwLjc0LDEuMzYsMS41OCwxLjYxYzEsMC4yOSwxLjk1LDAuMzQsMy4xNSwwYzAuNzktMC4yMywxLjU4LTAuNywxLjU4LTEuNjF2LTEuMkgzLjE2ICAgdi0wLjRoMy4xNWgxLjU4YzAuOTEsMCwxLjI1LTAuNjQsMS41Ny0xLjZjMC4zMy0wLjk5LDAuMzItMS45NCwwLTMuMjFjLTAuMjItMC45MS0wLjY2LTEuNi0xLjU3LTEuNkw2LjcsMTguNTd6IE00LjkzLDI2LjE4ICAgYzAuMzMsMCwwLjU5LDAuMjcsMC41OSwwLjZzLTAuMjYsMC42LTAuNTksMC42Yy0wLjMzLDAtMC41OS0wLjI3LTAuNTktMC42UzQuNiwyNi4xOCw0LjkzLDI2LjE4eiIvPiYjeGE7PC9nPiYjeGE7PGcgaWQ9InNoYXBlMTE2NC0yMiIgdHJhbnNmb3JtPSJ0cmFuc2xhdGUoNTMuNDY3MzMsLTI1Ljc1MTU3KSI+JiN4YTsJPHRpdGxlIGlkPSJ0aXRsZTE5NTMyNSI+dGV4dDMwMDQ8L3RpdGxlPiYjeGE7CTxwYXRoIGlkPSJwYXRoMTk1MzI3IiBpbmtzY2FwZTpjb25uZWN0b3ItY3VydmF0dXJlPSIwIiBzdHlsZT0iZmlsbDojM0Y1NzY1OyIgZD0iTTAuNDQsMjguNTNoMC4xOHYtMS4xNWgwLjQzdi0wLjE0SDB2MC4xNGgwLjQ0ICAgVjI4LjUzeiBNMS4yMiwyOC41M2gwLjE1di0xLjA1bDAuMzUsMS4wNWgwLjE3bDAuMzYtMS4wNXYxLjA1aDAuMTd2LTEuMjlIMi4xOUwxLjgsMjguMzVsLTAuMzMtMS4xMUgxLjIyVjI4LjUzeiIvPiYjeGE7PC9nPiYjeGE7PGcgaWQ9InNoYXBlMTE2NS0yNCIgdHJhbnNmb3JtPSJ0cmFuc2xhdGUoMi4zNDIxNzk3LC0xMi4zMTU2NykiPiYjeGE7CTx0aXRsZSBpZD0idGl0bGUxOTUzMzAiPnBhdGgxODk0PC90aXRsZT4mI3hhOwk8cGF0aCBpZD0icGF0aDE5NTMzMiIgaW5rc2NhcGU6Y29ubmVjdG9yLWN1cnZhdHVyZT0iMCIgc3R5bGU9ImZpbGw6IzNGNTc2NTtmaWxsLW9wYWNpdHk6MC40NDsiIGQ9Ik04LjQ2LDI3LjcxICAgYzAsMC40NS0xLjg5LDAuODItNC4yMywwLjgyQzEuOSwyOC41MywwLDI4LjE2LDAsMjcuNzFjMC0wLjQ1LDEuODktMC44Miw0LjIzLTAuODJDNi41NywyNi44OSw4LjQ2LDI3LjI2LDguNDYsMjcuNzF6Ii8+JiN4YTs8L2c+JiN4YTs8L3N2Zz4=;" vertex="1" parent="fD2b__GBOGLgcAUjD9c7-41">
          <mxGeometry width="40" height="11.43" as="geometry" />
        </mxCell>
        <mxCell id="fD2b__GBOGLgcAUjD9c7-56" value="&lt;span style=&quot;font-size: 9px;&quot;&gt;CrawlingService&lt;/span&gt;" style="rounded=0;whiteSpace=wrap;html=1;" vertex="1" parent="fD2b__GBOGLgcAUjD9c7-41">
          <mxGeometry x="7.500000000000002" y="89.72727272727272" width="90" height="35.45454545454545" as="geometry" />
        </mxCell>
        <mxCell id="fD2b__GBOGLgcAUjD9c7-57" value="&lt;span style=&quot;font-size: 9px;&quot;&gt;TranslateService&lt;/span&gt;" style="rounded=0;whiteSpace=wrap;html=1;" vertex="1" parent="fD2b__GBOGLgcAUjD9c7-41">
          <mxGeometry x="110" y="89.54727272727271" width="90" height="35.45454545454545" as="geometry" />
        </mxCell>
        <mxCell id="fD2b__GBOGLgcAUjD9c7-63" style="edgeStyle=orthogonalEdgeStyle;rounded=0;orthogonalLoop=1;jettySize=auto;html=1;" edge="1" parent="fD2b__GBOGLgcAUjD9c7-41" source="fD2b__GBOGLgcAUjD9c7-60" target="fD2b__GBOGLgcAUjD9c7-56">
          <mxGeometry relative="1" as="geometry" />
        </mxCell>
        <mxCell id="fD2b__GBOGLgcAUjD9c7-65" style="edgeStyle=orthogonalEdgeStyle;rounded=0;orthogonalLoop=1;jettySize=auto;html=1;" edge="1" parent="fD2b__GBOGLgcAUjD9c7-41" source="fD2b__GBOGLgcAUjD9c7-60" target="fD2b__GBOGLgcAUjD9c7-58">
          <mxGeometry relative="1" as="geometry" />
        </mxCell>
        <mxCell id="fD2b__GBOGLgcAUjD9c7-66" style="edgeStyle=orthogonalEdgeStyle;rounded=0;orthogonalLoop=1;jettySize=auto;html=1;" edge="1" parent="fD2b__GBOGLgcAUjD9c7-41" source="fD2b__GBOGLgcAUjD9c7-60" target="fD2b__GBOGLgcAUjD9c7-57">
          <mxGeometry relative="1" as="geometry" />
        </mxCell>
        <mxCell id="fD2b__GBOGLgcAUjD9c7-60" value="&lt;font style=&quot;font-size: 9px;&quot;&gt;SchedulerService&lt;br&gt;(작업스케줄링)&lt;/font&gt;" style="rounded=0;whiteSpace=wrap;html=1;" vertex="1" parent="fD2b__GBOGLgcAUjD9c7-41">
          <mxGeometry x="110" y="32.20454545454545" width="90" height="35.45454545454545" as="geometry" />
        </mxCell>
        <mxCell id="fD2b__GBOGLgcAUjD9c7-58" value="&lt;font style=&quot;font-size: 9px; line-height: 70%;&quot;&gt;ImageService&lt;/font&gt;" style="rounded=0;whiteSpace=wrap;html=1;align=center;" vertex="1" parent="fD2b__GBOGLgcAUjD9c7-41">
          <mxGeometry x="212.5" y="89.72727272727272" width="90" height="35.45454545454545" as="geometry" />
        </mxCell>
        <mxCell id="fD2b__GBOGLgcAUjD9c7-62" value="&lt;font style=&quot;font-size: 9px;&quot;&gt;APScheduler (scheduler.py)&lt;/font&gt;" style="text;strokeColor=none;align=center;fillColor=none;html=1;verticalAlign=middle;whiteSpace=wrap;rounded=0;" vertex="1" parent="fD2b__GBOGLgcAUjD9c7-41">
          <mxGeometry x="97.5" y="3.545454545454545" width="115" height="35.45454545454545" as="geometry" />
        </mxCell>
        <mxCell id="fD2b__GBOGLgcAUjD9c7-45" value="" style="shape=image;verticalLabelPosition=bottom;labelBackgroundColor=#ffffff;verticalAlign=top;aspect=fixed;imageAspect=0;image=data:image/svg+xml,PHN2ZyB4bWxuczpjYz0iaHR0cDovL2NyZWF0aXZlY29tbW9ucy5vcmcvbnMjIiB4bWxuczpkYz0iaHR0cDovL3B1cmwub3JnL2RjL2VsZW1lbnRzLzEuMS8iIHhtbG5zOmlua3NjYXBlPSJodHRwOi8vd3d3Lmlua3NjYXBlLm9yZy9uYW1lc3BhY2VzL2lua3NjYXBlIiB4bWxuczpyZGY9Imh0dHA6Ly93d3cudzMub3JnLzE5OTkvMDIvMjItcmRmLXN5bnRheC1ucyMiIHhtbG5zOnNvZGlwb2RpPSJodHRwOi8vc29kaXBvZGkuc291cmNlZm9yZ2UubmV0L0RURC9zb2RpcG9kaS0wLmR0ZCIgeG1sbnM6c3ZnPSJodHRwOi8vd3d3LnczLm9yZy8yMDAwL3N2ZyIgeG1sbnM9Imh0dHA6Ly93d3cudzMub3JnLzIwMDAvc3ZnIiB4bWxuczp4bGluaz0iaHR0cDovL3d3dy53My5vcmcvMTk5OS94bGluayIgdmVyc2lvbj0iMS4xIiBpZD0ic3ZnMTk1MzM4IiBpbmtzY2FwZTp2ZXJzaW9uPSIwLjkyLjMgKDI0MDU1NDYsIDIwMTgtMDMtMTEpIiBzb2RpcG9kaTpkb2NuYW1lPSJweXRob24uc3ZnIiB4PSIwcHgiIHk9IjBweCIgdmlld0JveD0iMCAwIDU1Ljg5IDE2LjIxIiBzdHlsZT0iZW5hYmxlLWJhY2tncm91bmQ6bmV3IDAgMCA1NS44OSAxNi4yMTsiIHhtbDpzcGFjZT0icHJlc2VydmUiPiYjeGE7PHNvZGlwb2RpOm5hbWVkdmlldyBib3JkZXJjb2xvcj0iIzY2NjY2NiIgYm9yZGVyb3BhY2l0eT0iMSIgZml0LW1hcmdpbi1ib3R0b209IjAiIGZpdC1tYXJnaW4tbGVmdD0iMCIgZml0LW1hcmdpbi1yaWdodD0iMCIgZml0LW1hcmdpbi10b3A9IjAiIGdyaWR0b2xlcmFuY2U9IjEwIiBndWlkZXRvbGVyYW5jZT0iMTAiIGlkPSJuYW1lZHZpZXcxOTUzNDAiIGlua3NjYXBlOmN1cnJlbnQtbGF5ZXI9InN2ZzE5NTMzOCIgaW5rc2NhcGU6Y3g9IjMxLjYwOTEzNSIgaW5rc2NhcGU6Y3k9IjMuNjAxMjQxNyIgaW5rc2NhcGU6cGFnZW9wYWNpdHk9IjAiIGlua3NjYXBlOnBhZ2VzaGFkb3c9IjIiIGlua3NjYXBlOndpbmRvdy1oZWlnaHQ9IjEwMTciIGlua3NjYXBlOndpbmRvdy1tYXhpbWl6ZWQ9IjEiIGlua3NjYXBlOndpbmRvdy13aWR0aD0iMTkyMCIgaW5rc2NhcGU6d2luZG93LXg9Ii04IiBpbmtzY2FwZTp3aW5kb3cteT0iLTgiIGlua3NjYXBlOnpvb209IjIwLjI5NDQ3IiBvYmplY3R0b2xlcmFuY2U9IjEwIiBwYWdlY29sb3I9IiNmZmZmZmYiIHNob3dncmlkPSJmYWxzZSI+JiN4YTsJPC9zb2RpcG9kaTpuYW1lZHZpZXc+JiN4YTs8ZyBpZD0ic2hhcGUxMTU2LTIiIHRyYW5zZm9ybT0idHJhbnNsYXRlKDE2LjgyMTczLC0xNS4yNDIxKSI+JiN4YTsJPHRpdGxlIGlkPSJ0aXRsZTE5NTI4NSI+cGF0aDQ2PC90aXRsZT4mI3hhOwk8cGF0aCBpZD0icGF0aDE5NTI4NyIgaW5rc2NhcGU6Y29ubmVjdG9yLWN1cnZhdHVyZT0iMCIgc3R5bGU9ImZpbGw6IzNGNTc2NTsiIGQ9Ik00LjI1LDIyLjE0YzAtMS43MS0wLjQ5LTIuNTktMS40Ny0yLjY0ICAgYy0wLjM4LTAuMDItMC43NiwwLjA1LTEuMTMsMC4xOWMtMC4zLDAuMTEtMC41LDAuMjEtMC42LDAuMzF2NC4xYzAuNjIsMC4zOSwxLjE4LDAuNTcsMS42NiwwLjU0QzMuNzQsMjQuNTcsNC4yNSwyMy43NCw0LjI1LDIyLjE0ICAgeiBNNS40NiwyMi4yMmMwLDAuODctMC4yMSwxLjU5LTAuNjIsMi4xNmMtMC40NiwwLjY1LTEuMDksMC45OS0xLjksMS4wMWMtMC42MSwwLjAyLTEuMjQtMC4xNy0xLjg5LTAuNTh2My43MkwwLDI4LjE2di04LjI1ICAgYzAuMTctMC4yMiwwLjM5LTAuNCwwLjY2LTAuNTVDMS4yOSwxOSwyLjA0LDE4LjgxLDIuOTQsMTguOGwwLjAxLDAuMDFjMC44Mi0wLjAxLDEuNDUsMC4zMywxLjg5LDEuMDEgICBDNS4yNSwyMC40NCw1LjQ2LDIxLjI0LDUuNDYsMjIuMjJ6Ii8+JiN4YTs8L2c+JiN4YTs8ZyBpZD0ic2hhcGUxMTU3LTQiIHRyYW5zZm9ybT0idHJhbnNsYXRlKDIzLjQxNTkzLC0xNS4yNzA3OCkiPiYjeGE7CTx0aXRsZSBpZD0idGl0bGUxOTUyOTAiPnBhdGg0ODwvdGl0bGU+JiN4YTsJPHBhdGggaWQ9InBhdGgxOTUyOTIiIGlua3NjYXBlOmNvbm5lY3Rvci1jdXJ2YXR1cmU9IjAiIHN0eWxlPSJmaWxsOiMzRjU3NjU7IiBkPSJNNS4yNywyNC42OGMwLDEuMTctMC4xMiwxLjk4LTAuMzUsMi40MyAgIGMtMC4yNCwwLjQ1LTAuNjgsMC44MS0xLjM0LDEuMDhjLTAuNTQsMC4yMS0xLjEyLDAuMzItMS43NCwwLjM0bC0wLjE3LTAuNjZDMi4zLDI3Ljc5LDIuNzQsMjcuNywzLDI3LjYxICAgYzAuNTEtMC4xNywwLjg2LTAuNDMsMS4wNS0wLjc5YzAuMTUtMC4yOCwwLjIzLTAuODMsMC4yMy0xLjY1VjI0LjljLTAuNzIsMC4zMy0xLjQ3LDAuNDktMi4yNiwwLjQ5Yy0wLjUxLDAtMC45Ny0wLjE2LTEuMzYtMC40OSAgIEMwLjIyLDI0LjU1LDAsMjQuMSwwLDIzLjU1di00LjM2bDEuMDUtMC4zNnY0LjM5YzAsMC40NywwLjE1LDAuODMsMC40NSwxLjA4YzAuMzEsMC4yNiwwLjcsMC4zOCwxLjE4LDAuMzcgICBjMC40OC0wLjAxLDAuOTktMC4yLDEuNTQtMC41NnYtNS4xMmgxLjA1TDUuMjcsMjQuNjh6Ii8+JiN4YTs8L2c+JiN4YTs8ZyBpZD0ic2hhcGUxMTU4LTYiIHRyYW5zZm9ybT0idHJhbnNsYXRlKDI5LjgzNTYzLC0xOC40MjkwNSkiPiYjeGE7CTx0aXRsZSBpZD0idGl0bGUxOTUyOTUiPnBhdGg1MDwvdGl0bGU+JiN4YTsJPHBhdGggaWQ9InBhdGgxOTUyOTciIGlua3NjYXBlOmNvbm5lY3Rvci1jdXJ2YXR1cmU9IjAiIHN0eWxlPSJmaWxsOiMzRjU3NjU7IiBkPSJNMi45NCwyOC41MmMtMC4xMiwwLjAxLTAuMjQsMC4wMS0wLjM0LDAuMDEgICBjLTAuNTksMC0xLjA2LTAuMTQtMS4zOS0wLjQyYy0wLjMzLTAuMjktMC40OS0wLjY4LTAuNDktMS4xOFYyMi44SDB2LTAuNjZoMC43MnYtMS43NWwxLjA1LTAuMzd2Mi4xMmgxLjE3djAuNjZIMS43N3Y0LjExICAgYzAsMC4zOSwwLjEsMC42NywwLjMxLDAuODNjMC4xOCwwLjEzLDAuNDcsMC4yMSwwLjg2LDAuMjNWMjguNTJ6Ii8+JiN4YTs8L2c+JiN4YTs8ZyBpZD0ic2hhcGUxMTU5LTgiIHRyYW5zZm9ybT0idHJhbnNsYXRlKDM0LjAxNjEzLC0xOC41MykiPiYjeGE7CTx0aXRsZSBpZD0idGl0bGUxOTUzMDAiPnBhdGg1MjwvdGl0bGU+JiN4YTsJPHBhdGggaWQ9InBhdGgxOTUzMDIiIGlua3NjYXBlOmNvbm5lY3Rvci1jdXJ2YXR1cmU9IjAiIHN0eWxlPSJmaWxsOiMzRjU3NjU7IiBkPSJNNS4xMSwyOC41M0g0LjA2di00LjA1ICAgYzAtMC40MS0wLjA5LTAuNzYtMC4yOC0xLjA2Yy0wLjIzLTAuMzMtMC41My0wLjUtMC45My0wLjVjLTAuNDgsMC0xLjA4LDAuMjUtMS44LDAuNzZ2NC44NUgwdi05LjY3bDEuMDUtMC4zM3Y0LjQgICBjMC42Ny0wLjQ4LDEuNC0wLjczLDIuMi0wLjczYzAuNTUsMCwxLDAuMTksMS4zNCwwLjU2YzAuMzUsMC4zNywwLjUyLDAuODQsMC41MiwxLjM5VjI4LjUzeiIvPiYjeGE7PC9nPiYjeGE7PGcgaWQ9InNoYXBlMTE2MC0xMCIgdHJhbnNmb3JtPSJ0cmFuc2xhdGUoNDAuMDkxNzMsLTE4LjQwMDM3KSI+JiN4YTsJPHRpdGxlIGlkPSJ0aXRsZTE5NTMwNSI+cGF0aDU0PC90aXRsZT4mI3hhOwk8cGF0aCBpZD0icGF0aDE5NTMwNyIgaW5rc2NhcGU6Y29ubmVjdG9yLWN1cnZhdHVyZT0iMCIgc3R5bGU9ImZpbGw6IzNGNTc2NTsiIGQ9Ik00LjYxLDI1LjE0YzAtMC42Ni0wLjEzLTEuMi0wLjM3LTEuNjMgICBjLTAuMy0wLjUzLTAuNzYtMC44MS0xLjM4LTAuODNjLTEuMTUsMC4wNi0xLjczLDAuODktMS43MywyLjQ2YzAsMC43MywwLjEyLDEuMzMsMC4zNiwxLjgyYzAuMzEsMC42MiwwLjc3LDAuOTIsMS4zOSwwLjkxICAgQzQuMDMsMjcuODYsNC42MSwyNi45NSw0LjYxLDI1LjE0eiBNNS43NiwyNS4xNGMwLDAuOTQtMC4yNCwxLjcyLTAuNzIsMi4zNGMtMC41MywwLjctMS4yNSwxLjA1LTIuMTgsMS4wNSAgIGMtMC45MiwwLTEuNjQtMC4zNS0yLjE2LTEuMDVDMC4yMywyNi44NiwwLDI2LjA4LDAsMjUuMTRjMC0wLjg4LDAuMjUtMS42MiwwLjc2LTIuMjJDMS4zLDIyLjI4LDIsMjEuOTYsMi44NywyMS45NiAgIFM0LjQ1LDIyLjI4LDUsMjIuOTJDNS41LDIzLjUyLDUuNzYsMjQuMjYsNS43NiwyNS4xNHoiLz4mI3hhOzwvZz4mI3hhOzxnIGlkPSJzaGFwZTExNjEtMTIiIHRyYW5zZm9ybT0idHJhbnNsYXRlKDQ2Ljc5MTQzLC0xOC41MykiPiYjeGE7CTx0aXRsZSBpZD0idGl0bGUxOTUzMTAiPnBhdGg1NjwvdGl0bGU+JiN4YTsJPHBhdGggaWQ9InBhdGgxOTUzMTIiIGlua3NjYXBlOmNvbm5lY3Rvci1jdXJ2YXR1cmU9IjAiIHN0eWxlPSJmaWxsOiMzRjU3NjU7IiBkPSJNNS4wNywyOC41M0g0LjAydi00LjI3ICAgYzAtMC40Ny0wLjE0LTAuODQtMC40Mi0xLjFjLTAuMjgtMC4yNy0wLjY2LTAuMzktMS4xMy0wLjM4Yy0wLjUsMC4wMS0wLjk3LDAuMTctMS40MiwwLjQ4djUuMjdIMHYtNS40ICAgYzAuNi0wLjQzLDEuMTYtMC43MiwxLjY3LTAuODZjMC40Ny0wLjEyLDAuOS0wLjE4LDEuMjYtMC4xOGMwLjI1LDAsMC40OCwwLjAyLDAuNywwLjA3YzAuNDIsMC4wOSwwLjc1LDAuMjcsMS4wMSwwLjUzICAgYzAuMjksMC4yOSwwLjQzLDAuNjMsMC40MywxLjAzTDUuMDcsMjguNTN6Ii8+JiN4YTs8L2c+JiN4YTs8ZyBpZD0ic2hhcGUxMTYyLTE0IiB0cmFuc2Zvcm09InRyYW5zbGF0ZSgtMC4wNzg3NzAzNSwtMTguMzg1NzQpIj4mI3hhOwk8dGl0bGUgaWQ9InRpdGxlMTk1MzE1Ij5wYXRoMTk0ODwvdGl0bGU+JiN4YTsJJiN4YTsJCTxsaW5lYXJHcmFkaWVudCBpZD0icGF0aDE5NTMxN18xXyIgZ3JhZGllbnRVbml0cz0idXNlclNwYWNlT25Vc2UiIHgxPSIxLjQyMzEiIHkxPSIxNC42MTI5IiB4Mj0iMTEuMTU4NiIgeTI9IjE0LjYxMjkiIGdyYWRpZW50VHJhbnNmb3JtPSJtYXRyaXgoMC45OTU1IDAgMCAtMS4wMDQ2IC0xLjMzNzkgMzguMzE5NikiPiYjeGE7CQk8c3RvcCBvZmZzZXQ9IjAiIHN0eWxlPSJzdG9wLWNvbG9yOiM1QTlGRDQiLz4mI3hhOwkJPHN0b3Agb2Zmc2V0PSIxIiBzdHlsZT0ic3RvcC1jb2xvcjojMzA2OTk4Ii8+JiN4YTsJPC9saW5lYXJHcmFkaWVudD4mI3hhOwk8cGF0aCBpZD0icGF0aDE5NTMxNyIgaW5rc2NhcGU6Y29ubmVjdG9yLWN1cnZhdHVyZT0iMCIgc3R5bGU9ImZpbGw6dXJsKCNwYXRoMTk1MzE3XzFfKTsiIGQ9Ik02LjU0LDE4Ljc1ICAgYy0wLjU0LDAtMS4wNSwwLjA1LTEuNSwwLjEzYy0xLjM0LDAuMjQtMS41OCwwLjczLTEuNTgsMS42NHYxLjJoMy4xNXYwLjQxSDMuNDZIMi4yN2MtMC45MSwwLTEuNzIsMC41NS0xLjk3LDEuNTkgICBjLTAuMjksMS4yMS0wLjMsMS45NiwwLDMuMjFjMC4yMywwLjk0LDAuNzYsMS42LDEuNjgsMS42aDEuMDh2LTEuNDRjMC0xLjA0LDAuOTEtMS45NiwxLjk4LTEuOTZoMy4xNWMwLjg4LDAsMS41OC0wLjcyLDEuNTgtMS42ICAgdi0zLjAxYzAtMC44NS0wLjczLTEuNS0xLjU4LTEuNjRDNy42NSwxOC43OSw3LjA4LDE4Ljc1LDYuNTQsMTguNzV6IE00Ljg0LDE5LjcyYzAuMzIsMCwwLjU5LDAuMjcsMC41OSwwLjZzLTAuMjcsMC42LTAuNTksMC42ICAgYy0wLjMzLDAtMC41OS0wLjI3LTAuNTktMC42UzQuNTEsMTkuNzIsNC44NCwxOS43MnoiLz4mI3hhOzwvZz4mI3hhOzxnIGlkPSJzaGFwZTExNjMtMTgiIHRyYW5zZm9ybT0idHJhbnNsYXRlKDMuMzc5NTk5NywtMTQuODMxNjcpIj4mI3hhOwk8dGl0bGUgaWQ9InRpdGxlMTk1MzIwIj5wYXRoMTk1MDwvdGl0bGU+JiN4YTsJJiN4YTsJCTxsaW5lYXJHcmFkaWVudCBpZD0icGF0aDE5NTMyMl8xXyIgZ3JhZGllbnRVbml0cz0idXNlclNwYWNlT25Vc2UiIHgxPSItMS4yMDY0IiB5MT0iMTIuNTI4OCIgeDI9IjguNTczNSIgeTI9IjEyLjUyODgiIGdyYWRpZW50VHJhbnNmb3JtPSJtYXRyaXgoMC45OTIyIDAgMCAtMS4wMDc4IDEuMTk3MSAzNi4xMjU0KSI+JiN4YTsJCTxzdG9wIG9mZnNldD0iMCIgc3R5bGU9InN0b3AtY29sb3I6I0ZGRDQzQiIvPiYjeGE7CQk8c3RvcCBvZmZzZXQ9IjEiIHN0eWxlPSJzdG9wLWNvbG9yOiNGRkU4NzMiLz4mI3hhOwk8L2xpbmVhckdyYWRpZW50PiYjeGE7CTxwYXRoIGlkPSJwYXRoMTk1MzIyIiBpbmtzY2FwZTpjb25uZWN0b3ItY3VydmF0dXJlPSIwIiBzdHlsZT0iZmlsbDp1cmwoI3BhdGgxOTUzMjJfMV8pOyIgZD0iTTYuNywxOC41N3YxLjRjMCwxLjA5LTAuOTIsMi0xLjk3LDIgICBIMS41OEMwLjcxLDIxLjk3LDAsMjIuNzEsMCwyMy41OHYzYzAsMC44NiwwLjc0LDEuMzYsMS41OCwxLjYxYzEsMC4yOSwxLjk1LDAuMzQsMy4xNSwwYzAuNzktMC4yMywxLjU4LTAuNywxLjU4LTEuNjF2LTEuMkgzLjE2ICAgdi0wLjRoMy4xNWgxLjU4YzAuOTEsMCwxLjI1LTAuNjQsMS41Ny0xLjZjMC4zMy0wLjk5LDAuMzItMS45NCwwLTMuMjFjLTAuMjItMC45MS0wLjY2LTEuNi0xLjU3LTEuNkw2LjcsMTguNTd6IE00LjkzLDI2LjE4ICAgYzAuMzMsMCwwLjU5LDAuMjcsMC41OSwwLjZzLTAuMjYsMC42LTAuNTksMC42Yy0wLjMzLDAtMC41OS0wLjI3LTAuNTktMC42UzQuNiwyNi4xOCw0LjkzLDI2LjE4eiIvPiYjeGE7PC9nPiYjeGE7PGcgaWQ9InNoYXBlMTE2NC0yMiIgdHJhbnNmb3JtPSJ0cmFuc2xhdGUoNTMuNDY3MzMsLTI1Ljc1MTU3KSI+JiN4YTsJPHRpdGxlIGlkPSJ0aXRsZTE5NTMyNSI+dGV4dDMwMDQ8L3RpdGxlPiYjeGE7CTxwYXRoIGlkPSJwYXRoMTk1MzI3IiBpbmtzY2FwZTpjb25uZWN0b3ItY3VydmF0dXJlPSIwIiBzdHlsZT0iZmlsbDojM0Y1NzY1OyIgZD0iTTAuNDQsMjguNTNoMC4xOHYtMS4xNWgwLjQzdi0wLjE0SDB2MC4xNGgwLjQ0ICAgVjI4LjUzeiBNMS4yMiwyOC41M2gwLjE1di0xLjA1bDAuMzUsMS4wNWgwLjE3bDAuMzYtMS4wNXYxLjA1aDAuMTd2LTEuMjlIMi4xOUwxLjgsMjguMzVsLTAuMzMtMS4xMUgxLjIyVjI4LjUzeiIvPiYjeGE7PC9nPiYjeGE7PGcgaWQ9InNoYXBlMTE2NS0yNCIgdHJhbnNmb3JtPSJ0cmFuc2xhdGUoMi4zNDIxNzk3LC0xMi4zMTU2NykiPiYjeGE7CTx0aXRsZSBpZD0idGl0bGUxOTUzMzAiPnBhdGgxODk0PC90aXRsZT4mI3hhOwk8cGF0aCBpZD0icGF0aDE5NTMzMiIgaW5rc2NhcGU6Y29ubmVjdG9yLWN1cnZhdHVyZT0iMCIgc3R5bGU9ImZpbGw6IzNGNTc2NTtmaWxsLW9wYWNpdHk6MC40NDsiIGQ9Ik04LjQ2LDI3LjcxICAgYzAsMC40NS0xLjg5LDAuODItNC4yMywwLjgyQzEuOSwyOC41MywwLDI4LjE2LDAsMjcuNzFjMC0wLjQ1LDEuODktMC44Miw0LjIzLTAuODJDNi41NywyNi44OSw4LjQ2LDI3LjI2LDguNDYsMjcuNzF6Ii8+JiN4YTs8L2c+JiN4YTs8L3N2Zz4=;" vertex="1" parent="fD2b__GBOGLgcAUjD9c7-41">
          <mxGeometry x="325" y="89.72999999999999" width="33.36760204081633" height="9.53636394557823" as="geometry" />
        </mxCell>
        <mxCell id="fD2b__GBOGLgcAUjD9c7-44" value="&lt;font style=&quot;font-size: 11px;&quot;&gt;SlackBot&lt;/font&gt;" style="rounded=0;whiteSpace=wrap;html=1;" vertex="1" parent="fD2b__GBOGLgcAUjD9c7-9">
          <mxGeometry x="345" y="132" width="55" height="30" as="geometry" />
        </mxCell>
        <mxCell id="fD2b__GBOGLgcAUjD9c7-31" value="" style="swimlane;startSize=0;fontSize=10;" vertex="1" parent="fD2b__GBOGLgcAUjD9c7-7">
          <mxGeometry x="104" y="226" width="80" height="50" as="geometry">
            <mxRectangle x="700" y="430" width="50" height="40" as="alternateBounds" />
          </mxGeometry>
        </mxCell>
        <mxCell id="fD2b__GBOGLgcAUjD9c7-20" value="" style="sketch=0;points=[[0,0,0],[0.25,0,0],[0.5,0,0],[0.75,0,0],[1,0,0],[0,1,0],[0.25,1,0],[0.5,1,0],[0.75,1,0],[1,1,0],[0,0.25,0],[0,0.5,0],[0,0.75,0],[1,0.25,0],[1,0.5,0],[1,0.75,0]];outlineConnect=0;fontColor=#232F3E;fillColor=#0137A3;strokeColor=#ffffff;dashed=0;verticalLabelPosition=bottom;verticalAlign=top;align=center;html=1;fontSize=12;fontStyle=0;aspect=fixed;shape=mxgraph.aws4.resourceIcon;resIcon=mxgraph.aws4.rds;" vertex="1" parent="fD2b__GBOGLgcAUjD9c7-31">
          <mxGeometry width="25" height="25" as="geometry" />
        </mxCell>
        <mxCell id="fD2b__GBOGLgcAUjD9c7-27" value="MySQL" style="shape=image;verticalLabelPosition=bottom;labelBackgroundColor=#ffffff;verticalAlign=top;aspect=fixed;imageAspect=0;image=data:image/svg+xml,PHN2ZyB4bWxuczpjYz0iaHR0cDovL2NyZWF0aXZlY29tbW9ucy5vcmcvbnMjIiB4bWxuczpkYz0iaHR0cDovL3B1cmwub3JnL2RjL2VsZW1lbnRzLzEuMS8iIHhtbG5zOmlua3NjYXBlPSJodHRwOi8vd3d3Lmlua3NjYXBlLm9yZy9uYW1lc3BhY2VzL2lua3NjYXBlIiB4bWxuczpyZGY9Imh0dHA6Ly93d3cudzMub3JnLzE5OTkvMDIvMjItcmRmLXN5bnRheC1ucyMiIHhtbG5zOnNvZGlwb2RpPSJodHRwOi8vc29kaXBvZGkuc291cmNlZm9yZ2UubmV0L0RURC9zb2RpcG9kaS0wLmR0ZCIgeG1sbnM6c3ZnPSJodHRwOi8vd3d3LnczLm9yZy8yMDAwL3N2ZyIgeG1sbnM9Imh0dHA6Ly93d3cudzMub3JnLzIwMDAvc3ZnIiB4bWxuczp4bGluaz0iaHR0cDovL3d3dy53My5vcmcvMTk5OS94bGluayIgdmVyc2lvbj0iMS4xIiBpZD0ic3ZnMTAyMTA3IiBpbmtzY2FwZTp2ZXJzaW9uPSIwLjkyLjMgKDI0MDU1NDYsIDIwMTgtMDMtMTEpIiBzb2RpcG9kaTpkb2NuYW1lPSJteXNxbF8yLnN2ZyIgeD0iMHB4IiB5PSIwcHgiIHZpZXdCb3g9IjAgMCA1Mi44OCA2MC4wNyIgc3R5bGU9ImVuYWJsZS1iYWNrZ3JvdW5kOm5ldyAwIDAgNTIuODggNjAuMDc7IiB4bWw6c3BhY2U9InByZXNlcnZlIj4mI3hhOzxmaWx0ZXIgaWQ9ImZpbHRlcl8yIj4mI3hhOwk8ZmVHYXVzc2lhbkJsdXIgaWQ9ImZlR2F1c3NpYW5CbHVyMTAyMDc1IiBzdGREZXZpYXRpb249IjIiLz4mI3hhOzwvZmlsdGVyPiYjeGE7PHNvZGlwb2RpOm5hbWVkdmlldyBib3JkZXJjb2xvcj0iIzY2NjY2NiIgYm9yZGVyb3BhY2l0eT0iMSIgZml0LW1hcmdpbi1ib3R0b209IjAiIGZpdC1tYXJnaW4tbGVmdD0iMCIgZml0LW1hcmdpbi1yaWdodD0iMCIgZml0LW1hcmdpbi10b3A9IjAiIGdyaWR0b2xlcmFuY2U9IjEwIiBndWlkZXRvbGVyYW5jZT0iMTAiIGlkPSJuYW1lZHZpZXcxMDIxMDkiIGlua3NjYXBlOmN1cnJlbnQtbGF5ZXI9InN2ZzEwMjEwNyIgaW5rc2NhcGU6Y3g9IjM1LjI1IiBpbmtzY2FwZTpjeT0iNDAuMDQ1MjAxIiBpbmtzY2FwZTpwYWdlb3BhY2l0eT0iMCIgaW5rc2NhcGU6cGFnZXNoYWRvdz0iMiIgaW5rc2NhcGU6d2luZG93LWhlaWdodD0iMTAxNyIgaW5rc2NhcGU6d2luZG93LW1heGltaXplZD0iMSIgaW5rc2NhcGU6d2luZG93LXdpZHRoPSIxOTIwIiBpbmtzY2FwZTp3aW5kb3cteD0iLTgiIGlua3NjYXBlOndpbmRvdy15PSItOCIgaW5rc2NhcGU6em9vbT0iMTAuODI0NDc2IiBvYmplY3R0b2xlcmFuY2U9IjEwIiBwYWdlY29sb3I9IiNmZmZmZmYiIHNob3dncmlkPSJmYWxzZSI+JiN4YTsJPC9zb2RpcG9kaTpuYW1lZHZpZXc+JiN4YTs8ZyBpZD0iZzEwMjEwNSI+JiN4YTsJPHRpdGxlIGlkPSJ0aXRsZTEwMjA3OSI+UGFnZS0xPC90aXRsZT4mI3hhOwk8ZyBpZD0iZ3JvdXAzNjM3LTEiPiYjeGE7CQk8dGl0bGUgaWQ9InRpdGxlMTAyMDgxIj5NeVNRTCAjMjwvdGl0bGU+JiN4YTsJCTxnIGlkPSJzaGFwZTM2MzgtMiI+JiN4YTsJCQk8dGl0bGUgaWQ9InRpdGxlMTAyMDgzIj5EYXRhYmFzZSAjMjwvdGl0bGU+JiN4YTsJCQk8cGF0aCBpZD0icGF0aDEwMjA4NSIgaW5rc2NhcGU6Y29ubmVjdG9yLWN1cnZhdHVyZT0iMCIgc3R5bGU9ImZpbGw6IzNGNTc2NTsiIGQ9Ik0yNi43MSwwYzE0LjY0LDAsMjYuMTcsMy45MywyNi4xNyw4LjMxICAgICBjMCw0My41NCwwLDQzLjU0LDAsNDMuNTRjMCw0LjgzLTExLjUzLDguMjItMjYuMTcsOC4yMkMxMi4xNSw2MC4wNywwLDU2LjY4LDAsNTEuODVDMCw4LjMxLDAsOC4zMSwwLDguMzEgICAgIEMwLDMuOTMsMTIuMTUsMCwyNi43MSwweiBNMjYuNzEsMTQuMjFjMTIuNTksMCwyMi42OC0yLjk1LDIyLjY4LTUuOWMwLTIuODYtMTAuMDktNS4zNi0yMi42OC01LjM2Yy0xMi42LDAtMjIuNiwyLjUtMjIuNiw1LjM2ICAgICBDNC4xMSwxMS4yNiwxNC4xMSwxNC4yMSwyNi43MSwxNC4yMXoiLz4mI3hhOwkJPC9nPiYjeGE7CQk8ZyBpZD0ic2hhcGUzNjM5LTQiIHRyYW5zZm9ybT0idHJhbnNsYXRlKDEwLjU4OTIsLTcuMjMwNDkpIj4mI3hhOwkJCTx0aXRsZSBpZD0idGl0bGUxMDIwODgiPlNoZWV0LjM2Mzk8L3RpdGxlPiYjeGE7CQkJPGcgaWQ9InNoYWRvdzM2MzktNSIgdHJhbnNmb3JtPSJ0cmFuc2xhdGUoMC4zNDU2LDEuOTcyOCkiPiYjeGE7CQkJCTxnIGlkPSJwYXRoMTAyMDkwIiBpbmtzY2FwZTpjb25uZWN0b3ItY3VydmF0dXJlPSIwIiBzdHlsZT0iZmlsdGVyOnVybCgjZmlsdGVyXzIpOyI+JiN4YTsJCQkJCTxwYXRoIHN0eWxlPSJvcGFjaXR5OjAuMjI7ZmlsbDojNUI5QkQ1OyIgZD0iTTMyLjY3LDUyLjMyYy0xLjkxLTAuMDUtMy4zNiwwLjEzLTQuNjEsMC42NWMtMC4zNSwwLjE1LTAuOTIsMC4xNS0wLjk3LDAuNiAgICAgICBjMC4xOSwwLjIsMC4yMiwwLjUxLDAuMzgsMC43NmMwLjI5LDAuNDgsMC43OSwxLjEyLDEuMjQsMS40NmMwLjQ5LDAuMzcsMSwwLjc2LDEuNTIsMS4wOGMwLjkzLDAuNTcsMS45NywwLjksMi44NywxLjQ3ICAgICAgIGMwLjUzLDAuMzMsMS4wNiwwLjc2LDEuNTcsMS4xNGMwLjI2LDAuMTgsMC40MywwLjQ3LDAuNzYsMC41OWMwLTAuMDIsMC0wLjAzLDAtMC4wNWMtMC4xNy0wLjIyLTAuMjItMC41My0wLjM4LTAuNzYgICAgICAgYy0wLjIzLTAuMjQtMC40Ny0wLjQ3LTAuNy0wLjcxYy0wLjY5LTAuOTEtMS41Ni0xLjcxLTIuNDktMi4zOGMtMC43NS0wLjUzLTIuNC0xLjI1LTIuNzEtMi4xMWMtMC4wMi0wLjAyLTAuMDQtMC4wNC0wLjA2LTAuMDYgICAgICAgYzAuNTMtMC4wNiwxLjE0LTAuMjUsMS42My0wLjM4YzAuODEtMC4yMiwxLjU0LTAuMTYsMi4zOC0wLjM4YzAuMzgtMC4xMSwwLjc2LTAuMjEsMS4xNC0wLjMyYzAtMC4wNywwLTAuMTUsMC0wLjIyICAgICAgIGMtMC40Mi0wLjQ0LTAuNzMtMS4wMS0xLjE5LTEuNDFjLTEuMjItMS4wMy0yLjU0LTIuMDYtMy45LTIuOTNjLTAuNzYtMC40Ny0xLjctMC43OC0yLjUtMS4xOWMtMC4yNy0wLjEzLTAuNzQtMC4yLTAuOTItMC40MyAgICAgICBjLTAuNDItMC41NC0wLjY1LTEuMjItMC45Ny0xLjg0Yy0wLjY4LTEuMzEtMS4zNS0yLjc1LTEuOTYtNC4xMmMtMC40MS0wLjk0LTAuNjgtMS44Ny0xLjE5LTIuNzEgICAgICAgYy0yLjQ2LTQuMDUtNS4xMS02LjQ5LTkuMjEtOC44OWMtMC44OC0wLjUxLTEuOTMtMC43Mi0zLjA0LTAuOThjLTAuNTktMC4wNC0xLjE5LTAuMDctMS43OS0wLjExICAgICAgIGMtMC4zNi0wLjE1LTAuNzQtMC42LTEuMDgtMC44MWMtMS4zNi0wLjg2LTQuODUtMi43My01Ljg1LTAuMjdDMCwyOC41NiwxLjU5LDMwLjA3LDIuMTUsMzAuODZjMC40LDAuNTUsMC45MSwxLjE3LDEuMiwxLjc5ICAgICAgIGMwLjE4LDAuNCwwLjIyLDAuODEsMC4zOCwxLjI0YzAuMzksMS4wNiwwLjczLDIuMjIsMS4yNCwzLjJjMC4yNiwwLjUsMC41NCwxLjAyLDAuODcsMS40NmMwLjIsMC4yOCwwLjU0LDAuNCwwLjYsMC44MiAgICAgICBjLTAuMzQsMC40Ni0wLjM2LDEuMTktMC41NSwxLjc5Yy0wLjg0LDIuNjctMC41Miw1Ljk5LDAuNzEsNy45NmMwLjM4LDAuNjEsMS4yNywxLjkxLDIuNDksMS40MWMxLjA3LTAuNDMsMC44My0xLjc5LDEuMTQtMi45OCAgICAgICBjMC4wNy0wLjI3LDAuMDMtMC40NywwLjE2LTAuNjVjMCwwLjAyLDAsMC4wNCwwLDAuMDZjMC4zMywwLjY1LDAuNjUsMS4zLDAuOTgsMS45NWMwLjcyLDEuMTYsMiwyLjM3LDMuMDksMy4xOSAgICAgICBjMC41NiwwLjQzLDEsMS4xNywxLjczLDEuNDFjMC0wLjAxLDAtMC4wMywwLTAuMDVjLTAuMDIsMC0wLjAzLDAtMC4wNSwwYy0wLjE0LTAuMjItMC4zNi0wLjMxLTAuNTQtMC40OSAgICAgICBjLTAuNDMtMC40MS0wLjktMC45My0xLjI1LTEuNDFjLTAuOTktMS4zNC0xLjg2LTIuODEtMi42Ni00LjMzYy0wLjM4LTAuNzMtMC43MS0xLjU0LTEuMDMtMi4yOCAgICAgICBjLTAuMTItMC4yOS0wLjEyLTAuNzItMC4zOC0wLjg3Yy0wLjM1LDAuNTUtMC44NiwwLjk5LTEuMTMsMS42M2MtMC40NCwxLjAzLTAuNDksMi4yOC0wLjY1LDMuNTggICAgICAgYy0wLjEsMC4wMy0wLjA2LDAuMDEtMC4xMSwwLjA1Yy0wLjc2LTAuMTgtMS4wMi0wLjk2LTEuMy0xLjYzYy0wLjcxLTEuNjgtMC44NS00LjQtMC4yMi02LjM0YzAuMTYtMC41LDAuODktMi4wOCwwLjU5LTIuNTUgICAgICAgYy0wLjE0LTAuNDYtMC42LTAuNzMtMC44Ni0xLjA4Yy0wLjMyLTAuNDQtMC42NS0xLjAxLTAuODctMS41MmMtMC41OC0xLjMxLTAuODUtMi43OS0xLjQ2LTQuMTJjLTAuMy0wLjYzLTAuNzktMS4yNy0xLjItMS44NCAgICAgICBjLTAuNDQtMC42My0wLjk1LTEuMDktMS4zLTEuODRjLTAuMTItMC4yNy0wLjI5LTAuNy0wLjEtMC45OGMwLjA1LTAuMTgsMC4xNC0wLjI2LDAuMzItMC4zMmMwLjMyLTAuMjUsMS4xOSwwLjA4LDEuNTIsMC4yMSAgICAgICBjMC44NywwLjM2LDEuNTksMC43MSwyLjMzLDEuMmMwLjM1LDAuMjMsMC43MSwwLjY4LDEuMTQsMC44MWMwLjE2LDAsMC4zMiwwLDAuNDgsMGMwLjc3LDAuMTcsMS42MiwwLjA1LDIuMzQsMC4yNyAgICAgICBjMS4yNiwwLjM4LDIuMzgsMC45OCwzLjQxLDEuNjNjMy4xMiwxLjk3LDUuNjgsNC43OCw3LjQzLDguMTNjMC4yOCwwLjU0LDAuNCwxLjA1LDAuNjUsMS42MmMwLjUsMS4xNiwxLjEzLDIuMzQsMS42MiwzLjQ3ICAgICAgIGMwLjUsMS4xMywwLjk4LDIuMjYsMS42OCwzLjJjMC4zNywwLjQ5LDEuOCwwLjc2LDIuNDQsMS4wM2MwLjQ2LDAuMTksMS4yLDAuMzksMS42MywwLjY1YzAuODIsMC40OSwxLjYxLDEuMDgsMi4zOCwxLjYzICAgICAgIEMzMS40Myw1MS4yNCwzMi42MSw1MS44MywzMi42Nyw1Mi4zMnoiLz4mI3hhOwkJCQk8L2c+JiN4YTsJCQk8L2c+JiN4YTsJCQk8cGF0aCBpZD0icGF0aDEwMjA5MyIgaW5rc2NhcGU6Y29ubmVjdG9yLWN1cnZhdHVyZT0iMCIgc3R5bGU9ImZpbGw6I0ZGRkZGRjsiIGQ9Ik0zMi42Nyw1Mi4zMmMtMS45MS0wLjA1LTMuMzYsMC4xMy00LjYxLDAuNjUgICAgIGMtMC4zNSwwLjE1LTAuOTIsMC4xNS0wLjk3LDAuNmMwLjE5LDAuMiwwLjIyLDAuNTEsMC4zOCwwLjc2YzAuMjksMC40OCwwLjc5LDEuMTIsMS4yNCwxLjQ2YzAuNDksMC4zNywxLDAuNzYsMS41MiwxLjA4ICAgICBjMC45MywwLjU3LDEuOTcsMC45LDIuODcsMS40N2MwLjUzLDAuMzMsMS4wNiwwLjc2LDEuNTcsMS4xNGMwLjI2LDAuMTgsMC40MywwLjQ3LDAuNzYsMC41OWMwLTAuMDIsMC0wLjAzLDAtMC4wNSAgICAgYy0wLjE3LTAuMjItMC4yMi0wLjUzLTAuMzgtMC43NmMtMC4yMy0wLjI0LTAuNDctMC40Ny0wLjctMC43MWMtMC42OS0wLjkxLTEuNTYtMS43MS0yLjQ5LTIuMzhjLTAuNzUtMC41My0yLjQtMS4yNS0yLjcxLTIuMTEgICAgIGMtMC4wMi0wLjAyLTAuMDQtMC4wNC0wLjA2LTAuMDZjMC41My0wLjA2LDEuMTQtMC4yNSwxLjYzLTAuMzhjMC44MS0wLjIyLDEuNTQtMC4xNiwyLjM4LTAuMzhjMC4zOC0wLjExLDAuNzYtMC4yMSwxLjE0LTAuMzIgICAgIGMwLTAuMDcsMC0wLjE1LDAtMC4yMmMtMC40Mi0wLjQ0LTAuNzMtMS4wMS0xLjE5LTEuNDFjLTEuMjItMS4wMy0yLjU0LTIuMDYtMy45LTIuOTNjLTAuNzYtMC40Ny0xLjctMC43OC0yLjUtMS4xOSAgICAgYy0wLjI3LTAuMTMtMC43NC0wLjItMC45Mi0wLjQzYy0wLjQyLTAuNTQtMC42NS0xLjIyLTAuOTctMS44NGMtMC42OC0xLjMxLTEuMzUtMi43NS0xLjk2LTQuMTJjLTAuNDEtMC45NC0wLjY4LTEuODctMS4xOS0yLjcxICAgICBjLTIuNDYtNC4wNS01LjExLTYuNDktOS4yMS04Ljg5Yy0wLjg4LTAuNTEtMS45My0wLjcyLTMuMDQtMC45OGMtMC41OS0wLjA0LTEuMTktMC4wNy0xLjc5LTAuMTFjLTAuMzYtMC4xNS0wLjc0LTAuNi0xLjA4LTAuODEgICAgIGMtMS4zNi0wLjg2LTQuODUtMi43My01Ljg1LTAuMjdDMCwyOC41NiwxLjU5LDMwLjA3LDIuMTUsMzAuODZjMC40LDAuNTUsMC45MSwxLjE3LDEuMiwxLjc5YzAuMTgsMC40LDAuMjIsMC44MSwwLjM4LDEuMjQgICAgIGMwLjM5LDEuMDYsMC43MywyLjIyLDEuMjQsMy4yYzAuMjYsMC41LDAuNTQsMS4wMiwwLjg3LDEuNDZjMC4yLDAuMjgsMC41NCwwLjQsMC42LDAuODJjLTAuMzQsMC40Ni0wLjM2LDEuMTktMC41NSwxLjc5ICAgICBjLTAuODQsMi42Ny0wLjUyLDUuOTksMC43MSw3Ljk2YzAuMzgsMC42MSwxLjI3LDEuOTEsMi40OSwxLjQxYzEuMDctMC40MywwLjgzLTEuNzksMS4xNC0yLjk4YzAuMDctMC4yNywwLjAzLTAuNDcsMC4xNi0wLjY1ICAgICBjMCwwLjAyLDAsMC4wNCwwLDAuMDZjMC4zMywwLjY1LDAuNjUsMS4zLDAuOTgsMS45NWMwLjcyLDEuMTYsMiwyLjM3LDMuMDksMy4xOWMwLjU2LDAuNDMsMSwxLjE3LDEuNzMsMS40MSAgICAgYzAtMC4wMSwwLTAuMDMsMC0wLjA1Yy0wLjAyLDAtMC4wMywwLTAuMDUsMGMtMC4xNC0wLjIyLTAuMzYtMC4zMS0wLjU0LTAuNDljLTAuNDMtMC40MS0wLjktMC45My0xLjI1LTEuNDEgICAgIGMtMC45OS0xLjM0LTEuODYtMi44MS0yLjY2LTQuMzNjLTAuMzgtMC43My0wLjcxLTEuNTQtMS4wMy0yLjI4Yy0wLjEyLTAuMjktMC4xMi0wLjcyLTAuMzgtMC44N2MtMC4zNSwwLjU1LTAuODYsMC45OS0xLjEzLDEuNjMgICAgIGMtMC40NCwxLjAzLTAuNDksMi4yOC0wLjY1LDMuNThjLTAuMSwwLjAzLTAuMDYsMC4wMS0wLjExLDAuMDVjLTAuNzYtMC4xOC0xLjAyLTAuOTYtMS4zLTEuNjNjLTAuNzEtMS42OC0wLjg1LTQuNC0wLjIyLTYuMzQgICAgIGMwLjE2LTAuNSwwLjg5LTIuMDgsMC41OS0yLjU1Yy0wLjE0LTAuNDYtMC42LTAuNzMtMC44Ni0xLjA4Yy0wLjMyLTAuNDQtMC42NS0xLjAxLTAuODctMS41MmMtMC41OC0xLjMxLTAuODUtMi43OS0xLjQ2LTQuMTIgICAgIGMtMC4zLTAuNjMtMC43OS0xLjI3LTEuMi0xLjg0Yy0wLjQ0LTAuNjMtMC45NS0xLjA5LTEuMy0xLjg0Yy0wLjEyLTAuMjctMC4yOS0wLjctMC4xLTAuOThjMC4wNS0wLjE4LDAuMTQtMC4yNiwwLjMyLTAuMzIgICAgIGMwLjMyLTAuMjUsMS4xOSwwLjA4LDEuNTIsMC4yMWMwLjg3LDAuMzYsMS41OSwwLjcxLDIuMzMsMS4yYzAuMzUsMC4yMywwLjcxLDAuNjgsMS4xNCwwLjgxYzAuMTYsMCwwLjMyLDAsMC40OCwwICAgICBjMC43NywwLjE3LDEuNjIsMC4wNSwyLjM0LDAuMjdjMS4yNiwwLjM4LDIuMzgsMC45OCwzLjQxLDEuNjNjMy4xMiwxLjk3LDUuNjgsNC43OCw3LjQzLDguMTNjMC4yOCwwLjU0LDAuNCwxLjA1LDAuNjUsMS42MiAgICAgYzAuNSwxLjE2LDEuMTMsMi4zNCwxLjYyLDMuNDdjMC41LDEuMTMsMC45OCwyLjI2LDEuNjgsMy4yYzAuMzcsMC40OSwxLjgsMC43NiwyLjQ0LDEuMDNjMC40NiwwLjE5LDEuMiwwLjM5LDEuNjMsMC42NSAgICAgYzAuODIsMC40OSwxLjYxLDEuMDgsMi4zOCwxLjYzQzMxLjQzLDUxLjI0LDMyLjYxLDUxLjgzLDMyLjY3LDUyLjMyeiIvPiYjeGE7CQk8L2c+JiN4YTsJCTxnIGlkPSJzaGFwZTM2NDAtOSIgdHJhbnNmb3JtPSJ0cmFuc2xhdGUoMTguMDU0MiwtMzMuMzU2NSkiPiYjeGE7CQkJPHRpdGxlIGlkPSJ0aXRsZTEwMjA5NiI+U2hlZXQuMzY0MDwvdGl0bGU+JiN4YTsJCQk8ZyBpZD0ic2hhZG93MzY0MC0xMCIgdHJhbnNmb3JtPSJ0cmFuc2xhdGUoMC4zNDU2LDEuOTcyOCkiPiYjeGE7CQkJCTxnIGlkPSJwYXRoMTAyMDk4IiBpbmtzY2FwZTpjb25uZWN0b3ItY3VydmF0dXJlPSIwIiBzdHlsZT0iZmlsdGVyOnVybCgjZmlsdGVyXzIpOyI+JiN4YTsJCQkJCTxwYXRoIHN0eWxlPSJvcGFjaXR5OjAuMjI7ZmlsbDojNUI5QkQ1OyIgZD0iTTAuOTgsNTcuOEMwLjU4LDU3Ljc5LDAuMyw1Ny44NCwwLDU3LjljMCwwLjAyLDAsMC4wNCwwLDAuMDYgICAgICAgYzAuMDIsMCwwLjA0LDAsMC4wNSwwYzAuMTksMC4zOSwwLjUzLDAuNjQsMC43NiwwLjk3YzAuMTgsMC4zOCwwLjM2LDAuNzYsMC41NSwxLjE0YzAuMDEtMC4wMiwwLjAzLTAuMDMsMC4wNS0wLjA1ICAgICAgIGMwLjMzLTAuMjQsMC40OS0wLjYyLDAuNDktMS4xOWMtMC4xNC0wLjE1LTAuMTYtMC4zMi0wLjI3LTAuNDlDMS40Nyw1OC4xMSwxLjE3LDU3Ljk4LDAuOTgsNTcuOHoiLz4mI3hhOwkJCQk8L2c+JiN4YTsJCQk8L2c+JiN4YTsJCQk8cGF0aCBpZD0icGF0aDEwMjEwMSIgaW5rc2NhcGU6Y29ubmVjdG9yLWN1cnZhdHVyZT0iMCIgc3R5bGU9ImZpbGw6I0ZGRkZGRjsiIGQ9Ik0wLjk4LDU3LjhDMC41OCw1Ny43OSwwLjMsNTcuODQsMCw1Ny45ICAgICBjMCwwLjAyLDAsMC4wNCwwLDAuMDZjMC4wMiwwLDAuMDQsMCwwLjA1LDBjMC4xOSwwLjM5LDAuNTMsMC42NCwwLjc2LDAuOTdjMC4xOCwwLjM4LDAuMzYsMC43NiwwLjU1LDEuMTQgICAgIGMwLjAxLTAuMDIsMC4wMy0wLjAzLDAuMDUtMC4wNWMwLjMzLTAuMjQsMC40OS0wLjYyLDAuNDktMS4xOWMtMC4xNC0wLjE1LTAuMTYtMC4zMi0wLjI3LTAuNDlDMS40Nyw1OC4xMSwxLjE3LDU3Ljk4LDAuOTgsNTcuOHogICAgICIvPiYjeGE7CQk8L2c+JiN4YTsJPC9nPiYjeGE7PC9nPiYjeGE7PC9zdmc+;fontSize=10;" vertex="1" parent="fD2b__GBOGLgcAUjD9c7-31">
          <mxGeometry x="30.060000000000002" y="4" width="19.88" height="22.5" as="geometry" />
        </mxCell>
        <mxCell id="fD2b__GBOGLgcAUjD9c7-78" value="" style="endArrow=classic;html=1;rounded=0;exitX=0.5;exitY=1;exitDx=0;exitDy=0;entryX=0.5;entryY=0;entryDx=0;entryDy=0;" edge="1" parent="fD2b__GBOGLgcAUjD9c7-7" source="fD2b__GBOGLgcAUjD9c7-56" target="fD2b__GBOGLgcAUjD9c7-31">
          <mxGeometry width="50" height="50" relative="1" as="geometry">
            <mxPoint x="220" y="250" as="sourcePoint" />
            <mxPoint x="270" y="200" as="targetPoint" />
          </mxGeometry>
        </mxCell>
        <mxCell id="fD2b__GBOGLgcAUjD9c7-79" value="" style="endArrow=classic;html=1;rounded=0;exitX=0.5;exitY=1;exitDx=0;exitDy=0;entryX=0.5;entryY=0;entryDx=0;entryDy=0;" edge="1" parent="fD2b__GBOGLgcAUjD9c7-7" source="fD2b__GBOGLgcAUjD9c7-57" target="fD2b__GBOGLgcAUjD9c7-31">
          <mxGeometry width="50" height="50" relative="1" as="geometry">
            <mxPoint x="220" y="250" as="sourcePoint" />
            <mxPoint x="150" y="220" as="targetPoint" />
          </mxGeometry>
        </mxCell>
        <mxCell id="fD2b__GBOGLgcAUjD9c7-46" value="" style="outlineConnect=0;dashed=0;verticalLabelPosition=bottom;verticalAlign=top;align=center;html=1;shape=mxgraph.aws3.cloud_2;fillColor=#F58534;gradientColor=none;aspect=fixed;" vertex="1" parent="1">
          <mxGeometry x="525" y="210" width="25" height="25" as="geometry" />
        </mxCell>
        <mxCell id="fD2b__GBOGLgcAUjD9c7-52" value="" style="swimlane;startSize=0;" vertex="1" parent="1">
          <mxGeometry x="807" y="585" width="90" height="69" as="geometry">
            <mxRectangle x="700" y="430" width="50" height="40" as="alternateBounds" />
          </mxGeometry>
        </mxCell>
        <mxCell id="fD2b__GBOGLgcAUjD9c7-51" value="" style="sketch=0;points=[[0,0,0],[0.25,0,0],[0.5,0,0],[0.75,0,0],[1,0,0],[0,1,0],[0.25,1,0],[0.5,1,0],[0.75,1,0],[1,1,0],[0,0.25,0],[0,0.5,0],[0,0.75,0],[1,0.25,0],[1,0.5,0],[1,0.75,0]];outlineConnect=0;fontColor=#232F3E;fillColor=#7AA116;strokeColor=#ffffff;dashed=0;verticalLabelPosition=bottom;verticalAlign=top;align=center;html=1;fontSize=12;fontStyle=0;aspect=fixed;shape=mxgraph.aws4.resourceIcon;resIcon=mxgraph.aws4.s3;" vertex="1" parent="fD2b__GBOGLgcAUjD9c7-52">
          <mxGeometry width="25" height="25" as="geometry" />
        </mxCell>
        <mxCell id="fD2b__GBOGLgcAUjD9c7-55" value="&lt;font style=&quot;font-size: 9px; line-height: 50%;&quot;&gt;S3 Bucket&lt;/font&gt;" style="sketch=0;outlineConnect=0;fontColor=#232F3E;gradientColor=none;fillColor=#7AA116;strokeColor=none;dashed=0;verticalLabelPosition=bottom;verticalAlign=top;align=center;html=1;fontSize=12;fontStyle=0;aspect=fixed;pointerEvents=1;shape=mxgraph.aws4.bucket;" vertex="1" parent="fD2b__GBOGLgcAUjD9c7-52">
          <mxGeometry x="30" y="13.899999999999999" width="30" height="31.2" as="geometry" />
        </mxCell>
        <mxCell id="fD2b__GBOGLgcAUjD9c7-68" value="F1 공식 사이트" style="image;aspect=fixed;html=1;points=[];align=center;fontSize=12;image=img/lib/azure2/identity/Entra_Internet_Access.svg;" vertex="1" parent="1">
          <mxGeometry x="414" y="420.18" width="35" height="35" as="geometry" />
        </mxCell>
        <mxCell id="fD2b__GBOGLgcAUjD9c7-70" value="" style="endArrow=classic;startArrow=classic;html=1;rounded=0;exitX=0.924;exitY=0.517;exitDx=0;exitDy=0;exitPerimeter=0;entryX=0;entryY=0.5;entryDx=0;entryDy=0;" edge="1" parent="1" source="fD2b__GBOGLgcAUjD9c7-68" target="fD2b__GBOGLgcAUjD9c7-56">
          <mxGeometry width="50" height="50" relative="1" as="geometry">
            <mxPoint x="472.7950000000001" y="436.65500000000003" as="sourcePoint" />
            <mxPoint x="605" y="430" as="targetPoint" />
            <Array as="points" />
          </mxGeometry>
        </mxCell>
        <mxCell id="fD2b__GBOGLgcAUjD9c7-80" style="edgeStyle=orthogonalEdgeStyle;rounded=0;orthogonalLoop=1;jettySize=auto;html=1;" edge="1" parent="1" source="fD2b__GBOGLgcAUjD9c7-58" target="fD2b__GBOGLgcAUjD9c7-52">
          <mxGeometry relative="1" as="geometry" />
        </mxCell>
        <mxCell id="fD2b__GBOGLgcAUjD9c7-81" style="edgeStyle=orthogonalEdgeStyle;rounded=0;orthogonalLoop=1;jettySize=auto;html=1;entryX=1.011;entryY=0.68;entryDx=0;entryDy=0;entryPerimeter=0;exitX=0.5;exitY=1;exitDx=0;exitDy=0;" edge="1" parent="1" source="fD2b__GBOGLgcAUjD9c7-44" target="fD2b__GBOGLgcAUjD9c7-52">
          <mxGeometry relative="1" as="geometry" />
        </mxCell>
        <mxCell id="fD2b__GBOGLgcAUjD9c7-87" value="" style="group" vertex="1" connectable="0" parent="1">
          <mxGeometry x="380" y="500" width="110" height="130" as="geometry" />
        </mxCell>
        <mxCell id="fD2b__GBOGLgcAUjD9c7-85" value="" style="rounded=0;whiteSpace=wrap;html=1;fillColor=none;" vertex="1" parent="fD2b__GBOGLgcAUjD9c7-87">
          <mxGeometry width="110" height="130" as="geometry" />
        </mxCell>
        <mxCell id="fD2b__GBOGLgcAUjD9c7-82" value="GPT API" style="shape=image;verticalLabelPosition=bottom;labelBackgroundColor=default;verticalAlign=top;aspect=fixed;imageAspect=0;image=data:image/png,iVBORw0KGgoAAAANSUhEUgAAAOEAAADhCAMAAAAJbSJIAAAAflBMVEX///8AAADe3t6EhITOzs4kJCRpaWlERETLy8u/v7/V1dX19fXw8PD7+/v39/d1dXWenp5jY2Pl5eW2trbd3d3FxcWtra2RkZFaWlrr6+suLi6YmJiLi4s9PT2ampp+fn5RUVGmpqYSEhIdHR0zMzNeXl5LS0s4ODgeHh4ODg7/7MKRAAAQJElEQVR4nNVd2ULiQBAUQW4McgrCQoB19f9/cAVBku6unp4jovWqCVOZo6uPmbm7qxyDx16v9zio/oe+Hb3GbPX38PBe+8T+8Fofthe3blUqjGbZQ03G9k/j1q2LRru+B+wuaI5/8aC9rzvYXUi2b93SMHRaNn5H7F76t26uN3LX6KTY/K6FZ+ZJ74Ts9/TjdBlC8AMvt265DYttIL8P7H7DmpOH8zsiu3X7Xei/xhH86MburTmoaMTyOyK/NQsFwxQEa7WnW/OAyNIQrNXWj7emIsOlYbbZKp/N8pfVprl2/OvuJ5rGx4NG7k+DdMtiOle/yM9TOANs5ZtTMOh6nSamOPre9jsBCS5z3TmawS9zHKiPi+k4X202WZbVh+PO5IaDF4y49dT9aAOY0IfhE2e/a21mN+ndZ7GNB6MG6/rKhObsu6ep7OmO7S8Ye1Ks1Vqz77QoYvueej6vGChrDkL2bfpuIf28Rwd+ouNPsfavUwUfjn/8px8CVoO+SwZI2Ht/yQAIk/A15D39MNH3YFiu4zDhPxqknFdB/I54rthKcpsVQtB/MS2iUn+LO0x//V/SDZmCRayrs4+P/Me839EPsBQMla04G/pLe+8Y/UsCfh/YVEFPMoW+ZqLzLrQ2CK1K8h9sgfccLPe2yP/7fm/4ELsKJiPrwqbX449OC/i8GncX/ZMCHfRH0zzTY82T5AyZsfcaKLmDXX4vPNTrZEp3Jk9H0h/wkYltlDY9oTVWhHsD931iMU7NdMv+6EgN/WfOGQVTW2ndY7pMmD/gQE2dbkwqbLyTn04p4Ubk3Wa1pubensy9IL9mGUZGxJy8W1oYBDS0sOPSZ62Q1+JEEfPJkIVmtqYHF09aB/pKaNFtHvqS4ehupAXb5KepPtLGP/Qius2RC+piLi9jO8OzY02ZbI2jnEAYqZamQHTluOEHVu5nNR/pLTjkIiS8wtOsU0VGuoZGT5VoMXNHWFMDx6nupzoe/qM9m3lFHhk4xX3Iaxx+qj4wOlp1zTpaavGBOvd/idoHNd1tulej9im8c66RfD2phRATLQMrkUcWByjCvUCZwBZAz8XGUOIEn821p56SOa1sGnjZHkOkCLkVqo90SOjOsbCthzPet9RwyXGg/l/tmVkicp+gKtk+E+8N/EBFWlf9JqkDR7Qj6sbn1Fbq/UG9qyJe0ydyWUttj01tBGtSthcLhDdbNqU9XA098i50uTCZIUyQeNjCmiGkbM6wSbTO5yK1M09XOmYsQRU4RLMJ+ZPAMEfPmiTa5CqBzV4xVb7utQZNpPpHG9tOhrIr2DLFNIlMN5pN2l6nP82zLp99cIr1uBmK0SabRAvVmSSA5xym4kpxOPdBEENbO6dvod+GBjUcMQPRn/tqYwBD21iDkVTL+CaP6AuxlJXdX8WeN0ObRFNluruYn/SKmnHrC7/wXPi7L0Pbmp8r/I5w2RnSqn/a/wrxitIX8WNoC9PqqYwT3h0KgPy7ogwFf6ksPf0YWozvQpXpX9iqeo9MYhw9GPA3E+OSmuHAXm2ihVVJKALPDT7fqS+emKFftQk25aRZMILAxQwLCiRl2HUGSQgeUF0nyUpDN5jNiC37l4QMg6pNnoFxLf8XWuGYV7Dja1I6hqjaZNnWA3zyCCRCDPwm60JBTaRiCIsuT3NN715JyBGbL5sLFreQvlYahrDaJLusl10t2/iPWwOipOSxTAXpg/RPKRjCVMZrMRSoLrNPVMiRMS8azx59iygoEzDMQat3JA01YGG0IubqS0WGdHrLWeNohm2UyhDCdnriuPRBiBgTGdKonKySIhlCH6kp+w8NLWhb9KsMDKmpAAmAKIaw2kRJQ6mZhWvsJ3czpPoQCN0YhrCxqh+vF+Fc/CoyZ6W1lIQQUMVvOMMGkmjOGIdaSHWOwRJFLcT1qDFEAjCUIVw0TDtQppoHeSp1IK8X3pHXnP8SwxAv/EtbqYK6EXczuCt/AinbTb4BHDlBDHUfaW0KpepFqWSKb4UXkCfgjwYwnDgLgjNTyZD7PV8QQlHEM8S1N94M9WqTC2xlXx1Ql2h5HZH6OBvux/DVvJHduMlHFXJXCOsksYbYQHnG2jQPgUAPNV1gc5uF9ZnUNOAfC8xbmFA3pYcNG20kF5/IP/z+BAy3Izh0bfFjZ/hKmGQkiqjs8IlmuD9OuB4aa0tbnZQjBClMMhKqUspuYhledOQEzVDm24pYwFrJIwRVSoyFohTjGBbzwHCs2cqlFL9KCk6Q01eU6RDDkPhIONxtm47QVZE6iFQmKFIxgiGfHTBlIYSaBCC/ShoExOBXwXAlmgKYdgI+PwHwq4QxQBgq+iKQ4V+YB84BReMBYPJs5s2qmOFSO0YCOg009gYeFx1PJmqqHaUuWQ2dhldTKaW04rAQGFlplLiJP0OLawSdBlOZ0b2w2YGup6TSKaG1sFUKKbuCLX5VT7CNZDUmmkaxuX4M3+27KWBN6t5yFgyvKCcuLqnASKbaPHYmKtWCKGeoUyTjtPxHpVqjOobaISeyMS2BxyrLLiAxvD+NoUHIDdhi9Vz6OzEqqTzgdAxrB5eQ40UIpSdI/CNVFCMhQ7eQYxO5dJgMeT0uDLshQ2f8n9XKFDuRdPGblaEwdCpk6NoXT2V8aSaSv0G5RGvkeCcmYdiBtZiakGPV28X1JDCqL3gNSRjeg3rami7kqIgvzra8/CcY9BaK3MnXSMRQ2TaHazFZ7WjBjtLsGqp7FWr7yNKbjCFOCDxAkUMDI8WWkQICWBkmBrmKEZh0DD/8KhT9RRRpFf5WYY+MD9gwcjVWKRnCiBwszaU0CpOWthz6F7n8m1/TMS1DlIxBZoMenVMcptTHggoCBTrPlcqpGcoJcussKv4fTSZgXaNXbSVnKBa5QfeHCodiu+lLFNsKV4DNoAqGQixGLLo7gfxjMcZAsyXqCWzomJjarBKGLPyDGRIaxSgIWyX1EIklHZuQIWk5ZkiWiVK8gmlBPZhnSMfegiGZbaV/ZIoMv+b8gKsS/RYM78j8KclY1onO0x4d6dibMCQrfelVfP+2O3mgpmNvwjAvt6GsDfiOEncqT9vVcxOGxMErMxA8B8MOR3zGVXC8NIahHt4W5pUlIQvTsX/MBMtFJDEMyWJKw9uCc2Ta44oyv65tdWdQyxPDkCymtF6dabea8TANWOZqqXVi7nwUw7IPsaV/ZoGYmvWY7jYScq6jMITcWhTDspXm4lNUY7bqCBhZ0fSf2PlRDMtZGsFZFoeb7cgOePo43O8M6imqZcgCq5+wbaqHGWt5zzpahKMYlpsguUh9+Yi8d9vBCFDI8U+E65qiGJbNs3QUPjg2wnz+GPSryp9I2/MTxbA8BiVtrWQQbAeUwLa3nBGmBAxJB0kJ7QTnAEK/6vKJHHmY6lTbCfqP720qBQq5o+Vwlt0nVN6CpdLOeTrBVpENSw8fpupZddEM8/KrhA4x7JG3Hdg1UstcK2NIJK7QHaZSdNsGibbHvZ2lzxHDkLxXKMmybU0xnuKUG/m1RqUAQwRDMskkSWNsk1JRWYR+QOQFHRIHi2BIljghdC+dUANgKOS5c53DfsRJ7aRiSCa/4DOQmu9MtY42ITdV73A4j4VEDKmDK7yJ2OKZHhV1FvJ8Ine/IBFDaofdjTlWBqr2o2kRctBzvA6iRAxJd0iajRjq02/p5+Q4g6rwCxV3OqVhSOP2UiZVPmFCtd57tZAHSrSyNkrDkOZSpLUQ7YpWz6vCFdkwnUr1bRKGpnsb8DkouUIRlXPDbWpMFCVhSN020UtQTnrpqdZbEHJwl7ngZ6ZgyBIv4n+pe/fVI7rpuIOm/lUqb0/BkM5CObZEVhpakqG6rsW1A5/2IK9LCRiyWK9cT0Iaxp0P9Tqxr/UfesDItsQzZHklUJFPCAiaRU9vn2w4TEc1oVyPZ8iaBTx1Yp7FIaXuNj50+ygSpe26i2bIRg3Kt5DBDCJPhgPpOdTcQCxDXnCHgi3kP+HuEu9d6Q5fK5Ihv84Ptty8r1vfbUzx7ApfxTHs8fwV9ghIbEX58oaDRy8Ncm9eimIo3ICuRJJI5YHattxG0BK3imHY45/6oPwUMRd6zsl9l6H1cJbSGu7HcCHEEDTPnIQxXIVRI8cN6baNoGRSezGUdr2p/UJTT84It3anqG0zL6s78mEopXgcN9sSPWLYVA2FXOiGbDvDkSg+HFukyEdxDdMjZCFn21QvRbrMDOVv64pWU3Vgim7zdtryqfK3MTIE/qd76SYbcp6dD5xA7o+zhVLB+DYx7IAwp+ESZCrIrDcMFZprO6AE7lIX9EhZzS8HMyQ3LFc90mCAsROv1Sa2ywJwnlSqxLdqRNsN6NS7s9+Q1h/PV2PTAqNpBckJMTI0XtZJfSOpYiMS2jFnYtGmLRVpvZWMxQNSX9KuHvUo3yVuImi/zo3phKT3UOn5NrkmFRb5FOFxHRgrwjQvNm4M1KgrqtixXLHldaEi8+AT3EX7CTX+gQ8KcYdNXv2upOWDIs2Fd+rRx1rlnDNZ7nunsCA2EtxZqB9frXo8jnBCK+BCN+YS7f0vJi5Dz0LqR9HxQFMJQWs9D99HXu6tZpJdxwmqDwfcr3oCFxHLiF5UrwJwL/PK8K4H37krlJ3sQ+einggwHOsJnx3GzB1pZIStqGoyx3KEEBik2+A7r8+QhkbALaJaHMcSSb2TK9HWuUnhq+Dn9hw/ueew0GtJbVaM5SSWm07cjdcXyNet+izN+lHQ2hVORdBZnIbdCfL4F7PUItSjoG2R1DtuDMNviRcA1ohnE8dc42espj6CdqFp6pqBRtnW9TM9dQH1UfLUrcDnqYcBTqT3F0ULtlUFatzVcAYV68ncnAuUtWK5kuzjaOzYx27cmXJGTh9PuM6coTsurSyfdheLfr/XXywa45U7YuQnk9nWAUM41BvqLWG+8JXJLC+R/uLrO99L/DQYr/i9gg2gpKbiinvrvQs6bNeuFsGDF/FSTcYgfHfIFf6alic/7fFCb1hvqoCwXX1QghBgq4DZF0a+N06WYNssVYZw6lasu+RAUCHUCcYrSMoQejBh2FaGfn8WxLt3pO8Iqc4zvbFnWJg2+VCELA9SAULFY/SMvvE2mxJefT9+T0ptVKFmRAzygDXH7/OLlcjqddupMVqhwzchLAGnM/qy8a3K1iNMhs49aQQb41AF08AcWEiJbt7kmZa37Rypg7mhG5BJ+p5VRsKgP+nM5qt6vb56ycedyamjoFTPdGU6mqPIY0AUs1rkiOKHekP+b3+Gy8eDLGq1UCjWds2cslxM59oC/eN68AiXT/m+bWbz4Ww2G9abrs3Vt5uDKqTTisLgFdb5TizMZeAqDt9tB32gHFZnRkVRi1QI97cuSF2rlBxxbnOt9ZNH6AUx0Y8faAUlaEdHqsiSlppViob7Yk2O7U2UdjA6vhyff6wNhOj6jNW6NXf6s7B4sSmA9Y83EAruX1yVvus/lSRevhOjcYZYruud32D+LBh0Z/Pm+jpm39bN+ez3LS1uDHqfqNzs/QfF7t13H2zElgAAAABJRU5ErkJggg==;" vertex="1" parent="fD2b__GBOGLgcAUjD9c7-87">
          <mxGeometry x="37.5" y="60" width="35" height="35" as="geometry" />
        </mxCell>
        <mxCell id="fD2b__GBOGLgcAUjD9c7-83" value="클로드 API" style="shape=image;verticalLabelPosition=bottom;labelBackgroundColor=default;verticalAlign=top;aspect=fixed;imageAspect=0;image=data:image/png,iVBORw0KGgoAAAANSUhEUgAACgAAAAImCAYAAACfTtOUAAAABGdBTUEAALGPC/xhBQAAACBjSFJNAAB6JgAAgIQAAPoAAACA6AAAdTAAAOpgAAA6mAAAF3CculE8AAAABmJLR0QA/wD/AP+gvaeTAAAAB3RJTUUH6AsPDSwYO/VyowAAgABJREFUeNrs3Xl8XGXZ//HvdSZJl2TmTNKWQqFgoUkKRRbBfQPkQZFFENOkKO5WfRShAklAH40LkBZ8AP25oY8oCF2iiOKOijuoKIuWJikUFdkEm1mSJm0y5/r9kRba0pYuk2SWz/v16oulycw53/s+99xn5pr7NgFjoOeChdNVEb1epia5jpf0hKS1cq31wNZKvtYVra2YXLWmvuPGDIkBAAAAAAAAAAAAAAAAwO4xIkC+PNjWdOCwgjNNOlXScZIqdrET9kmjRYFyX6sgWCtFa6WKtfUPDv/DurpypAsAAAAAAAAAAAAAAAAAW6MAEHult/3sgyPPnWauJpleNgZ9aqOkf4nVAwEAAAAAAAAAAAAAAABgKxQAYo/1tC+4QG5XTvBhLK+aMuUdczq+PkSLAAAAAAAAAAAAAAAAACgnFABij3S3thxr5r+TVFUAh3NnEESn11/e9SQtAwAAAAAAAAAAAAAAAKBcUACI3dbdenrcbMpdkhoK6LAedI9Ombe0q4cWAgAAAAAAAAAAAAAAAFAOAiLAbrMpX1JhFf9J0iFmwe97Lmp5JQ0EAAAAAAAAAAAAAAAAoBxQAIjd0tvessikswv08OoU+G297QsW0lIAAAAAAAAAAAAAAAAASh1bAGOXrWlbOD+n6I8mTS3wQ3WZfbKxc3kHrYYddxLZmvaW97j7RW721cTkgc/N6rh1PckAAAAAAAAAAAAAAACgWFAAiF3yUMfbJ28cGvyDXEcUzUG7vvro1Cfef3zHL0doQWypt/3sg91zX5V0/Bb/+ymZfX6DgmuO6Lypj5QAAAAAAAAAAAAAAABQ6CgAxC7paW3+ikzvLrbjdumnsSkVTfUdN2ZoRXhHR7BmqPvd7v6/kqp38GNZN78uCqo6D7vsm4+RGgAAAAAAAAAAAAAAAAoVBYB4Tj1tzS2SlhVxN/9t45Llr6Qly1tva/OhbvqapJfsys+7tF7mX62IBVfOvXT5wyQIAAAAAAAAAAAAAACAQkMBIHZq01apf5EUFvN5uAWvmde57Be0aPm5veO4iv2G9r3A3DskTd6DhxiWabksuKzx8mXdJAoAAAAAAAAAAAAAAIBCQQEgduiuRYsq47XpX2sXV0wr6I5u/r2GzpVvoFXLy/2XNB8ey+lrkl6Yh4eLZPqhR/aJeUuX30W6AAAAAAAAAAAAAAAAmGgUAGKHetqaPyPpwyVyOlHMosa5nV0P0LKlb1Px6sWSPiKpKs8P73KtbHgoerN1deVIGwAAAAAAAAAAAAAAABMlIAJsT09b88mSFpdSXx+RnUvLlr7uCxcekajN3CHpE8p/8Z8kmUzNvXOslbQBAAAAAAAAAAAAAAAwkVgBEM/S85Gm/TUS3CNpeomdWrZC0exDlnSlaeXSc9eiRZU1dZkPm/snNTaFf9sakelljZ0r/kT6AAAAAAAAAAAAAAAAmAisAIiteEdHoJHgGyq94j9Jio9Y7J20cunpvajpqHht+g/m3qnxKf6TpAq5vvHw4qYptAAAAAAAAAAAAAAAAAAmAgWA2ErvUPfHJL2mZE/Q/UPe1BSjpUvDQx1vn9zbuqDTg+AuSUdPwCEcOjDJOmkJAAAAAAAAAAAAAAAATAQKAPG0NRc1vVruHy3x03xe7yGx02nt4ueSbRwc/LWbtUmasKJOczu3t3Xhf9EiAAAAAAAAAAAAAAAAGG8UAEKSdF/72bW5ILheE1hINV5cOo8WL3497QuPl/TCAjgUc4u+vvriM6fRKgAAAAAAAAAAAAAAABhPFABCLtkkz11n0oHlcL7m/uru1pZjafkiH7w89/4COpxZQVR1La0CAAAAAAAAAAAAAACA8UQBINTb1rxY0hvK6Zwt0Adp+eJ1/yVv2c9lhdZn39jdtuAttA4AAAAAAAAAAAAAAADGCwWAZW51e9Mxki4vuxN3X7jqoqZ96QHFKRaNvFdSZaEdl8n+3/0XnH0QLQQAAAAAAAAAAAAAAIDxQAFgGVvV0VQTeHCTpKoyPP2qiljsffSC4nN7x3EVcn93gR5eGKvM3eBNTTFaCgAAAAAAAAAAAAAAAGONAsAyVjkUfElSQ9kG4P7fD3W8fTI9objsP7TPGyTtX7j9Sq9cc3BsMS0FAAAAAAAAAAAAAACAsUYBYJnqvnDhEe56c5nHMGN4aKiF3lBc3K3gV250+ae7L1x4BK0FAAAAAAAAAAAAAACAsUQBYJmKxZQjBcndP+ySkURxeKC9aa6k1xTBoU6yWLSMFSYBAAAAAAAAAAAAAAAwligALFO53Mh6UpAkPb+7veXVxFAcIg8+oOIp2Dxsw+D6T9FqAAAAAAAAAAAAAAAAGCsUAJapqqoKCgA3XwTu55FC4Xt4cdMUl95aTMdssg93ty88gdYDAAAAAAAAAAAAAADAWKAAsExNrurPksLTTuttP/tgYihsA5NsoaS6ohtjPXoLrQcAAAAAAAAAAAAAAICxQAFgmZrVcet6k/pIQpIUk+fOJYbCZm7vL8rjlj1A6wEAAAAAAAAAAAAAAGAsUABYxlz6Jyk8ncW7HmxrCkmiMPVe3PJiSccWZd9y9dKCAAAAAAAAAAAAAAAAGAsUAJYxM/8HKTwtPuzBO4ihMLnr/UV77JbroQUBAAAAAAAAAAAAAAAwFigALGOR9HdSeIaZPugdHVwTBWbV4qY6uS8o1susZqPYAhgAAAAAAAAAAAAAAABjgmKnMmauv5HCVg7pGVx9GjEUlsqq2DslTSnOi0wPz76qa5BWBAAAAAAAAAAAAAAAwFigALCcud9LCFsz6TxSKKAuKpnL31PE11gvrQgAAAAAAAAAAAAAAICxQgFgGZs6rL9KypHEVo7vvajpKGIoDN1tC06S1FDEp0ABIAAAAAAAAAAAAAAAAMYMBYBlbNPWpGtIYmseBKwCWDADlL2vmI/fPKAAEAAAAAAAAAAAAAAAAGOGAsByZ/YHQniWhasuatqXGCbWAx9pmS3ptGI+hygwCgABAAAAAAAAAAAAAAAwZigALHPmfgcpPMukiiBYRAwTK8rpZEmx4h5gKQAEAAAAAAAAAAAAAADA2KEAsMzlFP2eFLbHP/BQx9snk8PEiVyzi/wUhuofHP4HLQkAAAAAAAAAAAAAAICxQgFgmZs3Zf4qSRmS2Jbts3FwcAE5TGALyPcr8lNYY11dOVoSAAAAAAAAAAAAAAAAY4UCwDJnHR2RTL8mie06nwgmkPv+RX1tyXtoRAAAAAAAAAAAAAAAAIwlCgAhc/2UFLbr6NXtLccRwwT1S9kBxXz8kYJuWhEAAAAAAAAAAAAAAABjiQJAKPKIAsAdXiB+ASlMDDfNKvIrixUAAQAAAAAAAAAAAAAAMKYoAITmLe3qkfQQSWyH65Q1FzcdRhDj6+HFTVMk1RXzOZgZBYAAAAAAAAAAAAAAAAAYUxQAYpTrNkLYLoui2PnEML6GKoJZxX4OweQKCgABAAAAAAAAAAAAAAAwpigAhCTJAmcb4B3yt666qGlfchjHxAPfv8jP4LH6jhsztCQAAAAAAAAAAAAAAADGEgWAkCRVDm38uaQRktiuSRWx2PuIYRyZirwA0LppRAAAAAAAAAAAAAAAAIw1CgAhSZpz9S0pd/sTSeyA+38/vLhpCkGMU9zSrOLuLsb2vwAAAAAAAAAAAAAAABhzFADiaRaIbYB3bMbgpNg5xDBOvNhXAHQKAAEAAAAAAAAAAAAAADDmKogAm0WunwbSx0li+9z9Au/o+Kp1dESkMdaC/SUv4sMP2AIYAAAAQNlKJqceHUXBqWZ6uRTE8vOoUZRO97+WdAEAAAAAmBBBIpE4Ngh0mrsa8/Wg7j6QyWTfQbwAsHcoAMTT5q3N/aH34GCdpDrS2K6GBwbvP0XSrUQx5op6C2CNjLACIAAAAIByMjkMq19hZqe5B2e6+2yzzX+Vry93WR8xAwAAAAAwfg44QFOy2eqXj97v21mS7+95XsPFzB4maQDYexQA4pkX166uXHdb8+0mnUUa25ez4AJRADgOvJi3AB5q/If+SRsCAAAAKGXxeHx6LGavd9epkr9WUmL0Q4AxW809TeoAAAAAAIytmpqafSoqgte569Rs1k+WVONjunGbc78PAHlAASC2Eki3OQWAO2Tur+5pbXpR49KuP5LGGE3xJOuV9iviU1hjXV05WhIAAABAqamrq5mfy9mpZjrNXS9192Acn54PBAAAAAAAGPv7/Ze5u43Xc5txvw8A+UABILaSM/tJMLYl/CUgdr6ks8lhbPResHCaFE0u1uM3qZtWBAAAAFAittjaV2fkcnagJE3Q2wZ8IAAAAAAAQB5su7VvLqf9J+p+3537fQDIh4AIsKVDO5f/Xe4/JomdMG96sK3pQIIYG1HFyH5FffymXloRAAAAQLGKx+PTk8nEW8MwsTIM409IwW3u9iHJJvQ+mA8EAAAAAADYczU1Nftsvt/PZuP/fuZ+f7T4bwLv+FO0DgDsPVYAxLNEQfD+wP1vkqpJY/vXzYgHH5J0IVHkX8wr9nWLivcE3FkBEAAAAEBRCcPwYDM/TfKmCdjad5cEAQWAAAAAAADsjonc2nc37vi53weAfIymRIBtHdq5/O+SXUYSO2Fa9GBbU0gQ+Rcp2qeou4ZZD60IAAAAoMBV1NbGXxGG8c4wjPdI0YPufrW7Xq6Cfa/I+EAAAAAAAICdOOAATQnD6hOTyZprwjD+cC5nf5PUuel+3wrzqJ37fQDIA1YAxHY9OuXxpbMGZy6QdCRpbFd8xOzdkj5DFHk3o5gPPphcQQEgAAAAgMK7iY3HpweBH29mp7nrDVGkRDEdvzsfCAAAAAAAsK2ampoZFRXBye46NZv1kyXVuBfVKXC/DwB5QAEgtuv4jl+O9LQ1fVAKfq2C/TbAxHK3D93ecdw1x3f8coQ08sfMZxRvl/PH6jtuzNCK4291e8vzYtJJY9e0eqRhyfIfkDQAAACKyeatfd11quTHSVZRZB8CbIkPBAAAAAAAULFs7bur+MIfAOQDBYDYocYlXb/taW3+P5neTRrPZtKB+w/t0yRpGWnkc45n+xRvyal104Djb3V7y3GBRytcNpbbR0c9bU2vblzS9VsSBwAAQAGrqK2NvySKdKqkM6SosYgL/ra9WeQDAQAAAABAuZochtWvGF3V396Yy+kASSqFe373gPt9AMgDCgCxUyPDUVtFlZ2usS2sKeIZSXCBKADMKwt8n2L9koq7sf3veOYtWU97S6u5XypZbIyfLpCCrz68uOno2Vd1DZI+AGCszJo1a+rQUF/dxo2xRCwWmyLlQvdgsllUbWZxd58kWUKSzKza3au2mU3FJa8Y/Xvf6G4DW/2t2QZ3X7/NHGbAzDdIngoCG4qiaNA9lgmC3Ab3iuzIyMj6ioqKDel0uo8WAgrP6FY/dsroKn86KYoUL8n5vwestg4AAAAAKBvTp0+dNTwcO9Vdp5r5aySbWjpf8ntGLOZZWhsA9h4FgNip+Vd1retpbblQ5teTxrO5/Jg1FzW9uv6Krl+RRp4y9WIuNnUKAMdJd+vp8TU2+Wvm/qZxfNrGgSr7pKSLaAEAwG6YVFtbO3NkZOSAWMz3jaJgfzPfV9K+kuo2/3FXnZnqBgayk6UKxWKSFEkymbkk2/SNXtti3uTbnaFuMa/azlzr2b8z+vijjx1FkhTIzOUeSIpUUTH6zzCMS9KgpHU7/+PrJK0LAv17ZMQey2az/6EbAPlVW1tzeBTZaZJOk/RidwVlcNqsCAAAAAAAKGUWhuHR7rnTzOzU4WEdI8nMJMlK9qTdWfEfAPKBAkA8p8aly2/oaWt+q6QTSePZckFwgSQKAPOneAsAg4AtgMfB6oubGyzSzS7NH/c7L9mHe9sW3NqwZOWvaQkAgCTNnDmzeuPGgTmSzXG3g6MomiPZHDM9T9J+kmZE0YiCYLQg75liu21eY4rnPbwpkvbf9GeHr5iSFEVSEEhhGB+S9JiZHnW3R9yjx8zsEXd7LAiiR3I5eyybzf5d0hA9CtihqjAMX22WO83dTo0izSm3APhAAAAAAABQag44QFMymcQJZn6apFOlaH8zK7MUuN8HgHygABC7JGbR+3Me/FXSZNLYmkmn9rY2H9qwdMVq0siL4i0AHBlhBcAxtqZtwWlRpBskhRN0CIHLrlvV0XTk/I6ufloEAMpGEIbhnCiKDg0CHSppnqTDJB08NLR+n2e+gesqvzfodslkSXPcNWfLjEZXGbTNRYIu6VF3rZW0VvK1UrDW3ddGUbR2YGDgcWJEudm0te/rN23t+1opim9vZc9yUVHBBwIAAAAAgOI3derU/SorR7f2zWb9RDOfWt6JVHK/DwB5QAEgdsnczq4HetqaL5f0CdJ4FnPpfEnvJYq98/DipinrpZoiPfyhxn/on7Ti2HDJetpbWiP3y6QJ397s4MrB4NMave4BACWmurp631gsdpSZHy3ZEZLmST5PiiYHAfmM5Zxa0v5m2l/SK0f/02UmBUGgMKxZL9laSd1mdr97tCoW06p16/p7JQ0TH0pFXV3N/FzOTjPTae56sbtipLJpkLAcHwgAAAAAAIryljaZnHpUFAWnmdlpUnls7bsbUkQAAHl4sSEC7KpVHU1VFYPBPZIOJY1n2VAZCw46+LJlTxDFnrv/grMPilXk/l6kh//XxiUrjqAV82/1xWdOs6jqJpNOKqDDioIoOqH+ii62/waAIhaG4Rwpd4xkR0s6ykxHu2s/kikqw2Za426r3KNVZro/l9Oq/v7+XkkjxIMiUBWG1a8ys9Pc7TSp/Lb23VWxWGW4bt26DEkAAAAAAIrA5EQicYKZTpP8VEkHEMl2eTqdrZAUEQUA7B1WAMQum9/RtbG3bcH7XPZLUTy6rUnDI7n3iRUS90qsMrePvDiP3aRuWjD/ei9qOsqj4GYV3gehQRQE13W3nn7kvKXfy9JSAFAUKsMwPMLMXyH5Me56lRQdtOW01p2QirFd3XWY5IeZWZMkxWJSGMaHzbRG0p8l+7OZ/7mvL/tHSRuJDBMtkUjUmUWvGS360+mSQsaf55Rbt24d824AAAAAQMGKx+PTYzF7vbtOlfx1ksdJ5TllRfEfAOQFBYDYLQ1LVv66p635G5LeThrbMPvAw4ubls6+qmuQMPYwQrd9vEgrACNZDy2YX92tzW+OTNeaNLVAD3GOBVM6JX2A1gKAwpNIJOqCwF8dRf5qM3uppKOlqJIim7KxqTBQh0l+jrsUhvEBd90t+V1S8Gd3vyubzfZIoldgzNXU1BwWi9lp7jrVzF8qWYzxaLdkuVYBAAAAAIUmmaw+KorsVDM7XdIx7h6Qyu6wNBkAQH5QAIjdNxJcpIroVEnTCWMrM9ZX2VskfYUo9ox7NF1WrItLRhQA5lFPa/OVMl1Q+J1W7+9pbbm5cenyn9NqADCxZs6cWT001P9SKThR0omSH+2uwIyFq/G0ajO9QrJXSC4zKQzjGcn+KPnPgkC/Y5VA5FGstjb+0ijSqZLeIGmeJDEk7bEUEQAAAAAACsDkMKx+xaZV/c9wtwO5198bTgEgAOQJL0fYI73tLW939+tI4ll6GqYceph1dLBU8R7oblvQarIlRTqavqixc8WfaMU8XERtzZdLai+itv9HMLniiPqOGzO0HgCMq1g8Hn9xENjrJT9R0rGSYsSCvZSV/A53/SYI9OtUqv+PkoaIBbsiHo9PM7OTzXSa5K+VFJJK3tyXTmePJAYAAAAAwHirrq6eWVERnCrpVEn/JamaVPLDTL9LpbKvIAkA2HusAIg9Ut+5/Bu9bQvOkewE0thK45qB1a+X9H2i2CMzivXAg8kVrACYB92tzeermIr/JMl1UDSYu1LSIloQAMZWPB6fbmavNYtOkewkSdPYERL57maSnWSmkzZtG7xB0p2SfioFP0mn03dL4ss+eFpNTc2hz2ztq5dJTiHyWEy5XawIAAAAAAAYN8lk9VHudopkp2v0i8ds7cv9PgAUNAoAsUdM8tWBvT+IdK+kySSyhUAXiALAPexXtk+RHvqjrP6293pbm9/hpv8t0luU9/S0NX+nccmKH9GSAJBf8Xh8XhDojZJOk/QiyQMWMsc4miTp1aN/okvDMP6k5Le5Bz/O5XI/HRgYeIKIyk5lGNa80l2nmdlpkg6R2Np3zG+zAz4QAAAAAACMqcmJROK40VX9o1Pd7UAiGQ9sAQwA+UKlOvbYoZev6JW0lCS2maZIx/W0Nr2IJPYkPC/WAkBW/9tLve0LznLTV1TcFR1fva/97FpaEwD2XjJZfVQymfhkMhlfFQRaLelSSS/h/gUFYIZkZ5v59RUVwWNhmLg7DOOdyWTN8eILdiUrkUjUJRKJN4dhYvloEaj93MzO16biP4yLFBEAAAAAAPKpurp6ZjIZf2cYxm8Ow/hTZv4jyf9bovhv/AQUAAJAnvABBfbuJXl95rJoamKBpHmk8Qy34DxJbyaJ3c3N9inG6i93owBwL6xpW3Ba5LZMUrFvlzarynOfkfROWhUAdl8ikXihmb9J0lnuOoStfVEETPKjJB3lbm1hGP+PpO8Fgb7T15e9TdIQERWvTauPnibpVMlfXgJz1WK/3PhAAAAAAACw15LJ6iPdg1MknS7phe584XhisQIgAOQLL2jYK/Wf+9GGIIreJz6h3YpJCx5sa+LbIbudW7GuAOgUAO6h7tYFx0eylZIqS+Taf0dP64IzaFkA2DV1dVNmh2G8LQzj3Wb+R0mtYkUtFK9pkt4RRfpeGMbXJZPxW5PJxFtra2tDoikKsdra+CtGV3R8evXRpZJeJYr/Jv6Oy/lAAAAAAACwRyo23++HYbzHPbhHo7uNvFjUShSCFBEAQH7wooa9Vn9F169k+iZJbD2ZHJadSwy7y2YU50gadNN2u6+ntelFZvZdSZNLqxvrC6sWN9XRwgCwfYlEoi4Ma96XTMZ/m8tV/ENSp6RGkkGJmeKuU939G1E08kQyGf9+Mhl/ZzKZTBJNYQnD6hPDMLEsDONPRZF+I6nNXYeRTMHJEAEAAAAAYFclEjUtYRj/dhjG+zbf70tqIJnC4u5ZUgCA/KAAEHkR2cbFkp4iiWeYbNGDbU2s9rGLNmU1qSgPfmSEFQB30/2XNB8ui/1QUrwEr/79Kqpi19DKALD1fUcikXhdGMa/beaPSfZFd71ckhENysAkd53irv9zzz0WhvGuZDJ+uqQqoikEsfdI3iIpSRaFjBUAAQAAAAC7zsw+LemNkmpIo5AF3O8DQL5GVCJAPhx6+Xf+427tJLGVxIiCdxHDrnHTjCI99KHGmvn/oAV33ZqLmg+J5fynkk8r4R79FrYCBgBp+vSpszZt8fuAmf9Io2+6UfSEcjZZ0pvc9d0wjD+eTMavD8PqE0UxLLDz2bWzJRAAAAAAACWojwgAID8oAETeNC5d/jXJ/kgSW/LFdy1aVEkOz23EbGaRHvoa6+iIaMFd0/ORpv2jQLdJtl/Jn6zZtQ9ceM4+tDqAMhRLJuOnJ5PxW4eHY//U6Ba/c4gFeJZad50jBbeFYbw3kaj5eBiGhxALsD0BWwADAAAAAFBqd/tBxBbAAJCvMZUIkC8meeB+niQnjadTOSBemz6LHHYhqVxxrgBoUjett2t6Llg4XSPBbSqfIpAZuWDjZ2l5AOWirq4ukUwmzgvD+APu+q67TpUUIxlgl8w1sw4pWhOGidvCsKZJEl8kAjZx9xQpAAAAAABQWsycFQABIE8oAERe1S9dcadM3ySJLSYusgtJYVcmeEW6AqDrXlrvua3peHNCFdGPJB1aZgNAc3d7cxM9AEApSyQS9clkzTW53PCj7n61pOeRCrAXswf5iZKtDMP4P8Mw3plMJg8iFpS7ykpPkwIAAAAAAKWmivt9AMgTCgCRdyO5qFUS2/Ns4vJjetsWvIokdi5yK8qtUj3md9N6O/fw4qYpuaHc9yQdW47nb64vrL1k4Ux6AoBSG94SicTrwrDmx2be424fklRNLEBe7SupzT33YBjGv5NIJF7LPTzKV473GAAAAAAAKDFRxBbAAJAvfHiAvJt/Rdfjcu8kiS2YLiCE54jIvCi3AM5ZFQWAO3HXokWV66usy9xfXcYxTB/ORV+mNwAoEbFEIrEwDON3m/mPJHutJCMWYGyvO0lnmPmPwzDem0wmFk+fPj1OLCgvU1gRAAAAAACA0uLpdJov/AFAnlAAiDExMtU/Y9Iaktg0e3E7rbe1+VCS2KliLAB84rDLvvkYTbeDft/REcRr09dLdgpp6A297QsWEgOAIlaVTCbeGobxVWZ+k6QjiQSYEIe4+/8OD294JJmsuaaubsoBRIIykFu3bh0rAgAAAAAAUFqyknLEAAD5QQEgxsT8jq6N7t5KEk+zyHQeMexU8RUAOtv/7jAayXoHV18rqYU0NncXu4wUABTdi/OMGTXJZPyCRCL+kLt/Q1IjqQAFIe5uH8rlKh4Mw/jX6upq5hMJSlh29BYDAAAAAACUDmO1fwDIIwoAMWYal668xaSfkMSmKYz0trWXLJxJEjvIx1V02Xhgf6bltq+ntXmJpHeRxFb+QgQAisikMIwv2rhx6AF3XWmmWUQCFKQqSe/I5exvyWT8t7W18dOIBCUoRQQAAAAAAJQapwAQAPKIAkCMKQuiD0saJglJ0uThXPReYtjBFM98n+IbQFkBcHt62po/ZqaLSGKbPu72Q1IAUAQmJRKJDyaT8YckfVkSX14AimauoZdHkb4XhvE/JBKJ15MISkiGCAAAAAAAKC1mogAQAPKIAkCMqfrLu+6X9CWS2Mw/8PDipinksE0qHR2BZNOK78grKADcRk9bywckfYIknt3NrTL3Y2IAUMgvaslk4q1hGL/fzD/nrv2IBChaLzLzH4Rh/E5WBESJSBEBAAAAAAClxZ0CQADIJwoAMeY2WOzjkp4iCUmyfdZPCt5MDlt7YMOqaZJiRXbYmfrOmx6i9Z7R09pyjuSfJYnt3MRIdzde2vUISQAoxMlJGNa8KQzjq939G5IOJhKgZLw4ivS9ZDL+uzCsPpE4ULQvVMYKgAAAAAAAlB62AAaAfKIAEGPuiM6b+lz6GElsnsvowy4ZQWxlRtE1o9ndJjlNN6q7teV0mV/H68qOsP0vgMKTSCReGIbxX0rWJWkuiQAlevvhepkU3JZMxn/HioAoUikiAAAAAACg1AQUAAJAPkdVIsB4aFwbXSvpXpKQJB26pq3l9cTwjFzOZhbbMZtHf6HlRvW0Nr3IzG9S8a3iOG5iQY4CQAAFIwzDOWGYWG7mf5D0KhIByoO7XhZF+l4Yxn8ehuELSGTTPC02fKG7rpLUTxqF2neNFQABAAAAALt7L/kWSbdIikijYFuJAkAAyCMKADEurKsr5+6LSWLTdEZ+ASls2UGKbwVAye6h4aTu1qZGWfADSdWksUNPzX1AfyQGABMtmUwmwzB+hRStlrxZrEgMlKsTpOhPiUT8G3V1Uw4o9zDWrRt8OJPJflgKDpT8o5L+TRcpuDtoPhAAAAAAAOyWTCZzZzqdPTOKNF/S1yRtJJXCayYiAID8oQAQ42be0pW3m/xbJCFJOr63bQEr7jw9EBXfCoC5mMp+BcA1FzfNMAu+L2k6vXhn7MfW1ZUjBwATORAlk4m3uue6JV0oaRKRAEzBzfTWXC7WE4bxzrq6ukS5B5JOp/vS6f5L0+nsgWb2Nkk9dJOCkSICAAAAAMCeyGaz3el09l0jI9GBZvYJ7jELh7vTFgCQRxQAYnw7XEXwYZfWk4TkZp8mhU3Mi20FwKEnqp7oLucm6249PZ6Lgh9LmksHfo7ubRHb/wKYMPF4vDEMEz91929ImkkiALaZqUyV1JbLDT+YTCbOkxQjE21IpTLXp9PZw4JAp0v6A5FM+N0zKwACAAAAAPbKwMDAE6lUpqOyctKBZna+pEdIZaIF3O8DQD5HVSLAeJp76fKHA/PPkIQk1yu72xeeQBBS5LZPcR2x3Xd8xy9HyrW97lq0qDKwKV0mvYDe+5xyORv+KTEAGG91dXWJRKLmqiDQ3yQ/kUQAPIfp7n51GMbvDsPq1xDH6G1KX1/21nQ6+xIp+i/JbyOSCbp19oAtgQAAAAAAefHUU09lU6nMNel09hBJiyT1ksrEiMWc+30AyCMKADHupmzwy2X6B0lI5tGnSEEyqahWAHT53eXaVi5ZvDZ9rUuvpefuUu++49DLv/MfcgAwnhKJmpYoGu7e9E3WChIBsBueLwU/C8Oam6qrq/cljlHp9MDP0un+k6TgGMlWSMqRyvg2AREAAAAAAPJsQzqd/Uo6nT1U8jdJ+iORjC93VvwHgHziA0GMu9lXdQ32trVc4vIbSUMv625f+Lp5nct+XN4x2D6SF83RBlLZFgD2ti34tKS3c+nu6t0L2/8CGD/Tpk3Zf3i44otmOs2dPIrYRknrJPVJWi9Z3xYvLCnJNrWuZ7SdIiQzTXW3SZLk7pPNbIrkoaRJkmokxSUlNv03sKP5+cKKCnt9IlHzkUym/4uSIjKR0un0XyS1hGF4sOQXSP4OSVNIZuw7JBEAAAAAAMZIlE73f1vSt5PJmuPcrVXS67gXHQ+sAAgA+UQBICZE/ZLly3rbmt8r6VXlnkXg/mmXfmLFVAGX/wleUW0B7Ka/lGMr9ba3LHL3SxjBdqOvRLEfkAKAcWBhGH/PyIiWmikkjoI0JOkfkj0s+cNm9k93f9hM6yRfZ+Z9ZtG6yspE3xNPPDEwHgc0Y8aMmpGRkTr3DdPcbZq7TQ+CYN8o8tlmvp+7zTbT/pJmiWLBchWa2f8Lw/jbpOD96XT6z0QyKp1Or5X0gZqamk9UVATnuvt/S6ojmTG6Zw58BikAAAAAAMZaKtX/S0m/rK2tPsLdWt2tWdRTjBkzdlgAgLyOq0SAibKmveXoyP1PkmLlnoVLZ8xbsuK75Xr+PW3NfZKSRXK4I1M3RonZV3UNllMb9V7UfKoH+g43Ort1Zf+rYcnKA8u7uBfAWEskEnPN/CuSjiONCTcgabW7/mam+820xj14OJfLPdzf3//vIj6voLa29oAoGp4r2VxJh0iaa6Z57mpgblA2cmb+hSCo+ui6dev4dvY2ZsyYUTM8vOHd7vqw5LNJJL/M9I5UKvt1kgAAAAAAjKdkMvk8aeTD7vZOSdUkkl9BEB3R1zfwV5IAgPwoiwJA7+gIrKODLYsKUE9b81clvYsrUfc1TD706HLsp6s6mqoqBoOhYhmPzPW3hqUrnl9ObbTm4qaXRlHwc7G92W6++OjaxqUr3ksQAMZIkEwmznP3Sxmfx11O0v1mfp+7/S0ItCqKglXpdPrvKr9tUieFYTjfLHq+u54v2ZGSv1BiJcqSnd64Hs1ksnM0ulU1nq0ymUwsdPeLJB1OHHm6B6MAEAAAAAAwgeLx+HQz/4CZfVDSdBLJDwoAASC/Sn61hp7W5v/uHVz9+Z625iHJ+yTrk6tPgfok9bm8zxT0uXufSX2BvC+S9wWq6Mu59zU+lHvCurpYfnaMxHJVl+RiG89S8az+NjZcR/QM3v8mSSvLbhAa1gwVUTFyuW3/+0B709xcZLeI4pI9uKyN7X8BjIm6uimzc7mKr7v7CaQxLtZJutPd7zTzOyorp/zhqaeeyhKLJGlDOp3+i7TV/MhqamrmVVTYi93txZJeIvnzxarfJcFMsxKJRE0mk1lHGts1nEplrpd0QzweP8VMrWZ6JbEAAAAAAFC8stnsU5I+MWvWrCv6+/vfZeYflvQ8kgEAFJKSXgGwp72lWe43SQr24mFykvpM6nNpndz7XMHfFfgv3Db+4tDLv/MfutFetlNb84clfYYktLphbfT8cis47b2o6SgPgruLZ9S0Dzd2Lr+qHNpm1UVN+1YEwe8lzeHy3G0bhnJV04688oYBogCQT4lETYuZfUFSLWmMDXc9aqafmOnXuZzuzGazPWI7972STCaTUu44yU+IIjvBTPNJpXjFYiOz160b/BdJ7Jp4PP7SIFCrpNP38r2JssUKgAAAAACAAlORSCQWmHmrpCOJY8+wAiAA5PnFqVRPrLd9wYnufr32/g32mKTpvnk5XzOZXHK9z7wq6m1ruVse/czcVtZfseIvdKndNzIl+n8Vg8EiSY1lHsWhvXNiZ0u6oZxO2mLBPl5EH6lH0t3l0C7drafHZcEPRPHfHnHpVxT/AcinZDKZdB/5vGRnk0bebZT0O0k/DoLox319A/cRSX6lUqmUpFs2/VF1dfW+lZXBa911qqTXSoqTUvEYHq6YSgq7LpvN3iHpzHg8Pi8IdJGkt0iqIhkAAAAAAIrWSCaTuUnSskQi8dpNhYDHEwsAYCKV5LfPu1tbjnW3mzX2b6oHLj/GzdqiQH/obm9p8xJfVXEszO/o2mgenEsSksw/dteiRZXldMpRZDOL6HB98tDQPaXeJnctWlQZ2JQuk17ARbmnLw5s/wsgf5LJmle5j9xL8V8ep1ymxyT7kpnOqKqaPC2dzp6QTmeXUvw3PgYGBh5PpbLfSKezTel0doYUvNbMPi/pEdIpfLFYrpoUdl82m+1Op7PvqqgYOVjSlZIypAIAAAAAQFHzTCbz43Q6e4K7vUjStyRFxAIAmAglVwC45qLmQ8z8+xr/VSQqzL1zTfuCWx46/4wkXWv3NCxddptcPyQJza1JZt5aXqNQtE8RHe3aOVffkirpOxXJ4rXpa310NR7sabcOcoxnAPLBksnEee72M8kOJI691memG4JAp6dS2QPT6cz7U6nsd5988sl+oplQG9Lp9E9TqcwH0+nsgUGgV5r5ZyX9m2gKUy4XYwXAvfCf/ww+kk5nL6qsnHSAmZ0vCl8BAAAAACh6mUzmT+l0tkkK6je9tzVIKgCA8VRSBYAPXHjOPh7oR5ImbEUxdzt9eNKkP3ZfuPAIutfuiQXReZI2lH0Q5h9bc+7Jk8rmdCPNKJpjlZf89r+97S2XSno7I9LexTi3s+sBYgCwN2pqavYJw5ofu/vVkipJZI9lzHSDu52STmdnplLZt/b1ZW+VNEI0BSnq68v+NpXqPy+dzs4OAp0u6WZJw0RTQG8iBAEFgHnw1FNPZVOpzDXpdPYQSe+VtIZUAAAAAAAobul0em0q1X/eyEh0sKTLJaVIBQAwHkqmAHBNx5sTudjGH7tUP9HH4lK9xaI/9LQ3v5sutuvmdnY94PLPlXsOJh0YTUm8q1zONzIrmhUAXUFJFwD2tjW/V+4XMxrtdU9h+18AeyWZrHlVENjdkp1EGnvs1+6+cHPRXyaT+aEoIis2G/v6srem09mzhodzB0n6iKSHiKUA7lcsYgvg/NqQTmevTaez8yR/k6Q/EQkAAAAAAMVtYGDg8XQ6e0ll5aQDJV0kdgAAAIyxkigAXNXRVBUNjnxb0tEFdFiT5fpKT3vz9Y92nMYKCbvKhz4p+WNln4P5Rx9e3DSlLE7VimcFQDf7S6m2w5q2Bae59HkGobz0abb/BbDHc/MwrPmIu/3cTLOIY7dlzOzzsZgfnk5nX53J9C+XNEQsxW/9+vWPpdPZy9Lp7Fx3e52kH0tykpkYUWTc345RtOl0/7fT6eyLzPwE+jkAAAAAAMXvqaeeyqbT2SvT6ezBZnqnpNWkAgAYC0VfAOhNTbHKQbtR0omFeYA6Jzs49bdrLmo+hO723OYt/V7WPfgfkrD91k+Kva8sTtWLZwXAXG7knlJsgu4LFx4RyZZJinHt7bV+G8j+hhgA7K66urpEIhH/jmSfllRBIrs1b7pH0nurqibvn0plPrhuXf8qMilZUSaT+Uk6nT05CPwId31d0kZiGecrzpwCwDGWSvXfnk5nT9ZoESAAAAAAACh+G1Op7HXpdPZwSf8mDgBAvhV9AWDvwcFVLntTgR/m0VGgv/S2LziLLvfcGqfOu06yP5Z9EO6XdLeeHi+DEy2WAsBH51/R9Xippb9qcVOdxaKbJbGVW3768231n/vRBnIAsDvi8XhDLjd8p5lOJ43dG3PN/Lh0OnN0Op299sknn+wnk/LR19f/t0wm+47KytwcSVdIGiCV8WFmzBvHLWtFpAAAAAAAQEmJNv0BACCviroAsLd9wSclnVskh5twt67u9gXX3LVoUSVdb8esoyMKgtz5Yruj6Qqm/nepn6RLRVIA6HeXXPZNTbGKSrtREiuU5m0AM7b/BbB7E8RE4nVBoD9IOpQ0du3ly0zfd7eXptP9J6VS/b8ikvL21FPrH02ns61RpOdJWiL5elIZ44vQWQEQAAAAAAAAAIBCUrQFgD2tzf/tbsW2VayZ24fitemfrL1k4Uy6347VX951h0vLyj0Hc120puPNiVI9v3svPKfapKL4ANHN7im1/HsOtk6ZvY4RJ2/WVg1t+BYxANjVl/kwjF9s5j+QlCSO55STfFkQREemUtnTMpnMnUSCLWWz2afS6Wz78HA018w/J7YGHsObWqMAEAAAAAAAAACAAlKUBYA9rQvOkOmzRZz78cO53H3d7QtPoAvumFVErZLKfCs3nxYNjpxfqmc3SUPFsv2vgkh/KaXse9sXnGWyCxhp8mYwiNQ05+pbUkQBYBdMDsPEMkmXqchX5B6PyZBkXe52aDrdf3Zf38BfiQQ7s379+sdSqf4Pudt8SbeQSP5FkbMFMAAAAAAAAAAABaToPnBc3d5ynMyWS4oVd/S2j3n0k+72ljaXjK74bI2Xdj1i8iUkoQ+vWtxUV5IDUGWsaAoAoygqmS2Auy9ceIS7fUOMPfnj/v76K1b8hSAAPJd4PD4tkYj/VPJm0nhOfwoCvTqdzizIZDJriAO7I5PJPJBOZ8808xMk3UsiebyTNZtCCgAAAAAAAAAAFI6iKgDsvnDhEYH7dyRNKpH8K8y9c037glseOv+MJN3x2Wx99gpJD5R5DGFsUvDhkmzfKCqWAsBU45Vdfy+FzFctbqqzWHSzJFZuyVc/lq5pXLryGyQB4LnE4/GGINAfzPRK0tipv0vekk5nX9zXl/0NcWCvJnGp/tvT6ewx7v4BSRkSycPcx1gBEAAAAAAAAACAQlI0BYC97WcfbLHoJ5KSpdYI7nb68KRJf+y+cOERdMmt1X/uRxvMvL3cczDX+Q9ceM4+pXZeOQ+K5ZzuNsmLfqxpaopVVNqNkg5hdMmb3w9PiVqJAcBzqa2NvzIIdAdj8E6lJbWl09l56XT/CpXAay8KZ9qZyfR/oaJi5DCxLXAe7l/5IgkAAAAAAAAAAIWkeFYAjHLflbRvqTaES/WKRXf0tDW/lW65tYbOld+W/BdlHkN1LthYckVGpmJZAdDvKYW8ew62Tpm9jlElbx4diaKz5nd0bSQKADsThjVNUaSfSqojjR3MCUzfj8VGnp9OZ5dK2kAiGAv/+c/gI+l09swg0OmSPUwie4wtgAEAAAAAAAAAKCBFUwDopuFSbwyTpkr6Rk978/UPL27iQ5UtO2rg50oaKesQTB/o+UjT/qV0Sq7gwKI4Trc/F3vWve0LzjLZBYwmeTOsyFrmX9H1OFEA2JkwjF8o2QpJk0ljux6XvCmVyp62bt0gBVkYF3192VslO3LTtYndxwqAAAAAAAAAAAAUkOJZAdCtu2xaxXXOYFXsN90XNs2hi46qv7zrfpmuLfMYJisXlNZ2yOZFUdAYs+CeYo65p635yMjteknGaJK3cfr8xiuW/4YgAOxMGMbbJF3B+LuD2b3phijS4el0/7eIA+MtnU73pdOZFskXSOojkd0ylQgAAAAAAAAAACgcxVMAqKinnBrG5cdYLLinp73lTLrpqA2KfVTSU2UdgmvR6vaW55XK6ZhUDCsADv5rymNFO/6sWtxUJ+nbxge1+ey532xcuuIL5ABgZ3PsMIx/SVInUWzXWjN/TSqVfWs2m/0PcWAipdP9XWaxF7iLwv5dxwqAAAAAAAAAAAAUkOIpAAyC7jJsn4Tcv93buqDTm5pi5d5Zj+i8qU+uT5R5DFVB5BeX0PnMLoJjvPf4jl8W5fbT3tQUq6i0GyUdwstd/vpDfMrAe4kBwM5eq8MwcZMkxort+7ZZ7JhUqv92okChSKVSf89ksseb2SckRSTynPhiCQAAAAAAAAAABaSItgD27jJtI3Oztt6Dg9vWXrJwZrl32IaHoi/KdF9Zh2B6R2/72QcX+2k82nHaVEl1hR+37i7WjHvnBEtk9jpe6vJmnVnsjbM6bl1PFAC2Z9asWVPDMH6L5M2k8SyDZnZ+Op19UyqVShEHClAulcp0BIHOkEQf3TkKAAEAAAAAAAAAKCBFUwA4dWPUq/JejeH44VzurjUXN720nDusdXXlXMHiMr9uK91z/1PsJ5FZP7kYVv+Ty4uyALC3fcFCmS7gZS5vIrfgzQ2dN60lCgDbM2vWrKkDA9nvSzqZNLaZv5nuD4LoxalU5hrSQKHr68ve6m4vlMr8S0c7nyGzBTAAAAAAAAAAAAWkaAoAZ1/VNSjpn+XdXHZAFAW/7m5vaSvnFOZ1LvuF5N8p82v3nJ6LF84r6sEnsOIoAPSg6AoAuy9ceIS7fYWXuLz6yLzOZT8mBgDbM3PmzOpNxX/Hk8Y2s1fTDVOnxl/Y1zfwV9JAschkMg9Mnjz1Ze76Lmls98qeIsnIAQAAAAAAAACAwhAU1dGW7zbAW6ow987e9uZv3nvhOWW78oLn/AJJQ2XcD2LK+ceK+gyioigAHJk0dfLfiinWVYub6iwW3SyJlVny57sNS1YsIQYA2zNz5szqoaH1FP892wYzvT2Vyr710UcfZet0FJ0nnnhiIJPJniWJOcCz2axZs6YQAwAAAAAAAAAAhaGoCgDNjALATdz15smxjXetubjpsHI8/3lXdj0k+f+WdScwb+5paz6yaPuwqfALAE33z+n4etEUmnpTU6yi0m6UdAijZN70Vih6m0lOFAC2tan47weSjiONrTxl5ielUtlvEAWKXC6dzrZLeq+kEeJ4RjabnUoKAAAAAAAAAAAUhqIqAIzMe2iyrcyLouDO7vbmpnI8+fiUwUu9vLeFDiQV7yqAXgQFgLKi2v63d06wRGavY2jMm/5AwRsPWdKVJgoA26qrq0sMDa2/TdKrSWOrF/i7Y7GRF6RS/b8mC5SKdDp7bRDojSrvFci3EovFWG0aAAAAAAAAAIACUVQFgK6AFQCfLW6uFd3tC665a9GiynI68Vkdt66X/CNl3v5n9rQ3v7A4D90PKPgjdC+aAsDe9gULZbqAITGPzW96Z/2SZauIAsC2Zs6cWR1Fwz+U9FLS2MrNkydXv3LdusGHiQKlpq8ve6uZnywpSxrSyMgIBYAAAAAAAAAAABSI4loBMJejAHD7zNw+FK9L//z+S96yXzmdeOOSlTfK9Jtybnu5f7xIe23BrwBokf2lGKLsvnDhEe72FYbCvPbPznmdK7oIAsB2TBoaGrjZXS8niq1cnk5n3/TEE08MEAVKVSrV/0t3O1HSunLPIhaLsQUwAAAAAAAAAAAFoqgKAOdf0fW4SX002w64XhnLbbynp7XlNeVyyiZ5kNP5kqLybXg7ZU1r80uK8MALvQDQK4LcfYUe4qrFTXUWi26WxCos+fPzhgdz/0MMALYjFobxmyQ7iSieeb0004XpdPYSSU4cKHWZTOaPQeCvlvR4OedglqMAEAAAAAAAAACAAhEU2wG71EOz7YztI/Mfd7e3tLlk5XDG9Ves+ItL3yjnVo/MP1lMx9vdenpcUqKgryTpgUOWdKULejxsaopVVNqNkg5h7Mvba8w/NRK0WFdXjjQAbPvSEIbxL0t6I1E8LSfpvalU9jNEgXLS19f/tyhSWRcBRlFAASAAAAAAAAAAAAUiKMJjZhvg51Zh7p1r2hfc8tD5ZyTL4oRzVe2S0uXb5PZfq9tbjiuWo41Z9YGFfowuu7vQj7F3TrBEZq9jyMubIbmd1fiZZU8RBYBthWH8CknvIomnjZjZO9PpLFvQoyxls9neIIhOkvSfsrz7sIjVpwEAAAAAAAAAKBDFWADICoC7yN1O3zhp0h9WtzU9v9TPde6VN/zbTJeW9cUc+aeL5VhzVvDb/0rygi4A7G1fsFCmCxjp8tji5h+Yt3T5XSQBYFuJRM3HJcbcLQy62xmpVOZ6okA56+sb+KsUvFZSqvzuNVkBEAAAAAAAAACAQlF8BYDurAC4exoCBX/obW1+R6mf6PDk6BqVc4Go6eW9rQv/qygO1XMFXwAYFXABYE9b85HuxopL+b1+vjCvc+XXCALAtpLJ+DvMrIMknjZo5qdkMpkfEAUgpdPpP7vbyZIGymrqxAqAAAAAAAAAAAAUjOIrAIzFKADcfVPc9LWe9ubPrepoqirVk5zf0bXRIl1Yzg3tFn2qOI7UDij0I5wUi91TiMe1+uIzp0n6jiQ+dM3XdeN2x8jkaDFJANhWMllzvLu+RBJPG3a3plSq/3aiAJ6RyWTudLcmSSPlcs5mxgqAAAAAAAAAAAAUiKIrAMz+J/6gpGGabg+4Plg5GPv96vaW55XqKTZcseL7kt9Wxq384t62llOK4DgPLPDje+Tgy5Y9UXCXcFNTLMhVflPSHAa0vHnCKnNN8zu6NhIFgC3V1tYc7m43S6oiDUlSTvJzWPkP2L5MJvMjSe8rl/ONIqcAEAAAAAAAAACAAlF0BYDHXnvtsKS1NN2ecfkxgfuf1rQ3n1S6Z2kXSYrKtY0j+SddsgI/zMJeAdBUkNv/9s4JlsjsdYxkeTMSRFFz46VdjxAFgC1NmzZl/ygKfigpSRqbppDS+9Pp/hVEAexYOp39PzP7RDmcKysAAgAAAAAAAABQOIIiPW62Ad470yPXj3tbF3R6R0dQaifXuGTFvTK7oVwb16QXrGltPrPAD3N2QR+d6y+Fdki97QsWynQBw1cerxW3C+qv6PoVSQDYUm1tbTgyUvEjyWeTxqbx0mxxOp39CkkAzy2VynRIuq70xwWvprUBAAAAAAAAACgMRVn8Ze4UAOYjRrO23sH7v7dqcVNdyZ1dLPcRl9aXa+O66ZMFXty5f2EH6AW1AmBPW/OR7kbhRX4vkmUNS5d/liAAbDuDiKKRZZKeTxSbXxK9I5XKXEMSwK5Lp7Pvl3RHaY8NrAAIAAAAAAAAAEChKNLV3+yPNF3esjyloir405r2lqNL6awaL+16xORXl3HDzl8zdH9zIR7YpoLTmkIOLwqCewrlWFZffOY0Sd+RxCoreRv2dF986sC7CQLAtsIwfrmkk0ni6QGzK5Pp/yQ5ALttw8hIdKakf5XuKToFgAAAAAAAAAAAFIiiLABsWLriZklfp/ny5uDI/Y7e9pZFpXRS7kOdkh4v21Z1+8TtHcdVFNphVVQFBb2lokl98zqX/6MgmrCpKRbkKr8paQ7DVP7aN8jpjbM6bl1PGgC2lEgk3izpIpJ42l3V1TVvl+REAey+gYGBJ8xyp0teonMOVgAEAAAAAAAAAKBQBMV64FVTprzfZH+mCfNmkrt/uae9+fpHO04riQ9z5i39XlauT5Vrg7pUv//Qvm8ptOOySLMLPLe/WIEUO/TOCZbI7HUMT3kTeeBvqb9ixYNEAWBLYRgea+Zstf7Mq+E/R0aiUx999FGKpYG9kEqtv9s9eF+JjhOsTg0AAAAAAAAAQIEo2gLAOR1fH5IFCyStoxnzyHVOdnDqb7svbCqJFceyqfArknrKtjndP3bXokWVhXRMUcwPKPBr4J5COIyetuYWmS5gUMojs081Xr7yhwQBYEvV1dUzpeg7kqaQhiSp38xPHxgYeIIogL2XyWRukPTV0ptWsQIgAAAAAAAAAACFIijmg2/ovGmtmTdLytGUeXW0xYJ7elub31jsJ3LstdcOu9RWxm05J1GXeUchHZApOLCQAzOzv0z0MfS0NR+pEvygeIL9vOHB3KeIAcA2qiorg5slHUAUkqTITG9JpQbuJQogf+Lx7Ick/bWUzsndWAEQAAAAAAAAAIACERT7CTR0rvyZyTtoyrxLuOlbva0LOr2pKVbMJzJvyYrvSv6Lcm1Id//4w4ubCmdVIy/sLYDlfvdEPv2qxU11km6WxIeq+etzD2skaLGuLorFAWw92UnULHXXy0hilJl9OpXKfpckgPz61780mMt5s6SBEppgsQIgAAAAAAAAAAAFIiiFk6hfsvJSl75Nc+aduVnbmoODn629ZOHMou7oFlwoKSrTdpw1WBW8u2A6lQp3C2CX1tc/FPVO2PM3NcUqKu1GSQcz/OTNcGTW0viZZU8RBYAtJZPxN5jZh0jiab9KpTKfJAZgbPT39692t/eU0ClRAAgAAAAAAAAAQIEoiQJAk7xS0bsk9dCk+efSccMj0Z/WtDa/pFjPob5z+d1yW1G+begXP9px2tQC6U8FWwBo0n0TuUpcz8HWKbPXMerktcOdf+iS5b8nCABbSiQSc931jdGhH5L+XVmZO1sSK6UCYyiTySyTbHmJnA6rVQMAAAAAAAAAUCCCUjmRQ5Z0pd2jN0jK0KxjwDQ7Mv2mu72lrVhPIQp0iaShMm3A/foHq/97oo/CRwstCrkAcMK2/+1tX7DQZBcy2OSzw9myxqUrvkAQALYx2SxaKSkkitEpkhSc89RT6x8lCmAc5psWvF/Sv0rgVFgBEAAAAAAAAACAAhGU0snMW9rVI/e3SXKadkxUmHtnT2vLTfdeeE7RrfhwaOfyv7vrc+XaeC5v6249PT6Rx/DghefMkDS5gGO6dyKetKet+Uh3+wpDTP6Y629DUeV7SALAtsIw/gXJjiaJp0fMy9Pp9E/JARgfqVQqJQXvLIF71kmSYrQoAAAAAAAAAAATLyi1E2pcuvIWc19K044h84WTYxvvWtO2cH6xHfqkjRsuk+w/Zdpy0wNN+dBEHsBwxdDswh4R7Z7xfspVi5vqJN0stlHLp35JC4688oYBogCwpUQicY6kd5DEKHf9Jp3OdJAEML7S6fRtkor+yx91dXXMXwEAAAAAAAAAKABBKZ5U/UP+ETP/lKQRmnjMzIsU/b63fcFZxXTQc66+JeXuny7bVjNd8ND5ZyQn7Ok9OKCA08nVTBr463g+oTc1xSqqghWSDmZIyV+s7vaOhqUrVhMFgC2FYTjHzP8fSTyt3yx4G/NlYGJUVU2+QNJDxXwOGzZsYBtgAAAAAAAAAAAKQEkWAFpXV66hc+XHJB0r030085hJuNu3elqbv3zXokWVxXLQ/anw8yatKccGc6l246RJiydwwDmwgOPpndVx6/pxfcI5wRJJJzKU5NVV85Yu/xYxAHj2S1B0naQEUWyaE7i3p9Pph0gCmBhPPvlkv7u9v5jPoaKiggJAAAAAAAAAAAAKQFDKJ9e4ZMW9UzdEL5H8KkkRzT1GTIvitZlfPPCRltnFcLjHXnvtcOR2SRm32PmrLz5z2gQ9dyGvAHjveD5ZT1tzi0wXMIDkdTD6bbYvbCcHANtKJGo+IunVJLFptDT9LpPp/yJJABMrk8n8RLLlRftmQpCjABAAAAAAAAAAgAIQlPoJzr6qa7BxycoPR7JXluuqb+PDX5Eb8b92tzc3FcPRzlu6/Fty/a5MGysRy1VeNCG9pIBXAHSze8bruXramo+U9FXGjbx6QhW5lmOvvXaYKABsKQzDY8zsf0ji6Ve89VFkbxdfjgEKwshI7nxJfcV47LlcUE0LAgAAAAAAAAAw8YJyOdFDlyz/fc2U9Ue5+WclOU0/JkJzrexpbf7ymnNPnlToB2sxu6Bc+4KbfXDtJQtnTkDqBbsCoHt0z3g8z6rFTXWSbpbEB6b5kzMPzmm8tOsRogCwpZkzZ1ZL0U2SKklj0yuxBZdkMpkHSAIoDAMDA09IaivKNxOCiBUAAQAAAAAAAAAoAEE5neysjlvXz+tceZ5b8HpJj9L8Y8S0KDc18fv7Lzq7vpAPs+Hy5X8w+bfLtJWqR3LRBGyV6gVbABhFPuZbAHtHRxCrCpZJOpiBIq8+2rB02W3EAGBbQ0Pr/1dSA0lsmqKZfpdKZT5HEkBhSaezXzUrvtXJcznjCy0AAAAAAAAAABSAoBxPel7nsh9XKDpMrmvpAmPDpBfEgtyfu9sWvKWwD7SiTdKGcmwjl963pvXN41aQ5x0dgaT9CzSNx+Zf0fX4WD9Lz/ruj5h0EiNEXgeb7zcsWbGEIABsKwxrTpD0HpJ4Ws4s+m+x9S9QoFPz3LnFdn0GgbMCIAAAAAAAAAAABSAo1xM/ZElXunHpivea7FTJH6MrjIm4yW7oaW++flVHU00hHmBD501rTfpSmbbP5CgYuXi8nqxnffe+KtgtGO2esX6GNRc1vdrMP86wkFd/H9kQvc3Y1h3ANka3/rVrJRlpbHqlM/98X9/AfSQBFKZUav3dkq4rrnHFKAAEAAAAAAAAAKAABOUeQMOS5T+I5SYdJfl36A5jxHVOxWBwV+9FTUcV4uENWewTktaVadu8p/vCpjnjMtjENLtgc7CxLQB84MJz9omC4CZJMQaE/F26QaSz5l/VtY4oAGxrw4bBJZIOIYmn/SeXs08SA1DYcjm/RFK6WI43ipwtgAEAAAAAAAAAKAABEUhzr7zh341LVr7RTQtUroVgY6/Rg+CO7rbm8wrtwI7ovKnPTJ1l2i6VFgs+Mh5PFOUKuABQunesHtg7OoJcbMM3Jc1iGMhjruYfqL9ixV9IAsC24vH4y9z9/SSxlfZsNvsfYgAKW39//78lXVosx8sKgAAAAAAAAAAAFAYKALcwr3NFVy5WebhM3yeNMTHZpKt72pq/s2pxU10hHdjw5OgaSQ+Wabu8vbu1qXGsn8SCwi0A9Ch3z1g9du9Q98ck+y8u/3w2mL46r3Pl1wgCwLYOOEBTgkBfZ467lT+n01nGTKBIpNPZayQ9UAzHamasAAgAAAAAAAAAQAHgw9FtHHbZNx9r6FxxulznShoikTFxRkVV8Oc1rc0vKZQDmt/RtdFkHyvT9oiZxT465s/ifkCBnv9A40Nj8yFrT2vLa+T+P1zyeXV31dQp5xIDgO3JZuOflFRPEs+8+kaRzpUUEQVQNDZ6kcwf3Z0VAAEAAAAAAAAAKAAUAG6HSd64dMX/M9cLZLqPRMbE8yLTb3raWzq8o6Mg+mH9kuXL3O2O8mwOX9hz8cJ5Y3td+YEFeeZu91lXVy7fj7v2koUzZdENjLN5lTKLvWlOx9cpzgbwLLW11UdIOp8ktnqVW57NZu8gB6C4ZDL9KyW/u+Dvm9kCGAAAAAAAAACAgkBhyk40LF2xumrylBe7+WdJY0xUyP3jvYOrf3r/JW/Zb6IPxiQPLGov07aIeRSN6UojLivIFQAD83vyfq4dHcFwLvqmZPtxmeezC9k7GzpvWksUALb3Mh5FwWclVRDF03JRZJ8gBqAoRe7BJQU/OWMFQAAAAAAAAAAACgIFgM9hTsfXh+Z1rjzPzN9kUh+JjInXxHIb/9zT2vKaiT6QhiUrf23m3yvHRjCpZc3FTYeN1eO7NKsQzzsyz/sqnz2D3Z+QdCKXdj47qHU2di7/DkEA2J5kMv4OSa8mia1cl81me4gBKE6ZTObHkn5R4BM0CgABAAAAAAAAACgAFADuoobOld8OKuxISb8mjbFg+8n8tu72BdfctWhR5UQeSRR5q6ThchwPolzwsTFrYWlGQZ60BXndXq27feEJJr+Yazqvbm94MPc/xABgexKJRJ27OkliKxvMYp8mBqC4udtHCvoOzryaVgIAAAAAAAAAYOJRALgb5l66/OGGtdEJMvuEpByJ5J2Z24fitZnfdl/YNGeiDmLe0q4emb5Sni2gBT1tzUfm+2EfXtw0RdKUAjzjXM2kgb/m68FWXdS0r3l0o6QYl3PePJ6LVb7ZuroYcwHsaPJwuQq0yHwCM7k2lUr9gySA4pbJZO6U9ONCPT53sQIgAAAAAAAAAAAFgALA3WRdXbnGzuUdgesVkh4ikbHgL7JYcHd324IFE3ZhWNQhKVOOXdylvK+0NlRZNa1Az7d3Vset6/PSa5uaYhWB3ShpX67hvBmWoqbDLvvmY0QBYHvCMDxW0rtJYiuDsVhuCTEAJXJn5PaJAj48CgABAAAAAAAAACgAFADuofqlK+4c2RgdK+kW0hgTocmW97Q1f3bNuSdPGvf2vbzrScnK8sNzk97Ye1HTUfl8zMhGCrUA8N58PVDvIbFPSXYCl25etTcu6fotMQDY8UtW9Hnms8/yuf/8Z/ARYgBKw+gqgPbzAj08tgAGAAAAAAAAAKAA8IHpXph/Vde6xiUrzpT0NpfWk0jemaRzo6mJP69pWzh/vJ986sbcVS79sxxz9yD4eF4f0W16IZ6om92Tj8fpaWs+We5tXLL5bBz9sGHJiqsIAsCOJBKJFkkvIomtbBgZiRg7gVKbnFv0qQI9NFYABAAAAAAAAACgAFAAmAeNS1ZcH7iOlek+0hgT8yNFd/a0tpwznk86+6quQXP/WJlm/oae9uYX5uvB3KKCXAHQPbpnbx9jTeubD5B0PeNpXlvmX8oFbzPJyQLADlSZ+aeI4Vm+PjAw8DgxAKUller/laRfF9pxmVEACAAAAAAAAABAIaBgJU8alq5YXTV5yovd/LOkMSZqZH59T3vz9as6mmrGrV2nHnaDyf5chnmbu/4njw9XkAWAk2Kxe/bm92/vOK4istwySdO5RPNmRPKFjZ9Z9hRRANiRZDJ+rqRDSGIrURTpf4kBKE3udlnhHRNbAAMAAAAAAAAAUAgoAMyjOR1fH5rXufI8uZ8paR2JjAHXORWDwV29FzUdNR5PZx0dUeTRReUYtUmn9bQ25WVrxUBegAWA/tjBly17Ym8eYb/1My+T/BVcmPlsFv9Y45Ku3xIEgB0Jw7DWXZeQxLPcks1me4kBKE2ZTOYnku4tsMNiBUAAAAAAAAAAAAoABYBjoHHpyltiFXaUCnCbplKJ2IPgzu625vNcsrF+snlLV94u6UdlOkR8PD+PU4grANo9e/PbPRcveL2ZLuRyzKvbGx7ypcQAYGfccx+TVEcSW4siXUkKQGkz09UFdkgVkqpoGQAAAAAAAAAAJhYFgGNk7qXLH25YG50gs09IypFI3k0y6eretubvrFrcNOZFAOa6QNJI2aVsen1PW9Ner3DnpsIrALQ9LwB84CMtsxXZNzQOBahl5ImRKDrburoYLwHsUBiGc8zs/SSxzeus67fZbPYOkgBKWyqVvVHSvwpsXGYbYAAAAAAAAAAAJhgFgGPIurpyjZ3LOwLXKyQ9RCJj4g0VlcE9+ShS25mGpStWS3ZdWfZjBR/d6wdxTS/AU9ujLdRu7ziuIjfsy6SCPKdiFZn5W+Zf0fU4UQDY6WuSRZ+UNIkktpnQB6z+B5SJYUlfKKQDqqjYyDbAAAAAAAAAAABMMAoAx0H90hV3Vig6Wq4VpDEGTLOl4Pae9pYO7+gYsz4dy1V+VFK23OJ16bW9bQtetZeNVHArAHqUu2dPfm/W4MwlMr2cCy+f17B9qqFz5c8IAsDOxOPxee5aSBLPekX7ZyqV/T45AGVzC/8lSf2FcjQbN1awAiAAAAAAAAAAABOMAsBxcsiSrnTj0hUtkt7m0noSybsKuX+8d/D+2+6/5C37jcUTzL3yhn/L7H/LMVyXfWwvH6HQCgAHGqfOX7O7v9R7UfOpkhZzueWxb5n9quHB3KdIAsBzTloD+7ikGElsM466viqJ7dOBMpFOp/sk+2ahHE8sFrECIAAAAAAAAAAAE4wCwHHWuGTF9YHrWJnuI42xYCfEcsP39rQ1nzwWjz40UnmF5I+VYbCvWXNR06v34vcLqgDQ3e6zjo5od37ngY+0zPbAvi7JuM7y5klFOtu6uihcAbBTdXU18yVfQBLPMlJZmfsaMQDlJZeLPifJC+NYAgoAAQAAAAAAAACYYBQAToCGpStWV02e8mI3/yxpjIkZkn7Q3b7gmrsWLarM5wMfeeUNA5I+Xo6hRkHs03vye7d3HFchKSyogc/8nt35+bsWLarMjfjyAlzJsJh5IH/XvKXLHyUKAM8ll7MO5q3b9f3//GfwEWIAykt/f//97vptQcyrA1YABAAAAAAAAABgovFB6gSZ0/H1oXmdK8+T+5mS1pFI3pm5fShem/ltb/vZB+fzgRvW+tck/bX8IvVXdLcuOH53f2t2/+w6Fd6qeffuzg8natNXSHoZl1VeLalfsvJWYgDwXGpraw6X9EaS2M4rs9uXSQEo2xHgC4Vx0xVU0xYAAAAAAAAAAEwsCgAnWOPSlbdUKDpast+SxljwF8lzd/W0t5yZr0fctF1pWzmmaYF9Ynd/J1c5Uldw5+G7XgDY095ypksf4lrKq98/OuWJ/yEGALsiiuxTzFm3O8f5ZyaTuY0cgPKUyfR/210TvpJyFBkrAAIAAAAAAAAAMMH4MLUAHLKk658Na3PHyewTknIkkl8u1cr95p725usf7TgtLx9QNS5Z8SPJbyvDMF/5QHvT3N36nWhkeoGdRa566vr7duUH77/g7IPk/lUV3gqGRcukvsjszcd3/HKENAA8l9ra6iMkvYEktuta5o1AWRsOAvvahM/tzFkBEAAAAAAAAACACUYBYIGwrq5cY+fyDpOf4NI/SWQMuM7JDk79XXdrU2Ne2izyVklRucUYRbHX71bsHiu0FQDXzOq4df1z/tC5J0+KVeS+JamOiyd/V2Hk9vZDO5f/nSgA7NprjrWJIuztjqdmFd8kBqDsb+f/b6LvR9xZARAAAAAAAAAAgIlGAWCBaViy8teJKesPNfclKsPisnFwlFlwd3db83l73VZXdN0jsxvKLUBXdPLujTJRYa0A6Hb3rvxYVJ24UtKxXDJ5Df/qeUuXf48cAOyKMAznSLaAJLbrN6lU6h/EAJS3VCr1d0m/nMhjMHMKAAEAAAAAAAAAmGAUABagWR23rm9YurJdbidJ+juJ5N0Uk67uaWv+xqqOppq9uoCi2EclDZZVembH3XvhObu81Vcgm1ZYx+/Puf1vd1vz++X6IJdKXv1pZIq3EwOAXX+58QskVZDE9vgyMgAgSe523cSO1awACAAAAAAAAADARKMAsIA1Ll3+8/iU9fNZDXDMvLViMPjzmvaWo/f0AeqX3vgvya8qs9wmT41tOGGXf9pVUCsARvKdrgDY07bgPSb9Py6PvEqbxVrmd3RtJAoAuyIej09z97eTxHYNR5F9ixgASFIikfm2pNREPb87KwACAAAAAAAAADDRKAAscJtXA/TAXyWpl0TyriFyv6O7rfk8l2xPHsB9qFPS4+UUWk52yi7nIxXUCoCTYrF7dvR3PW0L3iPZlxgb88vM39/QedNakgCwq2IxO19SNUlsb0zVT7PZ7FMkAUCS/vUvDUq2fAJHJcZqAAAAAAAAAAAmGEUuRWLe5St/N3VjdNSm1QBzJJJXk0y6uret+TurFjfV7XbbLP1eVq5PlVNgJj9lNwomC6gA0B87+LJlT2zvbyj+G7PO8oWGzpVsVQlgl82cObPa3d9PEtsXRcaYCmDrGa7ruol7blYABAAAAAAAAABgolHoUkRmX9U12LB0ZXske5WkbhLJuzdUVAb39LQ1vWJ3f7HhoejLku4vn6jsgO62psN37UcLqQDQ7tne/6X4b8z8deqG6EJiALA7BgcH36UCWz22cPj6SZMmfZccAGwpk8n8UdLqCZldG6u1AgAAAAAAAAAw0SqIoPgcumT57x9e3PSC9VXBpyWdJylGKnlimi0Ft/e0LvhYw9TDllhHR7RLv9bVletua77EpFvKJarA7VRJf33OH3TVFcoxu7S+t33BiVv9P7djJV2mPdwCGjvU7x41zb6qa5AoAOzOK7GZf4AYdhjPD5988sl+cgDwrHmu+zIz++QEPDUrAAIAAAAAAAAAMMFY7apIzb6qa7BxyYoLAtcrNEGrPZSwCpld1ju4+mfdrS2zdvWX5i1Z8V1JPyqf0cNO3sWfnF4oh2zSWe5225Z/JF0uiv/yz+2/5y3t6iEIALsjkUi8VlIDSexgaHVj9T8A25/nWuwmST4BT00BIAAAAAAAAAAAE4wCwCJXv3TFnVVTprzA3JdIypFIXh1v5vf0tDXvaqGbclHsPEkbyiId18tWX3zmtJ3/iEwqnBUAMW7+r3Hp8huIAcDuMvNzSWHH0wx3/zExANiedDr9oKQ/TsBTswUwAAAAAAAAAAATjALAEjCn4+tDDUtXtlsUHSvpHhLJqxmSftDdvuCaVR1NVc/1w4ddcdMac7+6TLKJBVHVf+3sB9a2NSUkVdKNysr98SnrP0QMAHZXGIaHSHodSWyfu36fzWafIgkAO2Jmy8b/OVkBEAAAAAAAAACAiUYBYAlpuKLrnmB95iWSXyZphETyxsztQxWDsZ8/cOE5+zzXDw9Gkz4l18NlEs0pO/vb4Ryr/5UTl9YHChbM6rh1PWkA2O0xxHMfZG66s8mIbiUFADszMhItG+/7QHcKAAEAAAAAAAAAmGhGBKWp+8KFRygWXWfSC0gjn/xfkfkZh3Z2/Xmn+bctWGCyFWUQyFMNa6N9ratru9tP97Q3v1A+IVuRYSKuDrd3z1u6/P9IAsDumjlzZvXQ0Pp/SUqSxvblcn5Yf3//apIAsDOJROJDZj5r/OZ/3p/J9H+a5MdGMhn/vrtOKfcczPSOVCr7dXoESrmbJxKJWjNLmg2HUVRRZZaLB0EwJYp8smShtviijJlq3LfebcHdBs18aJsxOmOmYcnTQRAMRVEwGEVRtqKiYigWi/U99dRTWaIHinbOVydprlk0W3v1RbrYQ+l0+i4SRZGJhWF4oKR6KZotKbbn9zN2byaT+QORAts3a9asqUNDfdOiKKiTrM5ddZIC96DSzGs2XUeTzXzK6DzVqt19025qFkoebH3NacBMGyXlJGUk9bl7RgrS7p6qqKh4pK+v7wlJG0o92zCMPyZp33LvY0EQHdHXN/BXrjZg89gQ1rr7NEl1ZrnE6NgaPD22mtmz3g/Y4v5/U71GLOXumSiKMpMnR2mz6syTTz7ZT7rloYIIStO8K5fdd9eiRS+pqct82Nw/KamKVPLBDgjcftnT3vLWxs7l39lh/ktWruxta36nS68t8UCmPzAneKGkO7d/B63p9JmyuTZWUvwHYE8NDa0/WxT/7cyDFP8B2BWZTOazpAAABWFSPB4/KBbzWVEU7B8E2sfdZ5lpprvvK2m6ZLWb5sBJySW53GMyc0mBokja3ne33bdzR26+nf+3+Xdt02NFCgIpikYURSMKw/iIpHWS+jb/MdNT7nrU3R41ix6NInssCIJH0+n0Y5KGaFZg/CSTyWQURfWS5krR3CCwBndt+m+ftvn63htmuf8niQJAFKIgmUzOdh+ul2yuu9VLqjdTvaSDpSgvn3cFgT4piQJAlJ2ZM2dWDw8PPG9kJDjILDpQsgMlP0iyAyTVuavOTHUDA9nJ2ysl2HLuueW/+1YT1e3NT7WDOavLTJvnqJL0pKQnJP3TzB+UggejSA+4+4PZbPZBScO0IoAiUlFbWztLGjkwl7PnmUUHSXagmfZ31zRJdc/8iYJnxspgi/cAbIfvB2x9/z96728mxWKm4eGYpCGFYXxY0r8lPequx830mJk95u4Pm/mDQZB7YN26wUe2O3ijuDobEZSuY6+9dljSkt6Lmn7iQXCdpKNIJS9q5P6tntYFH21cuvLyHb+Dop/LS74AUDmzU7SDAsBNNwkofb3u699NDAD2AmPITrg72/8CAAAUmHg8Pk3SvCDQPEn1kh0k+UFmep679hudx5nM/Ok36bd8474AVEjaZ9OfLY5v8we5piCQpEhhGJe7HpX0oKS1kq+VggfdfW0sFludSqVS9Ahg99XV1SVyuVy9lJs7Wtxnmwuc6t1z0595X9V2+GHf3t1rGiuBYCJZXd2UA3K5WL1kc0dfSzXXTA3uOsQ9N2nzB99j9RmDu7MaLkr6GksmkwflcrnDg0CHm/nh7jpUsoOGhtZPk+zpOd/m15qnf3Hip6szNv053P2ZAkEzbS5iud9Mf3XXfVJwr7vflclk1tHkACZSIpGoi8V8fhT5fCl4vuSHSX6wZLOiaKRiy3vtLe+/x0mlpP0l7b95jN9ctO1uyuUqFIbxIXc9aKY1kq2SovuiyO7NZrMPSMrRwsWBAsAy0HBF1z13LVr0oppkpt3MPypWA8yHQGaX9bS1HFY1ZfJ75nR8/VnfgvbIT1AZVL+Z/BRJ/7ODkKY5heKlbsiiqLnxiu/xZgmAPVJbW/38KNKLSGKn046fkAEAAMDEmD59ejyX23BkLudHmtmR7jrUTPOkbXc92PzmeWnmYKZZkmZJeuXoBxajH8S65xSG8X9Jvkqyv5pplXvwt3Q6fZ+kjfQgMIZMj4+MrJ/rHmxayUz1QaB6d9XncsObCnBtot5G5v08jLlp06bsn8vF6t2fLvLbtJKl6nM5Td7258f3ddQpgkWpqEwkEkdLerGZHyHp+ZIOc8/Fg2DztVUyn1dWSjrSXUeO/mckM3kYxnvcdaeZ7giC6I6+voG/iZWsAIyRMAznuPtLJT92tMDa5pv5rGdW8t88/BTV2DvZTPMlzZf8jM1fCgzD+KCkVZL9yV13SLojk8k8QC8oTBQAlolNqwF+ak3bwpsjRddJeiGp5OUG8S0bBwfnrrqo6cz5V3Q9LkkPnX9GcmPV5C/I/HVlEsJRPR9p2r/x0q5HnvU3QTRdzhKApX0J6IKGK7ruIQgAeyqXs3eyWuxODU+aNOm3xAAAADD2Zs2aNXX9+syx7vYSjb53dvTw8IaDJdnmLXWYu27XAZu2jHvtaOFGpDCMb5R0j5n/UQr+lMv5H7PZbI/4IBYlaObMmdUbNvRvKnCyeklz3Ue3Kx0e3rCvFHv6Z0cLZwvjuFkBEPkyderU/aqqgvpNW/U+vZqf5PUjIza1UI/bPaAIFkV8zcVe4q6XueslZjpG8illHIlJmrfpSzpvj6JAYRh/UrKfS/4zs9jPU6nU3+k5APZ8rj/wQnd7yaYx9yVSNHPL1bpL/H2CKZKOHS121PslKQzj/3bXHUGg30jRz1Kpgfu41y8MFACWmfoly1bd3nHcy2at3+cimX1c0iRS2WsvqbDgj2vaW97giqZtdPu65PuX1cQ6F5ws6avPvoFWHd2jlBvev9WwdOUXSALAXphkZm8hhh1z1x+efPJJPpQBAAAYA9XV1fvGYnZcEASvcPeXDAxkj5SM90vzo0rSi9ztRZJvXjmgT9Kv3O32WCz6RV9f/yrxIQGKxKxZs6YODqbnRpFttV2pu+qHhtbP2rxV6WbF8CFgELD9KXZdTU3NPpWV1uCuendtKnaNNhe91my/sNUK/Rrg/RYUy/U3IwiC/5L8JDMdJ+mgzdccX07ZoRmSt0hq2bRi9RpJ3zPz76VS/b8T21kC2LGK2tr4S93tJHc/aWho/Qs2v0/AmPu0fcz0Bne9QQoUhvHHzfSzKLKf5nK52wYGBh4nognqvERQfo7v+OWIpMvXXNz03SiKXSc52+7tLdPsyP33klVp23d7ykHkZ2k7BYCSTaNzlKyHKjdsfA8xANgbYVjzBj1r6zRsKQjsF6QAAACQH/F4fFoQ+HFmwfGSH++uwyTJnRq0cVIr6QwzPyOKTGEY/7dkt5v5T0ZG/Af9/f3/JiJMsMm1tdX17sFcd221ktnAQPaA7b3tW8wfArpT/ISt1dTUzDCzubGYGjZvWS355usgMbqt3dM9SEW2rd32rgGKYFGoqpLJmpe520mSTpJ0tOQBseyVekkXuNsFYRh/yl0/iMX07b6+7E8kbSQeoLwlEom5UnSSZCeZ6YQoUpzvqu2Wfd31FjN/S0VFECWT8Tsl3ewe3JxOpx8invFDAWA5z3Qu77rfOzpeumao+93u/r+Sqkllr0wu2zM3O3HtJQtnHnzZsie2+RuKOkrTcBBEb55z9S0pogCwl95JBM8logAQAABgLyST1Ue6B6830ynueolkMQr+CsY+kje7qzkWsygM43+Q9L1YzG9dt65/FfFgjEyqq6uZG0W2aRWzzYV+Vi/5AVGkslnXg+1Py1M8Hp9mNrqKZRCo3j2q37x1taTkaN+QyuFDb/eAIlgUjNra2jCXy51u5m+UdKK7akhlzEw309uiSG8Lw/g6SV1mflMq1f9bSRHxAOUhDMMXSNGbJJ0leYPE8n55ErjrZZJeJkVXhmHNXyT7tlnsxlQq9Q/iGVsUAJY56+iIJF3bc/HCXyuK/m/0QgR2fywZGfFmSZ/d9rWTaEpx4LC2+su77iAIAHujtrb2wCga+S+S2KnBVKr/TmIAAADYLbFksuZV7sGbJD/dXQdIm4sZUMACSS+V9NJczi4Pw3ivu98kBTdlMpk1xIPdNCkej88ZXcVM9e42V9Jcyeslzc7ltreDS/kNErEYKwCWqjAMa903r9wXbSr0e7rIr25zfx99bSzfD7ujKKIIFhN+rZpFb5D0pigaOdFMk0hl3NVJeq+7vTcMEw+b6Tqz2P/19fX9k2iAkmOJROKFZv4mSW+SojlEMi6xv0DSC9xznwrD+K/M9I3KysnffvLJJ7kXGQMUAEKS1Hj5sm6XXrGmveU97v4ZiW+WYPe4+dnapgDQZIGzPG6JNbR+2LBk+dUEAWBvRdHIQm1v/yRs+Ur6O0kbyAEAAOA5xcKw+jgp9ibJ3+iufdiup+g1mFmH5B1hGP+Du90YRdEKtgnGFqri8fgcSfWx2ObV/KJ6yeZKOlBS7JnCX8aD7XGn+KmY1dbWhlEUzXXP1UuqDwKrf2br6mj6M9tTG0XwOxpEqnJ88IxxV1dXl4ii4bPc1SRFr3FXFakUzCvjbHd9zH3ko2EY/7GZvpJKZb8vaYRsgOIVj8cbg0DvlLxF8gNJZMIEko531/EbNw59PpGIf0uyz2cymT8RTf5QAAg9cxsoV+fya3vbz/6Ze+6rko4nFeyGF6++uLnh0MtX9BJFyd78/Eu52NuMd00B5MdCInjOcZftfwEAAHYiHo/PCwK9XdJbJO3P7WrJerGZvzgWsyvDMHFzEPgX+vqyvyGWslCZSCSep01blUqqd482bdergyTFJOmZbb3Ztmu37ji9ggLAAjd9+vT48PBwvZSbq02rWQaBGtw1N4pG9pEk21TpR5Hf7ouiSVlpkCAwXvPWlweB3pXLDS+QVE0iBS2Q9Hp3vT4M4/+S9Dmz2LWpVCpFNEBxmDFjRs3w8FCTpHe56+XcKxScajO9TfK3bfrC3+cymUyXpI1Es3fo5dj+zX9HR7BmffcH3fwyJqLY5X5j/lmXX//0DNmDGyQdSjIlYcQDP27e5St/RxQA9lZNTc2hsZjdTxLPMVE3f3Uq1f9rkgCA8pRMxr/vrlN4PdQ7Uqns1+kR2GzGjBk1GzcOnS3p7RrdMhbl6a+Sf6Gqaso32Tqo6FVsKvKbK6k+CKIttyp9nljEYMzkcj6TVTUn3syZM6s3bOjftFX1aN93V72ZGiTNJKGxk05nK8XKXhhDNTU1+8Ri9lZJ75I0j0SKWr+Zf809dk06nV67tw8WhvHHJO1b7qEGQXREX9/AX+leyJd4PP6y0dX+tEBSnESKyhPu/gWz2OfS6XQfcewZCgCxU73tZx8sz/2fS8eRBlDGLxbuSxqWrmwnCQD5kEwmPunu/0MSOzUyefLU5BNPPDFAFABQrq+XFABKFADiGfF4vDEW8w+421slhSSCTfrM7HO5nH82m83+hzgKViwMw4PcvV6K5kqqN7N6SfUaLfKrJKKJGFezU//1L5Y/Gw8HHKApAwPV9e42d4sC1/pNhX6zSGhCDKbT2anEgLG5l6s5zt3OlXQar3ElJyf5ilxOn+7v71+9pw9CAeAoCgCRJ1WJRKLZLFos2dHEUfSykr44MhL978DAwBPEsXsoAMRzcsnWtLe8x92vFJXSQDl6IphS0VDfcWOGKADkQxjGezX6QQ92PE2/J53OcLMKAGWMAsBNr4gUAJZ9F0gkEiebabHkrxHvZWLH+iV9eXg495n169c/RhwTIhaG4YGS5rrn6iWbGwSjBU6S5kiqIqKCMrJp9TPkz+Ta2pq5o0V+2lzgOnfTP/fnNazg/DudzrLCIvKpMpFILDCLPizZC4ij5EWSrYzFok+vW9e/and/mQLAURQAYm/E4/FpQaD3mumD7tqPRErOoJl9raJi5LKnnlr/KHHsGm44sMvuv+Dsg2IVua9KOpE0gLLytsYlK64nBgD5EIbhsVL0J5J4Tl9Op7PvIwYAKF8UAI6iALBsxRKJmiYza5d0JHFgNwy5+5fc7dOsCDj24vH4qWZ6z6atSudImkQqRSOVTmdriWHvX6/CMPETKaqXbLb4zK2YrE2ns4cQA/b+vi2ZdM8tknSupANIpOxEkq2U7CO7szUwBYCjKADEHt6DNAaBFkt+jmSs5lvyfL1k1wRBxZK+vr40eTzHuEoE2FWHfeamfzQsWXGSpLeZxL7bQBkw2Z8bphz6TZIAkLepukcLSWEXxl/TH0gBAACUoYowjL87DOM9ZrZMFP9h9002s/ODQA+EYfwiSZOJZOzEYvZCM50uaZ4o/is2/USQn9v30RVq7UBR/FdsskSAvTFt2pT9k8maa9xzD0taIor/ylUgeYsUrU4kaq6Ox+PTiQQYG/F4vDEMa24MAt0v6b0U/5XNdHuqpIujaOTBZDL+Ye47n/NFCdi9u9nGJSuuH4lVzjfz75EIUNJcgT5gHR0RUQDI11TCzN9EDM9tZMQpAAQAAOUkSCRqWsIwfr+kr0hiRR7sraSkpWEY704kEnwJCXg2ip9Q1swogsWeqa6u3jeRqLl6ZKTiAXf7kKQaUoGkKjM7b9OXUNpFgQqQN4lEoj6ZjF8fBFol2dmixqlcTXPXZ8IwvjqZjJ9OHNvHxYE9cthl33ysvnPlGW7+LkkpEgFK0g0Nly+nAAVP846O4L72s9keBnssDMMXbPpWPHYu3d/f300MAACgHCQSideHYfwvm1b8qycR5NlBZn5TGCZuSyQSc4kDeBrFTyhr7hTBYvfU1NTMCMP4lRUV9qCZnSdWGcb2hZIuD8P4XxOJxOuIA9iLiykMD04k4teZ+f3uOkdSjFQgaY67vptMxm8Nw5Avj26jggiwp0xyda782qqLmn5YEQRflHQGqQAlo9/dLiaG8nVf+9m1k3x4vis4xlyHSZrfO7j6yEnS1J725h+a2acpEMVuzx3M3+BODruQ1J8ksfoqAAAoafF4vCEIdJXkrycNjD0/0Uz3hWH8U+l09kpJw2SCMkfxE8odRbDY1TnrtCDQhZI+KKmG3b6xi+rN/EdhGP+OWWxxKpX6B5EAuz7uxmLe4R6910yVJILt3uG7TpWiE5PJxJJUKnO5pA2kQgEg8mD+FV2PSzqzu725ydy+KPk0UgGK3qXzli5/lBhK30Pnn5HcOKnycLPYYZGi+eZ2mORHyHP7SMHo2xnbvqfhOtXdT+1pbf5dYL6kfsnKW0kSuzYh9zNIYZeS+gsZAACAUjV9+vT48PCGj0o6X1IViWAcTZF0WRjGF5pF56RSA/cSCcr3/pziJ5Q9imDxXCqTycQH3P1jktgVB3vqTPeR1yaT8Y+lUtmrJeWIBNjpuPvf7v4xd6sjDuyCye7+8UQi/iaz4O3pdPqucg+EAkDkzbzOFV1rL1n46+Gcf0HSG0kEKFprq6ZMuZoYSkt36+lxDyY1BB7MN/fDPLD5ch22UTpYktxd9nSl3y5+i9H08kj2vZ625nskXdWwNrrRurq4gcV2jS7FHT2fJJ6bu91HCgAAoBQlEonXDw8PfVGyA0kDE+j57sEfwjD+8XQ6e4VYfRtlKAic4ieUNTOuAexYGFafKAVXufvhpIE8jDhT3XVlGCbeYpZ7Ryo1cA+ZAIy7yOe8TvOl6I4wjH8mnc5+XGW8GiAFgMirgy9b9oSks0ZXA9QXJE0nFaC4uPThOR1fHyKJ4nTXokWVYW22IWfRYSYbLfaT5kuaZ65AktxMyu82rEdJ+kbvwcHHu9uaP1u9Mbp29lVdg7QGtp6AR2z/u4tisdxfSQEAAJSSmpqaGbGYrpb8bLZNQ4GYJKkzDOOvHhmJ3jEwMPAEkaCcuBsrAIJrANhGPB6fFwT6X0knkwbGYOQ5yj24MwxrPiUpRh6AFI/HG4PAr5HstaSBvVQhqS0M46dsWvH/nnINAci7eZ0ruh648JxfRbENn3fZm0gEKJobkF/MW7Lyu+RQ+G7vOK5i/6FZB5qPzM9ZcJjJ58t1jJRujKSYuSS5xrne6mCTrl5fZZf0tLd8sWpo6Oo5V9+SorUgSe56AynskuG+voFuYgAAAKUiDGvOkuxL4kuiKEwnV1QE9yaTNQtSqf5fEwfKCKufodxRAIin1dXVJUZGNn7CTB+QVEkiGEOTJPs0MQCqDMOaVkkflWwycSCPDncP7kgkai7MZPo/X24nTwEgxszcK2/4t6SmTasBfl7SDFIBCtpIJD+fGApPd2vLrCCIDovc5pvrMEnzNagXuHJTXCYruGXVbB+5f3zjpEkf7m5fcJ3FfGnjpV2P0JLlKx6PT5f0cpLYtUte0kZiAAAAxe6AAzQlm41fJem9pIECN9PdbgvD+LnpdPZa4kA5cHeKn1Dm14BRBAtJUjwePzWXG/6imR1AGgAw9hKJxIvM/CuSjiANjJHJZvb/wjD+Gil4Vzqd7iuXE6cAEGNuXueKrvvaz/7ZpCjXKdMiEgEKk5t/4dDOLradnED3tZ9dO8mH55vFDosUzbfIjpHpSMlr3G10o6zi2i0rbm4f0oi9r6e9eYVH0aXzlnb10NLlx8xPlIxtDXZtNGYcBgAARa+2tubwTMaWm2k+aaBIVEn6cjKZOCKVypwvaYRIUMqCgOInlPs1QBFsuaupqZkRi+lqSWeTBgCMvZkzZ1YPDq7/lJl/SGyDjfFxphS9IJFILMhkMn8shxOmABDj4ojOm/okvbe3tfknbvqCpJmkAhQS+09uQ/QJchgfj3acNjU7NHW+pCPlOsKk57t0hDxXJwVyd5ms2Ir9dqZKrnPMgrN7Wpu/FbiW1l+x4i/0hDIaYcxOIoVdTosCQAAAUNQSicTCKIq+aqappIFi4+4fCMPEvFis4o3r1q3LkAhKt6+z/SnKfrynCLa856tnm/k1kqaTBgCMvWSy5rihofVfM9Mc0sA4O8jMf5VMxt+XSmW/UeonSwEgxlXD0hU3r774zF9ZVPVZ41s1QOFw/9j8q7rWEUT+rW5veZ5FOiKw6AjJjnDpyOygDtEW327x8okjJlNzZGrubmv+qZk+2ti54k/0krLwX0Swq8Ox3UcKAACgWOf7YRi/TPKLJDPiQBHPyl+Tyw3/oqam5uT+/v4nyQMleu9J8RPK/BoIKIItQ3V1Uw6IooovufsppAEA46IyDOOfdFerpIA4MEEmu+vriUTNUZlM/0Uq4RX/KQDEuDv08u/8R9Kbu9uaV5r0JUn7kgowof7a8FD0ZWLYO6s6mmqq1geHe2BHuPxIuR0h+fPlHsokF59/bcmkk8zlkl5HGqWtpqbmMEkHkMSuCYJgFSkAAIBiU1dXl8jlhlcwv0cJOSYWs1/X1U05ad26wYeJA6UmFmP7U5Q3VgAsP8lk/MxcTl+VVEcaADD24vF4QxDoRknHkgYKgZmdH4aJw93VnMlkSnJhJAoAMWHmLVnx3YfOP+NXG6smLZFpEYkAE/Ri58EF1rUiRxK7rru1ZVbMomNyFhxm8vlyHaNBzYtMgXzzen5OUM/BpZd6U1PMurrofyWsoiI4yZ3rYRdtSKVSfLgIAACKSnV19b653MiPJB1FGigx83K5it8kEon/ymQya4gDpYTiJ5S7ioqIItgyMWvWrKkDA9n/ddd7SQMAxkcYxt8l6RpJ1aSBArsTOtFMv62trX1dX1/fP0tujksDYyLNufqWlKT3drc3/8xcX5A0nVSA8WPybzUsXXYbSWxfd+vpcQ8mNQQezHfzY8ztMMmOlnxaJJNR1LS3Ej0HVcyXxJanpTyVdmf73123VlJEDAAAoGgm9InEXDP/ieQHkwZK1EFm+nkymXxlKpX6B3GgdO7VYxQAoqxFUQXXQBlIJquPXL8+e5Okw0gDAMZebW1tGEUj/yfpLNJAATs0lxu5o7a2+uS+voGS+oyaAkAUhHmdK7oeuPCcX+ViG74k2ZkkAoyLoSjnrcQwavOqfpEFx5j7YS7NlzTPXIEkmW/ewpeiv7yKRS8XBYClbJKkVxPDrjHTg6QAAACKRW1t9RFR5D+VNJM09phLSm3697S2/jJIjaRKSXHxHu5EN9Ns99xt1dXVrxoYGHicPFAKoojVz1Decrkc10Bps0Qica67L5E0mTgAYOzV1NQcFkUj35HUQBoo+ImCaVYUBb9OJmvOTKX6by+V8+LNIxSMuVfe8G9Jb+xpXfA2mV0tKUkqwNhx02fmXdn1ULmd912LFlWGYfr5uUAvNtnRko50+eEmnxrJJHdK/MZRYHq5pC+SRGlKJmte4s4S77sqivwBUgAAAMWgtrbm8Ciyn0maQRo7ue92PWrmf3O3v0m+NgjskVxO/47FYo+kUqknJA3tyuNMnz49PjIyUufu082iA6LIDjLz2ZLmSjpc0sHS6JfXMGbqKyqCn4RheFw6ne4jDhS7SZNy2Szrn6GM9ff3cwWUqLq6usTIyPD1Zv4G0gCA8RGGNWdJdp1Gv8AGFE3XdbcfJZPx5lQq+91SOCEKAFFwGpeu/Maqi5p+EguCa006jUSAMfHIhpGqy8vhRLdc2U/uL3elXxZJU0fX8xst9TP6w4Rx18tIoXRFkV5pXGC7gwJAAABQ8Ea/1W8/F8V/28pJ+pNkP5dyt7vH7s5kMuvy8cBPPfVUVlJW0j8k/Xnbvz/gAE3JZsP57v6SIIhe4m4v1WhRIPLrCCn6gaQTtIvFm0Dh3q9P7pfWEwTK1TDjeGmKx+MNudzwLWY6lDQAYFzEwjD+KUnt4uNWFKdJ7uoKw5qz0+n+bxX7yVAAiII0/4quxyWd3tPW/FZJ/09UiwN5ZbLWI6+8YaDUzmtNx5sT0eDGI9xiLzf5K+T+Isn32byyn5h9FqI5PR9p2r/x0q5HiKIExxrTK0lhdwQUAAIAgIIWhuEhUvRzSfuQhiRpo/T/2bvz8Dir8n3g93NmkmaZmXdSWgplEQpNUopsBQRbdgTUloKapgVRFKk/dxBoAnzVcYEmBQTcrRvI1jYq0IIgIJtFQUFELW1SaFFK2tI2mXdmss+c5/dHUmyhLVkms73357pyKZDMzLnPu5wz88w5eBDQu4wpeqy9vd3NxovYsAFdgPs8gOfR/z4aHMeZpJo6B5BzRHAmgFJ2V1qcGA4HfxaNxi9iFJTHtK2tjdufkpfx+C9AoVDowyJ6FwCHaYzOvQNAG4BtANpE+v9XFV2q2iUi3QCgqh3GGJ+qlohIQFWLAAkB8AGoANQPYF8AB3J8SpT3192xIvZuAGczDcpzRYDcEwoF/LFYYkk+N4QFgJTTqhqX/np1/dynjeovAZzGRIjSMEtT+UvloiX35Hs7noic6t+/a98qFZ2u0BlQTLNdySmAEdHtm/iy3C8vjsk+34kAfsMkCo4fkBMZw+CJCAsAiYiIKGeFQqGxA6uf7cM08BKgP1U1S9O1yl+6ua67DsCPAPxo3Lhxwd7e3nON0bmqOBtAEbtwBHNYxccdJ/gv140vYhqUpzoBWMZAHr6Sc/vfwiKhUOBaEf0mAMM4RsQCWNc/1pU1gP4HMK9Za/8Tj8f/A6AnnU8WDAbH+Xx2fxFzQCqlB4rI/oAcAujhACaDdQxEOctxnEmAfQiQSqZBBcIvIneGQiF/LBa7M28bwX6kXDelYclrGomc2dy5+ssiuB78RgjRSCdwX5bte9/mCQWk5ep5VbD2eECPB+R4dOEoC1uUXy2hXRHoCWABYCFOAI8CLFfwHbw+13X/wxiIiIgoR40B9D4AVR7P4QURfCsaja9AHs2rB7YQvgvAXeXl5fv4fPIZETMf0AN4aA/bwlAotCoWiz3IKCgPsfiJPE1EuAJggRg/fnygt7f7dgAfYRrDslYVz4jgL6ryj9LS0lWbN2/O2M5R8Xh8K4CtAP6xi/9cHA6XH6ZqjgVwoghOUEU1WORJlHWhUOg4wD4A7gxAhccnoreFw4HOaDTxu3xsAAsAKT8mZJGIBXBLS/0Fy1VTvwJwMlMhGsa5BLmtatGS53P9da6/7LxwX0nxsQozA9BpLYoTYO247a2gwqLAi0yhAK83oicpC3SHciZsBJBkDkRERJSLwuHAL1RxkocjWG8MvtLeHl+R7w3p6OjYBOA7ABY6TuBjgFwN4Ege5UNmRPRux3GOcV33VcZBeYbFT+RpqiyCLQTl5eX79PZ2PwBgGtMY/JhWRH4P2Mf7+vSZjo6OzTv+x1gslkuvtTca7fgH+osDfw68td3oaYA5A9Az0b9KIBFlUDAYnCmiSwCUMw0qUD5Vudtxyme6bsdj+fbiWQBIeaWy4e51Gomc1ty1+ksCNAIYw1SIBi2e9Pn/L9de1PPz5xeVj20/QtTMEME0KKb1AlOgyLeFCmlYZNuYspLfMofCo6onMYUhnAkiG5gCERER5aJQKPAFVbnQo81PqeJ7paVlX8vkaiiZapvrJpYCWFZREZxpLb4D4Age8UM7PQB7N4AZAPoYB+XRjJ3FT+RxXAEw3wWDwUpj8BCASUxjjyyAlQAeSKX0wUQi8XI+NyYWi7UB+O3AD4LBYJUxOA/A+QCOB1ePIBpVjhP4LIAfAvAxDSpwYwBzbygU+kAsFns2n144CwAp/6Zm/asB3rq2bt5jCr1dofx2D9Fgzh3Btw+7/s6N2XwNWlPje2WSv9rCTlPRaWJlGsQ9DmqK+3+B/eQ1CvurgyO3dTOJwrvkoP9DMBrsuaDyBlMgIiKiXBMKhY4T0Zs82vwNqvKxWCz2XCxW0LUyOrCy4YPhcPBia/FtEUzk0T9oxztO8JuuG7/Gi423FmtE9EVApgAo4eGQN/NPFj+l8TQA8Cv0F1BP5XmQN2cBi2Dze3x6goiuADCOaeyO/APQu3y+5JK2tq6C/dJxPB5vRv9iMY3hcPg9qqkLRXChKg7jMUCUXo4TvA7ANUxi2LoAvAloG2DaAGwF1AUAEe1VlY7+/y8BVS0GJKyqJSJSCuh4AAcDCDHGjAqI6INjxwZObmtLrMqXF80CQMpbkxvvWfVE5NQT9u3e5wpR/RaAYqZCtFuvSkfse5l+0jUL5k70iZ1mxUwDdNpaxXSFrQAAUeH3sUjVyM8YQyFOBp1JgB3PJIZyMlgWABIREVGujekqANsEb+6+8FxfX+r8zs7OjR5qs41G478cN25cUzLZfZ2qfAGA4ZkwKHXhcODRaDTxhNcaHovF7gFwDwBfKBSaZIx9r7U4TMQcDuhhAKrA92xzjgi3P03ntdN1458e+P++YDA42Rg9AjBHqOoRIngvgIMYU86dAyyCzVMVFcFZ1tolgJQxjXeIquJX1urPE4n4y55rfDT6HwDXA7g+FAodD+jnRDAXLMwmGvFtMxwO3KKKLzOKd6OdgLwM4F8iWAXoelXff1Op1H8TicSbI330YDC4l4hMErEHAzIJwHEiOFEV+zL7UTM2lZIHysvLT+jo6NicFycs+4wKwZor5x0hPns7gKOYBtEuLvYWsypvWPrAaD7HqkhNwN+FoxRm2sBWvjPQ/40Eot35Y1Xj0jMZQ+FxnMAcQJYyiSFcpwVXRqPxm5gEERFtFw4HH1DFh3mPxKei0fhtPCIyLxQK3i6CT3jwqGty3dgnAHh6pfJgMHiiMfglgGqeDYOywecrmtrW1hZjFDspCgQCh/p8mKqKKSLmMMBWAVINoJTxZO06t8x1Y7XMITMqKiowyuhJAACAAElEQVScZDJ5uDGYMnBN3V4cezD4GV22zoEfu27s88whvzhO8FIAPwIXt9mJKlaJ6A+Ki0vv3LJlC4tbdx7P7mUMLhHBZSyQyU3G2CPa2zv+xSRy94bpOKEfAvo5RvEOKQD/BuTPIng2ldJn4/H4K+hfHTqjwuHwe6y17zfGnqgqZw2MMym9ng0G46dv2ICuXH+hHCRRQai+8Z5/Pj9//vHBsbFrofp/4N7zRDt6LN3Ff09ETvXv37Vv1fatfI2a6dqlRwMwAnArXxrcmxOCnzKFgp0XHssMhsZa5QqARERElDOCweBMLxb/qeL+WCx2AYCk14+BeDz+lwkTJhzb3d15K4BLeFa8q/2tTV4P4IuMYid9iURiNYDVb/v3JhgMHioi00T0GADHADgW3NYqU1c7rgCYQe3t7S6AZwZ+3jJ27NiQtb1HAzIN0GNU5XgAk5lYRs4BFknlmXA4dJmqfhcsmn2LCP5srXw7Fov9AYCCC1vuajy7DcAiALc6TuBiQBYAmMRkiAbFOE7wp4B+hlG85T8A/iCifxAp+uPAGC/rBlZA/Q/6V2ZHRUXgcFXzMVX9KIDD2W1pcUI8HvoVEJuHHK+CYAEgFYxjFy/uAxBZu6D2YSu4DaxuJgKApIG5bKQPstNWvqrTtQvvt7BlQP9WvsqKPxq6TYk25z7GULi3ZUYwND6fsACQiIiIckI4HA5bm/Lgl3XksVgsVgsW/71l8+bNHQA+EwqF/ihif87t9vZMVT8XCoXuiMVizzGNd2Xj8XgLgBYMfFAFwOc4zlEierK1eqoITgHgMKpROVZZJZIDBlYMfWrgBwAwblzZxN5e/ykiegqAs8DdVUbrHGARbF6NTYNfVVXumvE/TwP229Fox2OMYtB6XDfxUwC/dJzAZwD5OoB9GAvRbvlCoeAvAHzS60GI4GVAmkTsb9rbE//Oh9c88Dr/DSASDAarjcEnAMwHsBcP7RGNIGvD4VBLNBr7ek4fs+woKkStkVll8a6yBvR/65bHOXnZmsp19nBpakoN9g9WXV4z1jfGf7yoPR7Q4wE5HsB4RklpHjUvrGpYcg2DKMzedZxgO/hBzRCZSa7rrmcORES0HbcA3j5s5BbAmT/2Qj9Q1S94rNmri4tLjue2abvnOM4xgL0fwP5MY4/+6brxYwH0MYoRK3Yc5xSR1LmqZjagBzCSdN1b5TvRaOxrTCL3VVSUH2GtzALwEUCOYSJpOwe+Go3GbmYS+TD+CF6F/hXcCPg3YK5wXfcRRjEyEyZMKO/q6rhCBHX8gkt2cQvgnOQLhwO3q8qFHs5gM4DbjNE786Xo791MnDixrKMjdpGIfFkVh/EwHzYVwXnRaHx5zo5z2UdUyNZcPWe6WLkNwKFMgzx7J4LWVTcu2+UkeftWvio6XaEzoJgGYArvDzTKrKbsodU3NrHYqQAFg8FKY9DMJIbGdeMlAHqYBBERbccCwH4sAMysiorA4dbKi/DWriHdxtj3tbd3/JNHwJ6Vl5fv4/ebBwBMYxp7tMB14zcwhrQyjlN+moh8SlU+AqCUkYxInevGWVCTd/fo8vemUuZTIvg4+GXtkbrUdeM/Zwy5zXGCdQAamAS2APp11038DECKcaRzzh0+yNrULSKYzTSyNMBjAWCuEccJ/gT9q8V5jQL6KIDFrptYjsL9QpeEQqGzRDQC4AQe8sMSBcyxruu+mpMdzP6hQrdmwblBkbKbBvao5zFPXtRtoHNSagTGThSYfaCYCOhRAI4EUMyIKMMeqmpc+iHGUJhCodAFInoXkxiSuOvGQ4yBiIh2xALAfiwAzCzHCTwCyAe81GZV/WIslvghe39wxo4dG0ql+lYAOJlp7JZrLQ6Nx+NbGcWozDnHAvZLIvJlAGOZyLCue1+IxRI/YhJ5qyQUClwiIlcBeA/jGNY5MC8WSyxhErk8Jg1eA+A6j8dgReTHIr5r29vbXR4Vozr3PlcVPwW3Bc44FgDm3LV3IYB6jzW7B8DdPp/e1NaWWOWhdovjBOYA0gDgIB79Q/ZSMBg/ccMGdOXcdZV9Q4WuetHyeFXjkvlGcA6gG5gIeVCJhSwX0ftF5cdQ/QaglwI4Diz+oyxQlZ8whQKeNYhyS5qh28YIiIiIKNtCodCHvFb8B+BpFsEMTVtbWywYjJ8D6B+Yxm45Ivp/jGF0xGKxtlgs8c2iojEHqerXgdz70CXXGWO43Xl+647FEj903fhkVf0CgHZGMuSzIM4Mcvgm6gSvBIv/mo3BKdFo7Iss/ht90Wh8ubU4HBAWBpOXr71XwVvFf10AbuzrSx3suvFPe6z4DwDUdRNLXTdeDaAOAO81Q3NkLBb8cU6Octk35BWTG5Y+4oceDsVipkFElLUx5YaNZZt+zxwKuo8PZwZDxgJAIiIiyjoR/brXBq6AuaL/f2koNmxAVzCYOB/A00xjd+eTfM5xnElMYvRs3bo1Hoslvg2YqSJ4gIkM6fLH4qfC0BeLJX6USmm1CO5gHINnjGURbI4Kh4MXA/DyFuUpAAtdN35Ue3t8JY+IzInH49tcNzZPVS4CwGsEeYrjBC8B0OiR5vYC8qOiotShrhu/qrOzc6PHu7/HdeOLkklbLYIHeTYMZc6PT4ZCoQtzbpzLriEvOaSxya1atPSzMPphAK1MhIgowxQ/Py3yZJJBFPSwdyozGPKJwQJAIiIiyirHcT4A4H2eGrUK7nJd93n2/vBs2IAun69oFgBmuGvFQOo7jGH0ua67PhqNzxKRywD0MZFBzEDVsgCwgCQSiTej0fgnRHAxuCLmIM8BH8+BHDSwDevPAIhHI3hDRE933fg1ALp5RGRHLBa7M5XS4wH8m2mQN94LCHwUwE89cu29DzBTXDf2ha1bO1knsoOOjo5N0Wh8FoDPgkXQgyaiPwyHw+/JpdfEAkDypKqFy37fI77DAbmTaRARZUzKL/orxlC4KioqHAD7M4khYwEgERERZZn12nalKcD3Nfb7yLS1tcWSSTsL0P8yjV2RuRUV5Ucwh8yIRmO3GoPTAUSZxp6p+vihXkGeA/HbRVLTAWxhGu8y6rFcATDXhMOBk1WxBIDfkyMGwYPW4qhoNMHVlXNAIpFYXVJSdgKA+5gGFbJQKHQ8IHcA8BV4U5tV5RzXjZ/vuu469vzupwmuG1+sKkcD+AvjGBTH2lROnUMsACTPOqLh7vaqxiUXqWAOgK1MhIho1K04pLGJHwwVsGQyydX/hkGEBYBERESUPY7jTANwspfarIoHo9Hoa+z9kevo6NhkjM4CVwnY5VBfVRYwhsxpb4+vVJWzwCLAPfL7uQJgoYpGO180xp4BFgHuUSqV4jmQQ8Lh8iNVZTmAUi8ejgDqotH4rHg8zs8pc8jmzZs7XDf+UXhnW1TymLFjSw8wRu8r8Gtvn6pGXDd+RCwW+wN7fXBisdgrrhs/WUR/wDQGMekXnOQ4wbpceT0sACTPq25Y2lTkM4eD3+QgIhpVKuanTKGwGQMWAA4vORYAEhERURbZ+d5rs/yI/Z4+7e0d/xTRTwJQpvG2ebBKreM4BzOJzInFYn8zBrPA7YB3f9W3fhbsFvY1+V+qMgtAL9PYtbKyMp4DOcJxnEmq5mEAjhdvWaoy23XjiziGyt1bpuvG6wH9HADLOKhQTJgwoTyV8t2vin0LeM7/DxF7XCyW+CbHRMOSjEYTX1LVLwJIMo53FQmHy4/MhRfCAkAiAJOuv2dzVePS8wdWA2xjIkRE6aXAf6teTT7KJAq8n1VZADgM1nIFQCIiIsqOcePGBQHM81izX43FYpybpFk0mvgdVwjYJb+IXsEYMqu9Pb5SBPVMYndzUK4AWOhisdhzqnIlk9j1KbB169YOxpB9Y8eODYnYFQD28WDz1/l8+v5YLPYgj4Tc57qJn6jKReCXC6gwmO7uzjsAObpQ7/MArnfd2PHRaMdL7O6RjikTPxz4YkmMaexRkar5OXJgK2AWABLtoLphaVPKV3Q4oBx0ExGlkaj+RJqaUkyiwPtZcBhTGBZ++YCIiIiyoq+vZx6AoMea3QSu4DEqotHEVYD+nUnsTFU/HQgE9mYSmT4e4zcDeJxJvFMsFuPqZ97o5+8DeIJJvEMHxwE5wWdt392qnnwv8a/W4n1tbYlVPAzy6pp6t/QvIsMiQMprjhP8DoDzC7R5bwLmHNeNX8tzNa3Xv4eN0emqaGUae3Ss4wQvz/aLYAEg0dscdv2dGysbl82C4gsDk0EiIhoGBToBfRzAN5J9yu1/PUGmMINhDMiN8sMXIiIiytb4bY7XWmwtHmC/j5oenw+fANDDKHZSagzmM4aMUxH7VQD8MuLbzlNwGzTv3OXFXs5z4O2ZgO/B5ADHCS5UxYc92PTHi4tLzojH41t5FOSfaDR+n6p+gtdVyt9rb6AWwNUF2ryn+/pSR7muy9X+R0F7e+LfqjgdwCamsccp6Dcdxzkkm6+ABYBEu5oEAlq1aOmPrMjhAjzJRIiIBjGsATqheEZUG0X0A2NKS/eqalx2RlXj0m9NvbmJK5wVvhIAExnDMM4dtfzCAREREWVcKBQaC+gpHmv21ng8/ix7f/QMrGbzLSaxMxG5BHwvPuOi0Y6XRHA3k9gJi588dg4AuoxJ/I8quAV29segFwG4yoPH3v2uG//wli1beB3OY7FYYgmAzwJQpkH5JBgMVgLyswJt3s9dN35mZ2fnRvb06InH480+n54J4E2msduZfxmQ3QVx/EP55ZeuvKh8jOk9z4hEVfRNn082+YpKthwcua2bnUmFaErDktc0EjmjpWv1ZQC+A6CUqRAR/W+8B2Clijzlk9TTG8Zs+dtpkSeTjMWzE8iDwA+0hsVawwJAIiIiyjhj9FzVob03mO9E8DC4Yseoc934IscJzgFwJNN4y0GhUOjsWCz2EKPI9HxLfiiiFzGJt7D4yXP3e/mRtZjHJLbjLgzZFAqFThDRxd5ruSyNxWIfB8D3zgtjrPuLcDh0oKp+nWlQPth/f5TG42gCECywpqVE5MpoNHYLezkz2toSqyoqyj9grXkcwF5MZJdjzTMcJ1Druoml2Xj2Qb/Jt7pu7vsNen8FoFKhgAKppCKV7EJzXW03oO0C06qiGwG0i9VWK7JRgHYDbU+Ktor1baxan9osTU18o43yZ1geiVgA3117Ve391shtgM5gKkTkUQkAz6rIY6KpZ5Kl+OvUSBO3jaH++6XIJH7xcZgDcj9XACQiIqLMU8W5XmuztfIcez4jksbgi9biaQDCOLbPmfRSACwAzLBYLPac4wT+DsgxTAMA0MUIvKW9Pb7ScYL/BnA40wBEhOdAluy1V+l+qZT+ThUlHhtzL4/FYheBxX8FJRqNRRwnMBkQFlhTzovHg98DcESBNatbBPOi0dh97OFMjy07/uk4zlmAfRpAORPZFXPDhAkTHti8eXPGP/t71wLA1y+vKe0qkm8o9EoAvt38Wgkg+yp03+2f+6rIW+/uWAiMCiCKlknmrYJBQNqhaIdBO4B27S8ibFfV9u2FgxbabuBvT6m2Vy1aslH4yTJlyeQblr76ROTU0/bt3ucKUf0mgDFMhYgKfV4A4LntBX/x9ornjl28uI+x0G5MYgTDY62f3z4nIiKiTDMAvLb9L1T17+z6zOgvOAncA8gFTOMts8rKyvbl1lTZOPdxnwhYAAhAhJ+veNRysACQssuXTPrvBrCvx+5Aj8ZiiTkA+J56AXau6yY+7TjBSgDTGAflqv5t1/UzBdasmIieF40mnmAPZ4frun93nMAnAWkCv/S3q1vEAT09XfUAvpbpZ95jAeDaBbUndAp+BaA6zc9bAsi+APaF4K2SPhn4hx0LBwGBhYUI0FJXi2bgHasNvlvhYKostZUrFFE6DGxt2fjyNbUPmhRuF/CNIyIqrEEzgL+qyGOK1GPVJVNfHFgFlWgwA1oWAA5TMpnkCoBERESUUeFw+XtVMdZjzU6VlZW9FI9z98tM8flS9amU/yOAt1b62QN/UZHv4wBuYBSZZh4G9FvMgbxKRP+gKtcwCcre2DP0DVU92VvnHZ4ZM6b8fNdN9PAIKFjdgKkB7N8BhBkH5ZpAIHCYiP64wJq1DTBnR6PuC+zh7HLdxG/D4dC3uR36rqnqlY7j/Mp13XUZHX/s6l+uj1xc0tPZ9S0RfBW7X/Uv38Qg6F9xENqmkHaBtAm03Yq0ido2EbRZ+NpNKtmWtEXtxpdoq160nO8K0i6titQU+7p8XxNoPYawnTYRUQ7ZLMDTCnnKQJ48tPGel7nSLg1XKBS8X8R728ilQ3FxSXDLli1cBZCIiHYSDgcfUMWHvZ6DCD4VjcZv4xGR7rFb6MsieqvHmr3adeOHsfczPk/4rgguZxJved5148cxhowzjhNsA+DwvoqXo9H4VB4SnlPkOME4uKsRRPBMNBqfwUMicxyn/AzAPIL+Fai94hVrcWI8Ht/KI8ATc/fzVPE7cBWsoQ/QjD2ivb3jX0xiVBQ7Tug5QI8qoDZFAXOG67pc2T+HhlaOE/wtgPMZxS7d67rxj2TyCd9RtNS8oOb43q6u20QwpcDCDUERAvCe7WsNAgoFIKoABKr96w2qMfCZFIBSNNfVAgOrDr59y2Kx2mpFNnLVQW8a6N+vNdfV/gbA7QCOZCpElOM2C/C0BZ5RsSurG5r+zoI/StsoX7gF8DDpli1bOhkDERERZXjsNt2DzV7Pns88a7XB55NLAQSYBgBgmuM4kzK9CgDBquJfImDRD3lVHyCrC6wIgPJAeXn5BMDcCW8V/7Vbi1ks/vOOaDR+n+MEfw7gUqZBuSIcDn1NtaDu+zFVOScWY/FfjtHi4pJP9PZ2/wXA4YzjHc4PBoMnxuPxv2TqCd8qAHx+/vyiwNjYV6H6bQBF7Iud7HLLYhXZ7XbF/i6D5rraXRYOvtuWxVVl1Zu45WL+qGpc+tL6yMUn9HV2RlTkShTOqplElP/jro0CWcmCP8qQAxjBsHQD4LiPiIiIMj1XeK8HG/06+z3zEonEm44T/DGAq5gGAEAAWwOgkVFkOHiRfwHKAkDy8Dmg/1LFUUyCMsj4/b47Ad3HQ23uA/Rj8XhiDbvfW3y+oitTqb6zALyHaVC2hUKh41S1voCa1G0MZra3x55j7+aeLVu2JCoqyi+01vwNQDETedtgyGAhgFMz9Xx+AFh7Ve0xKu7tqqzKTLNdFg7KwD/srniwpWt1X3NdbRuAdgBtELQBaBdFm6q2i0ibhbaLQZtJSVsKtt3nQ5u7rSJ67OLFfYw98w6O3NYNoL65ruYBwNwG4BCmQkRZ8BpEnhKrT8H4nqpsuJsrClBGTJgwoby7u9NhEsPCFaOJiIgo08YAmOy1RqvqBnZ9dvj9yVuTSf9XwA8Dth+Nc8ACwIwTwVrlVyLJw6zVV0W4OyVljuMErgb0TI+NNy+LxRKPs/e9p62tLeY45ZcA5lFwK2DKrhJj9DbVd+4Emq9DGEA/3t6e+BO7Nne1t3f803GCEQDXM413OCUUCn0wFos9lIkn8wOA9eFXYPFfLikCMGHg538rDgKASP+2xRDAAlYAgYG1QLDCRXNdbbcAXQrt3u3Kg0AXVLt3tfqgr8vdNvn7D/WwC4anqrFp5frLzju2d8yYBwG8n4kQ0Si/pbBRICsh8hhgHmPBH2VLV1fXRL6HPGwpRkBERESZVFFRXmVtwXwYMGjGCAsAs2Tbtq43QqHg3SK4mGkAgBzDbYAzz1ps4ryVPH3lEWxiCpQp4XDZ0aryDW+1Wu+JxRI/Yu97l+t2/NFxAksAmcc0KFscJ/htVRxWOOMXuSIajf+WPZsP18D4IscJngvgBKbxjnH49QD+gAzsBubXSMS0dK2uZOwFo0T7Vx4E3mXlQeCdqw/ashDW1NV2CtQFxAUkBlhXIFGFRBXWhZqYAVyFdQG4anwxRdL1oag9JV3upjHt7mmRJ5Ne7YCDb7kvuipSc7a/y9wL4EwekkSUlrcPgE6ovCRGX1CLZ6XIPll1XdMbTIZygTF2X1V+kjJMSUZAREREmWStVHu03VvY+1mdM9yiai5mEgNzfE2dA4BFApk9Bjdx3kpeJiKbuAomZUixqu9X6F/sxCtWFxeXzgcS7H2P8/tTVyWT/lkAAkyDMi0YDE4HcHnhjF30B9Fo/Bb2bN5IWYtPGqMvAlLGOHZ6B+AoxwnUuG5i6ajfh9Z2txwEoISh01sXU6Bs4KTcFwPrDfbPC7W/iFB04J/73zARtRAYKFIwWoyJXRPeVkSIN0XwulXdCMgGCFoh2qpq3vB3uBsLccXBqZGmxNovfXCmLQ99F4rP86gioiENA3Yo9hPICylNvbCpdMtqLxdXU26zFlwBcNiTWK4ASERERJkef5j91IMVACKpbvZ+9kSjHS85TvBZcDWA7Ufk2WABYIZpG3fkI4+fA1GeA5QJ4XDoWlU90kNN7vD5tGbLli2s/iNs29b1huMErwOwkGlQhhUbg58B8BXEqEWx0nUTX2W35pd4PN4SDge/poqbmMY73gO4FsAyvLV82+jwQ+0Uhk1pP3x3KiJEter2FQgHDmkVCBS2LITmutpuAK0A1kGwUay2WpGNELSK2o0iRa2TX+37jzQ15dUH5AOFjV9YU1f7iEB+AehePDKIaBf6AKyF4AVVvCCwL6RK8depkaZeRkP5whjZj98iH+5EVljYS0RERBkef+h+Xmy3taaLvZ9dIlisygLAgSzOADAGQA/TyIxUyvQYwxzIu6w1PSJ884ZGVzhcfqSqXu2x0fUVbW2JVex92s5147c4TvCLAPZjGpQpjhO8AkCh1P1sKi5O1aL/81PKM9Fo/HuhUPDTIpjKNHby3nA4OCsajS8fzSfxK7SKWVOWlQCYBGASFFAZKBVUADBQTaFlkuldU1e7SYANCmyE6BtQvCFqNirsBvH5Nnb3+V8/8sY7OnKtcdWNS+9vuarmP2rMi+xqIm/jyn5UsMe2Yh+mMOz0uAIgERERZXr8sa8XVwAyxnAFwCwrKwsu7eiI3wIgxDRQHg4HToxGE08yiszw+XzdyukXeZgxqW5VVsHSqCpWNbfDU1v/6iOum1jMrqe36VbV60Xkh4yCMiEcDr9HNfl/BTLPTxmDmq1bO1vZs3krCUgdoA8wireNGhT/B2B0CwABqR7lVQaJ0jJxEOBAAAf2FwcO3MBkYFtia1Hi6/3faoKKjSJotaIbAdMqqhtFtBXwr4u1BV4/dvHijFaMW2NO5OL6RJ7Dlf3IS8PWidxGZiSTISIiIqJMEk9+eSOV4hbA2dba2toZCgXvE8EnmAagKucAeJJJZIbf39vb1+djEORZyaT0+ngK0Cjy4Na/UZ8vdQn4ITvtQiyW+LnjBBcAeA/ToNFmbepWESkrhLaIyHXt7bGV7NV8vwbGHnScwCOAnMU0dnKc4zhnua77yKjNeyFazaEJFZD+1QQFkxSAqLw19lYVACkEK1y01NW2K7ARQOvbtx1W2HVifRuryqo3SSRi03OzwjyeZ0QF7R3FfkkW+5G3cJv74eMSFERERJRpZV5stN+vxez6XCD3AMoCwH6nMYLM6eyEFhUxByKi0TB2bGBqKuWtrX9FcFlbW9cG9j7tRq+I3KKqNzMKGk3BYHCmCGYXSHOejUZj32avFgafD19NpfAPAH6msSN7NYBRLABUVDNk8hoFKtD/c9jbtx0WGEAULV2re5rr5rQJTKuKboRFqxpZt301QVHfRpSa1ydH7ort6bleuXbuAamkTmfqRAWDxX5E7yAVzGCYYxLlCoBERESU8bFbiRcXKhExQfZ99sViscccJ7gFwHimgaP23x+lGzagi1EQEVE+D7NSKfkBPLX1r/wxGo3dzq6nPfH7i3/R19fzDQBhpkGjYf/9URqP43sF0pwOwHwc3DGpYLS1JVY5TujngP4/prGTU8Ph8qOi0Y5/jMq9B8BDALddINqFMYDsq9B9oQAEEP3faoIKC3RZNNfV7vFBUkku/UeUx1jsRzQ4LAAcJhGuEUxERESZpiVebHUqJSwAzA1JVTwogosZBYo7OoLHAvE/MQoiIspXoVBoLqCneqjJvdbqF9nz9G62bt0ad5zgTwHUMQ0aDbFY4EoRHFwIbRHB16NR91X2amERMQ2qqUvgqS8JvDtrzVcAfGo0HtvfnSr+fImv91gAhzFqIiLyMBb7EQ1fmBEMe2JrmAIRERFlWIk3m21D7PrcYAyWq7IAEACsxYkAWABIRER5ady4ccHe3p4bPdbsm+Lx+Br2Pg1y5PszwC4A+jeiI0qXQCCwt4hcVSDNeSEajd/KXi080Wj0P6FQ8B4RLki3IxHMCwQCdYlE4s10P7b/yBvv6FhbN2+OhX0OQDnjJiIiD2CxH1Eax6pgAeCwqcLHFIiIiCjDerzZbLM3uz43FBWVPNrb290Nzxaj7jQfeD+PCCIiyld9fT1fF8FEDzX5P+Xlwe+4bpydT4Piuu6rjhN8EsBpTIPSye/H/6miEFa5T4qkLgWQYq8WJmu10eeTjwNcDGMHY4zB/wPwrbRfGwBgcuM9q1rq51yqKnczayIiKjAs9iMaRePGjQv09fVw+e7h46SHiIiIMkw7vLgAhYjux77PDVu2bEk4TugZQM/wehYiOJFHBBER5aNAIHAYgK94ahStcnVra2sne5+GeNz8QkRZAEhp4zjOIar2s4UxH5KfRqOdL7JXC1cikXjZcYLLAZzHNHY69j8HoAFAWusV/Nv/T2XDsnua62rPAHAJ4yYiojy2WYGVAP4ElWc2lm36x2mRJ5OMhWh0WNsR3mFISUPHAkAiIiLKMEl4stUsAMyx/sBKVZzBJLD32LGlB7S1db3OKIiIKJ/4fPJ9AB76UrD+PRaLL2XP01CVlpbe193d0QlIGdOgNF2PvgOguAAa0p5KaYT96YEjVqVBRM9jEjvZx3ECs1w38dt0PuhOn9YWl5Z+sber6xgARzNvIiLKk2HDRoGshMhjovLMoY33vCyAMheiTA3cTQVTGBEWABIREVGmdXhz3CoT2fW51B+pP3Eo3C+ZLHovwAJAIiLKHxUVwVnW4nRvtdp3NQDL3qeh2rx5c4fjBB8C8FGmQSPlOM6xgK0thLaIyLfj8dhW9mrhi8Viz4XDwT+r4v1MY6ez4DMARq8A8ODIbd2v1NfMSal5HoDDwImIKMekADRDsRKCZ/ywTx7S2PRfxkKUxZMy5SsTYc3t8KmPGRAREVFmSdyj35niCoA5pKQk8Gx3d2cfPLVy0G7OSNEjAPyeRwUREeUJYy2u89jd+o+u6z7CrqfhUtXfiAgLACkdR9NCAFIADXk1Go39kP3pKb8AWAD4NmdVVFQc2N7enrZah3fs13ZoQ9Mra+prLxXFMuZNRERZ1ieQf0LtYyJ4pkv8K49ouLudsRDlDmNsiaowiGETLntCREREGaavebThXAEwhwyshPIigOM9PyMQPZxHBBER5YtQKHQBoO/11OhZcS17nkaiuLjkwb6+Hn75hUZ6/T0B0DMLYw6E7wDoZa96R1FRybLe3u5bAASZxluMaurTACLpekD/rv5ldcPSpub62h9A8UVmTkREGRQH8BxEnhHYlUUlZSsPjtzWzViIcpe1ppQrAA6fKvc9IyIiooxb69F2B4LB4Lh4PM4thnJnLLxShAWAqnIEjwYiIsoTxSL6TY/dqR+NxeLPsetpJLZu3RoPhYLPiuAkpkHDZYxeq4XxUcyr0Wj8Tvaot2zZsiXhOMFlAC5hGju+H6CXAPg2+ndBHDH/7v5DvM35aiAcmyaiJzJ2IiIapdvaRoGstMAzKnZldcnUFyUSscyFKK8mnWOU9X/DJsICQCIiIsr0+A3N1qOzLhE5BAALAHPnWFypiq8yCVQBKAZXwCAiohwXCoXmAzrJW+NHLGTPU3roI4CwAJCGJRwuP1IVHy6Qefm3ACTZq95jLX5hDAsA32Z/xyk/zXU7HkvHg+22APDYxYv7Xq2rmZuE7++A7sXciYgoDdZB8IxAVgLmscqGu9ft/J+bmBBR3g3YhSsAjgwLAImIiCijenvtWr/fs0OQSQC4gkvOHIupZ4uKfAwCKA4Gg5Pi8fgaRkFERLlq/Pjxgd7e7v/zWLP/Eo0mnmDvU3qYRwH9NnOg4VD1XQ2oFEBL/huNxu9mj3pTPB7/SzgcfFkVhzGNne4P8wCMbgEgABzS2PTflqtqL1aD5QCEwRMR0RAkBfKSFfsMICtVeh+fsvDebYyFqMCGpUZLuALgiPATTyIiIsqojo6OTY4T3AJgvPdabw/hEZA7Ojs7NzpOsB1AhdezEJFJAFgASEREOaunp+syEZngqZGjxfXseUqXWCz2d8cJdgEoZRo0FMFgsBLQjxXIvOd74Op/nqaqdwPyHSaxk48A+DyAnpE+kP/dfqHyhqUPrKmbc5NArmTuRES0BwkAz0LkGYFdWdqjzxxwc1MXYyEq+MF6Cb8nMiIsACQiIqIskCcAneO5VvcXWVFuWQPgRMYAHptERJSzxo0bF+zr67ncY81eG4/HH2TvUxr1qeIFEcxgFDQUxqAOhfE5QlzE/3P2qLf5fLgvlQILAHcWDoeD50Sj8ftH+kD+wfzSxtI3r57YPeF9UHBfeiIi2m4TBM8rZKVo6pl4e8Vzxy5e3MdYiLxFxIxRLgE4EgH0V1AyRCIiIsog+zggczzYcK4AmHtWgwWAAPRgZkBERLkqmeyZD2Csl9osIj8C36+jtB9XeBZgASANXllZ2b4APl4QMx7VX7a3t7vsVW9ra0uscpzgKwAOZRo7nh8yD0BmCgBPizyZXLvgwgusJP8OT24PQkREANZB8IxAVorKM4c23vOycAJMRFz+b8Tj8QkTJpRt3ry5g1EQERFRpqiaP4p4cjrHVdZyD7e9BSDCY5OIiHLWGFV4bfW/DsDcxq6nUZiJ/ZVvp9NQ+P1mPoDiQmiLtVjMHqUB9wHgDrQ7nyGzxo8fH9iyZUtiRNeMwf7i5EV3bVhTP2+uqH0E3KqMiKjQpQA0Q7ESgmd8fnni0OuWvM5YiIhG4YKbijsAWABIREREGROLxV5xnOBrAA7yWNMnAigB0M2jIDdYi9XGMAewOJWIiHKU4wQvArCfx5p9VzQajbL3Kd1SKazyscqCBq8IkPkF0pa/JBKJl9mlBADG4H5rWQC4Mynr7e06G8BvR/Io/qH8cnXDPY+vWTD3BEBnCOR4iL4PfHOCiKgQdAD6HMT8SWBX9pXos1MjTQnGQkSDwJVAR6inxxcC0MokiIiIKJNE5A5V/ZrHmm0CgcDBiURiNY+AnDkO13BKAcB7xbhERJQffACu8t74xP6IXU+jIZFIrHWcYB+AIqZB78ZxAuej/0tsheAX7FHarr09/hfHCb4JYG+mseP4Q2YjkwWAAFC9aMnzAJ7f/s+v1tU4SeC9Kr7pAp0BxfvAbYKJiHJdDMBfVeQx0dQzpjPxt8nff6iHsRARZWVQ7zAFIiIiyjzzCyB1LQBPrb8mIocAYAFgjojFYusdJ9iN/pUZvSw0ceLEstbW1k4eFURElCscJ/ARAJXearW+GI12vMTep1HSB+AVAFMYBQ1i9vr5AmlIR1HRmGVAnF1K26VU8XsRXMwodhiBKD6M/hq+5HAfwz/SF3FIY5MLYOXATyMAvHzVBZONpI6H0eNF5XgFjhCgjF1GRJQ16wH8CdCVorJy8qKla4RfsSeiNI1JGcEIp/EiIaZAREREmRaNRv/jOMFHAJzjsbEXdzPJLSkAGwAc6vUgOjo69gGwjocEERHl0MipznMtFvNr9juNJlW0iLAAkPasoqL8vdbilAK5sj64detWVv/RTozBk6osAHybseFw4KRoNPHEcB/APxqv6rAb7l4LYC2Au3b8969fXlPaUeSr8IlUJCVZYhSlBlJhIRUKVECkRIBSha0QSAWACihKoCiFoALQCkDGAhjDvici2qN1UDwGwTNW5OkpDUteYyRERLkqxQJAIiIiygoRLFb1VgGgMfYQ9nzOHYebVVkAaK2dABYAEhFRjgiHA6eoYprHmp3s60vdw96n0Z2P6H9VhUHQu8wNfJ8vnLUX7DL2KL2dqnkasAziHec+ZgPIrQLA3Tng5qYuAF0AWkf6WDsWE1okK0SkRBSl24sJRaRCYSvESgkMSgFUwKKiv5AQJYCWAjI+0xkQEY3GpFQgL1mxzwCyMtVj/zj15qY2xkJEGRqMqvD9ihHhFsBERESULdFo/H7HCfwdkGM8NPriCoA5RhWbmQLg82ECUyAioty5P5vPeW3jDxE83NHRwXEJjfK5Ja8zBdqTiRMnlnV0xC8skObEg8HE712X/Uo7c113veOEXgf0AKax41hEZgG4bLh/n7fFb+kqJlx/2XnhVHlJUG0qaFMIiJGQtSZsoEFAgoAGAQ0qpAKQIIwGoVomMI5CSwGUAOIAOgZAgIckEWVAFNBnAFkJ2JWmM/G3yd9/qIexEFGWcAvgkQ/puQIgERERZYsFdAEgj3lm8KrgCoC5Nx7exGkFoKosACQiopxQXl6+D6Dne/BefCd7nzJwpP0X4DfqafcSicR5IggWyFzvwQ0b0MVepV0eHaJPqeLjTGInk0Kh0KGxWOyV4fyx51e/O/iW+6IAoul6vFWRmgBcFBeNKQqL9JUkFaUCvyNqx6ggYCDlUB1jRcJibYkApRbGMYJiQIOqKIdgjEDCCi0BUAoghP5tj4M83ok8OyF4EDAPWaSeri6dukoiEa6JS0Q5wqb4hsUIE7SWKwASERFR1rhuxx8dJ/gQgA96pMkHAzDgXjM5Q9W+KVxWHKrYh0cDERHlAr9fLgFQ7LFmdxcXlz4IJHgA0KgSwSbld19oj8eIXlRAc5zfs0dpD8fH0wALAN95DbAfAMACwFwwNdK0fWQ4KttvvnTlReXiTxWXABWwqTEpY8vESgjGNwawQbFaJsaMsUCFqI4R1TKIhBQoFiCk0DJAxgikQqHFAMrRX1g4Bv2FhkSUe56oalw283//2MREiCiHBqKSZAojTpFjMCIiIsoqY3SBtXI6+t8fKnQlY8eWTmxr69rAns+VOQU2MQXAGOzFFIiIKAf4ALnUa41WxaNbtmxh9R9lYOyrbar88gvtWllZ2b4APlAgzbHW2j+wV2n3BwieMoY57OJOcRaAHw/nL1kAmGeOvPGODgAdANpH6zlWRWoCqe6iolLp86sWBfsHvqmgFev3W1OkRvu3OrYSsgY+WBQbI+UDQ2THQsxbxYcArEhYFAJBifSvaAgFKvp/HaUiUmKhIkB4+71NgDHa/21srohDBJzWXDf3mpRPlxf3Fr956I13vMlIiCh33rBAkt9YHHGGLAAkIiKirGpvT/w7HA7Vq+rNXmivtb5JAFgAmDPjYdnMOQVgLb8YRERE2VdREfyQtXiP19ptDO5l71NmjjXbZi0rXmjXiot981ThK5DmvJBIJPiZNu2KLxwOnATo+SyI3qXT0F/LN+QFWFgASO+wwyqGALAlF17T9pUPx/SpT4r63wyzSQ2oP1nkE58favsLFWGCCvUblSII+gsVFSErA4WKsOUAYGEcgRoYGQPVsIqERdUBEBbAeatAkShn6HW+FK5L+XrRXFfbB+BNABsh2ATFZhFtVStvCtBqfbrZr7q5rKS7dWJkRSezI6LRJUmAn9aN0DhGQERERNkWjcZuDYeDZ6hipgfGsIcAeJq9nhtSKWzmt/4BEQSZAhERZZu1+H8ebHYylcIK9j5lwpgxFe3JZJxB0C6p4hOFM78Rrv5Hb5kwYUJ5T0/H2dbKbBF8WJUr4O+BEwwGj4/H438e6h+yAJDywg4rHwLA1kw85/rLzgt3l5SEjapjrA2nxOeIaFhUwhZwRDSM/mLBsOxypUI1gJwGgGXLlG5FAPYDsN/2mhtVAaS/BEesIAVBvKsMzXW1CQCtgLwp0I0KbBLFZgCtEHlTrG5MiWzaWLbpzdMiT3IbTyIaMmuREt7pRmo/RkBEREQ5QFMpfEoEL4lgYgG1qw/AfwFdB8h6AOtE9G/s7pzSzggAQFkASEREWRUOhw9STZ3jwaavjMfjW3kEUCa0trZ2Ok7Qon8nPKK3VFSUH2EtjiyY2Y2mnmKvelsgENjb55NZqpjd3d15JiCl/DxxcET0TAAsACRKl4NvuS8KIDqSx2iur/01FBcxTcrmvRVAJaCV29fn+t9KutpfpgrFxK4JaK6r7QbQCsVGEbRa0Y2AaRXVjQbanhRtFevbWFVWvUkiEctoiah/EGqTrHUfsYmMgIiIiHJBPB7fGg6XzVT1PQ4gnEcvfQuAgQI/Xdf//3W9iH9dNBp9HUCKvZu7jDE9AN9mALgFMBERZZdq8kJAvFiU9DB7nzKsF0AJY6AdWeubU0C7LSVLSgJ/cd0OdqzHBIPBSmMwWwSzVXEiAMOiv2G8OyCYMZy/YwEg0SgyYq+waj4MYCzToDxQAmASBJMUgKhg+0DTQmBUAFG0dK3ubq6r3QYgPvDjKuDKW/+scRUTM6pRQOJWkQBsXI3G/CkTVZ8v50avfam+zi63Ytuxixf38TAgGvpEjhGM2AQAPvCDaSIiIsoB0Wjni8Fg8MPG4BEA5TnysroBrAewXkTXAWagwM+u8/lK12/dupV7aOWxoqK+nr4+n+dz4BbARESUA3ejC715D049wr6nDGMBIL2Dqp5XQIVSf9+8eTOr/7zBhEKh40T0PACzAUzpP54ZzAhHJyegv55vSJ/BsgCQaBRNXti0pbl+7neg+l2mQQWkBG/brnLn8ahAVAdKBxX9g1WBqMAaAJp79S1+YxCscNFcVxsDsA3AVqhuEyPbVNEG1W2AbBOj2wSyDSls7bO+bRrs2zY10pTgIUHenpSaThGO5Ed6GRo3rmzC1q2drYyCiIiIckE8Hv+z45SfB5gVyMwHU6qKjQDWAVhnzFtb9a4zJrl+27auVux2KQR+ppDvenv93ZxTAKrCAkAiIsoax3GOAewUDzb9zWi08x88AijTQ2BGQDsKhUKHiujUwpnbYCV7taCNCYVCp4vobBGcq6r7MpK0CzqOc6Trui8M5Y9YAEg02jc42IOEWyMS5c0Ye+DnYIj879sJA1+5UZX+T5wM4DMpoMugua4WArQrsBGKdhi0A2hXaLvAtKtquwDtItoq6tuYUm1PRENbuNogFQqfTxOWu3WNWF9f0UQALAAkIiKinOG6HY85TvlMwCxDenY2SGCgwE8V6wFZB2CdtXZ9IpFYj/5V/siDSktLe7q7OxkEtIwZEBFR1u5Cai/04hZ9IvooCmjPTcob3FWHdmKMzi6sFdPkefZqYXEcp0JVPySC2YCeA2iwf/zAbEZxjHISABYAEuXMhCkSMS1dqz/GJIgK/FwHKgBU4H+7JkMG/mH7eyb9xYMWIti+2mA3oO2AtEPRLoJWK7pxx6JBA2230HYDf3uXSOsRDXe3M23KNdaaDoAVgCMfyNuJTIGIiIhyjet2/DEUCp0gossBVL/Lr6cAvI7+Ir/1ANap9q/kZ61dl0gktjBR2pXNmzd3Ow4XvwPfqyciouzxGYN53vwQ33D7XyLKOmsxu5CKsK21/2Cv5r+KiooDU6nU7P6iP3uyCIqYSuao6nQAtwzlb/imAtEoaulccxoE/ECfiHalBJB9AewL6a8bFN25aNBCAAgsLMYo3lE0+PbVBgVoFbUbtxcNplTbq9anNktTU4px0yhO5DqMYQ5pGMhzvEBEREQ5KRaLra2oqDjB2uQSAMcDWAfIekDXAboe8K0DsM513f8C4ErnNBwp9K+C4vH3qpUfphARUVY4jnO6qvXo9n3mKR4BRJRNgUBgvAjeX0Dzms5EItHCns1P4XD5UdbKuSKYbW3yGOFGl9myBcBrQ/0jFgASjSZBLUMgojTaqWjw7asNKraXD/YXDYoALZPMW4WDAtOqohuxiy2Kt682KFLUKh3tb0z+/kM9jJsGo6go2ZFKcUg54iGDGBYAEhERUc5qb293AXyQSdDo0V5APD6xEE6siIgoO3dhj27/C+CNaDT6Hx4BRJRNfr/MUoWvgOY1L6H/S16UH3wVFcETrcVMAOeropJFf1mzTkQfUNUVrtvxJIaxXTzfVCAaJasiNcXowkeYBBHlgBJA9lXovrvbonj7aoOqKWhZCM11czZA8aWqRcvuY3y0J9aOSXAuN3Kquh9TICIiIiLvkm4AZR4Pge/VExFRNhSL4HyPjj+eYfcTUbap4sMF1qRV7NXcNmHChPLu7o5zRGS2Kj5sLcYylaxIieBZVSy3FvfH4/HmkT4g31QgGgXNC+aegS69EdC9mAYR5SfZH4J7W+pqm8TYL0xe2LSFmdCuRKPRDscJMoiR4wqARERERORllhHAAPCB37AiIqIMchznVMCGvNh2VbAAkIhyYQ5waoG1aS27NfeUl5dP8PvNuSKY3d3deQYgJarMJQujj05AHhHBimRSVyQSibR+/s4CQKI0WrOgpsqI+bZCa5gGERXEMASoUSunNNfVXlXVuPTXTIR2oQ9AAkCAUYwICwCJiIiIiMgPFgASEVEGiei5Xi0AEJGVPAKIKJscxzkasAW1+poIWtizOXN8TRLRWaqYCeipAPws+suKrSJ4SFVXFBeXPrRly5bEaD0RCwCJ0mD11efvJVr0dVH5vPK8IqKCI3sDuL25vrZGrXy2etGSVmZCb7MNLAAcqQMYARERERGRt02YMMG/efPmHiZBRESZoqozPdr0Ltd1/8kjgIiyy55WaC0yRrkCYBbjDwaD7zMGswHMBmw1C/6yQwQvq2K5qtwfi8X+ird2PUiM6vOyUIloBFZFaop9XeZzYvFNAA4TIaKCpphpRP/dUj+3vrJhyWIGQjscHNsAeQ9zGJGKYDA4Lh6Pb2UUREREREREREQ02sLh8iNV4dX39P4JIMmjgIiy7PQCa4+2tSVeZbdmVEkoFDpDRGcDmAVgH0aSFSkAK0Wwwlq533Vjr2TjRbAAkGiY1tbNmWW75BYAk5gGEXmFAhVQ/WnzgtrZKLLzq65reoOpEPpXAKSRqwTAAkAiIiIiIiIiIhp11sq5Il5tvbzII4CIsswPYEaBtWkLgG527ehyHKcCSJ0pIrNUMRvQEFPJBu0UkcdVsSKZtMs7Ojo25cJFhYiGoLm+9jiofNdCZzANIvIswYeQNP9uqZ9bx9UACTDbAK4jPlI+H6oA/JlJEBERERERERHRaBORWd5tvf0HjwAiyqaKiuAJ1iJYYHeWVvbsaB0vFQdamzxHBLNU7VmAFHN736zYIoKHVXVFSUn57zdv3tyRSy+OBYBEg/TKtXMPSKX0Oig+DqgwESIihFX1p811tef5/PLZQ69b8joj8SYRbONEY+RUUcUUiIiIiIiIiIhotJWVle0LYJpX269q/sGjgIiyKZXS06TglmHVjezZ9AmHy44G/LNVMdva5FH99y/mkgX/AmS5Ku6PxWLPY2BFFNdN5NwLZQEg0btYFakJ+Lt9V6aSWgeghIkQEb3DB1NJ/VdL/dwFkxuW/Ey4FJwXcQvg9GABIBERERERERERjbriYt/ZqjAebX4qEAj8KxaL8UAgoqwRkRMKsFlcAXBk/I5TfoqInKsqs1XxHn7kmhVJAE+LyHJVWe667vq8OYDYd0S79kTkVP9+3ft8Wrv0W4BOYCJERHvkqOpP19bVfuRV2PmHNDb9l5F4h6rdCHBx3JFP+FHJFIiIiIiIiIiIaLRZi9PEu2/nvdra2trJo4CIsuy4AmzTVnbr0IwfPz7Q29t1jojMVsWHAVRwlb+siAHysCqWi8jvXddtz8dGsACQaBda6uecqV3yXYW+l2kQEQ2eAmcnYf61pq7261WlU74vkYhlKoXPGHnDsqdHfv4oDh0YnyeZBhERERERERERjRYRPdWrX+hVRTOPACLKJsdxDgbs+AJsWjt7990Fg8FxPp98SBUze3u7PwRIOYv+suJNEfxBBE3t7fFHAPTke4NYAEi0g5YFtVNU9AZV+TDTICIatpAAt7R0r/7oK/U1nz60oekVRlLYrDVvAKwATINix3He47ruq4yCiIiIiIiIiIhGg+M4hwD2QK+2XwQtPAqIKLtSxxVmEba67Nvd3nsniegsQGtUcaKqGqaSlTHAy6pYYQweaG+PP4MC22OZBYBEAJqvmDdOi1JfU8UXAPExESKidIzzcVIKZuWqq2qOmnpD0yYGUriSyeQbfj/nKmk5bVSrALAAkIiIiIiIiIiIRok9zeMBsACQiLJMCnH7X6giyr59i3Ec5+j/Ff3Zw7jKX1akRPCsKlaoyu9cN7a2kBvLAkDytNcvryntGOP7MtReIyohJkJElHYTioy5TSORD3E74MLV0dGxxXGCfQCKmMYIZ4QGVQB+zySIiIiIiIiIiGg0iOipquLl9rMAkIiy7bjCbJaJe7xfS4LB4JnGYDaAWYCdwKK/rIgC+hCA+40peri9vd0zK1OyAJA8SSMR09K55sJOsdeL6v5MhHLyOAX+bnZYBUqBYkCPB2RfpkN5diyf3dy95ioAjUyjYFkArQDewyhGeL4oKpkCERERERERERGNFlU51cvt7+21zTwKiCiLDIBjCrFhIqker3VmKBQaawxmquq5AM4BUM5DPCteE9EVqnq/63Y8DaDPiyGwAJA8Z+2C2hNaulbfBMH7AWEglLuDJMUvKhct/dHb/31L/QWTVFMzoJiugnMEOJBpUe4fz/qdNVfPWVm9cNkzTKNA+1jwhioLAEdOq5gBERERERERERGNhmAwWAlgPw9H0NXZ2bmJRwIRZfk6HCzEtomIJ4quHMc5WETPVdXZgJ6kyrqrLFAAf1fV+43R5dFox0uMhAWA5CGv1NccatVcb4GPgZV/lMcqG+5eB2AdgF8DOxcEwuBssACHcnTMISm5Z/XV5x89ZeG92xhHAY60VV8D5P1MYsSOHBincGF4IiIiIiroOWI4HDjJWpkpglkAxjESIiKi0WcMTvJ4BK+D77sRURb5fHpYoW7DnkoVbgGg4zjHiOjs/qI/eyS39s2KHgBPALrc50utaGvr2sBIdsYCQCp4qy6vGesvlv9LqXwBQDETobwh+Mjrl9f86oCbm7r29GtvLwhcfXVtpU/lVKt6igCnApjIMClHjukDjC3+hQLnC99kKbzuFbNOOeNJh7GO4xzkuu56RkFEREREhcRxnAogdaaIzFLFTFVUCL+iS0RElGnHe7v58l8eAkSUTdbisEKdBxXYCoC+iorgidZiJoCPAHYyPwLLinZAHhPBAyK++9vb211GsnssAKSC9fz8+UWhsbFPqep3AIxnIpSHzugsNg+vWXDuzOpFy+OD/aMpC5e2AGgBsBjgCoGUc2avXTD3S1i05HuMotDoq8wgXVLTALAAkIiIiIjyXjAYrDIGswDMBOx0QPz80ISIiCirpnm7+fo6DwEiyiZjUF2ocyIRsfn8+seNGxfs6+s+B8B5gHzIWoR5xGbFOlXcb4yuiEYTfwKQZCSDwwJAKkgt9XPOVHVvUcVUpkF57mSRst+vWXDuh4ZSBLijPW4ZLDgLwEGMmTJJRW9suXruc5ULlzzHNAppYodX+UFe2tKcBuA3zIGIiIiI8tBbqySIYJYqDmMkREREOaMYwOFeDkCEKwASUXYV8hxJVfOu/igQCIz3+80HAa3p6+v5ACBjeJRm4/6MlwFpUpUVruu+wESGhwWAVFDWXlV7jBrcpIpTmQYV0HBphkjp4/+sv+CsIxrubh/po7EgkHJAkVq969W6mmmHNDZxqeYC4fOlXrXWxyDSc92fxgyIiIiIKF+8fWtfa1EBAPyCEBERUW4JhUJHAurpwgZVrgBIRFllAKks4GtsXtQfOY4zSURnAVqjihNV1fDQzLhuQFaK4AGfr+8327Z1vcFIRo4FgFQQmq+t2Q995utWcAkAVh9QITq2RO2jq68+/+wpC+/dls4HfntB4JoFcyfC6HSxOJMFgTSKDknB/AzAHEZRGLZu7dzoOIFOQMqYxkjJNAACgB+ZEhEREVFO2v6BiSpmAvZkQIpZ8EdERJTbROyx/W85eZeqbOSRQETZEg6HD1RNlRdq+3y+nC0ANI7jHN0/h9U5gJ3C+WtWtAHyRxE8YIz/vra2thgjSS8WAFJeWxWpCRR1ywKblCtEwIIDKuyJKXSa2OJHVl99/lnpLgLcUfWiJa0AmgZ+sPaq2kPUJydBcZJCZwCoZG9Qeo5p1LTUz51f2bBkMdMojC5VlfUimMooRmys4zgHua67nlEQERERUY7wh8OBk1TlwwDOBexkfmBCRESUb+QYZoBtjICIssVaO0UKuA47l1YA3H9/lHZ0BM+0FrMBzALs3pzDZsVaAPcbg+Xt7fE/A0gxktHDAkDKz5tHJGJaulZ/HF3aoJB9hZGQV6bnwDFii59edVXNGVNvaNqUieecfMPSVwG8CuA2AFh3zbwJqVTqeFVMV8gMCI4HUMTeoWFOBm5trqt9rqpx6UtMowCuUYLVAAsA0yN1DAAWABIRERFR1jiOU6Gq54jYWYCco9q/tS8RERHlKznW6xtOiMgWHgdElEWTC7lxqr6s1h8Fg8G9fD7MVMXseBxnASjnIZdxVgTPqmJ5KqXLE4nEakaSOSwApLyzpn7e6S1dq28CcJTXlyonzzrMb8wTaxbMPWNgtb6MmnT9PZsBrBj4wapITcDfhaNUfNNF9UwA0wGUsptokEoALFuz4NxjqxctjzOO/CYiq1T1Y0wiLWlOA/Bb5kBEREREmRQMBit9Pmzf2neGCPx8/42IiKgglADq+S/u+ny+rTwUiChbRPSAAm9ixuuPHMeZJKKzVXU2gBmq8PFIyzTtVJXHRLA8ldIViUTiTWbikROQaLjWLKipMmK+rWprmAYRqkX08eZra86ouq7pjWy+kKmRpgSAlQM/jU9ETvXv0z3+SFEzwwDTFXI6oHuxy2gPKiGltwL4NKPI8yG+2lX8cDBtaU5jBkRERESUAf5wODBDVWYCmAWgktsiERERFZ6KivJKaz2/k09PW1tbjEcDEWWP7F/IK7EaY8dkIkTHcY75X9GfPYJz2Kx4E8AKESwvKws91tra2slIso8FgJTzmq+YNw5F9ptQzFceszuKCuRVhR4Bbr/qVVWSNE+sXXDh6ZMX3bUhV17UaZEnkwBeGPi5VSMR05xoPlyMPRnADAhOAjCR3Uc7jdaBT7VcVfu7yhuWPsA08lcqhVU+frcqXWcFCwCJiIiIaFRMmDChvLe383RV1KhiJrf2JSIiKnzWyhSmAG7/S0RZpu8p7PZJcJQe2FdRETxRVWtUzfmAPYBFf1mxTkQfUNUVrtvxJIAkAESj3OAtV7CYinLW8/PnFwUq3M8DNgJFmInseO/EA/DZ/1d5XdMbzfW1r0HxHobi0WEiMFlNcmVL/QWnVzbcvS4nD9dIxAL458DPDwBgzYK5E2F0OqAzjJrpCj0GXDbM86zhstz5LpFIrHWcYC+AYqYxYnuFw+GDotHoa4yCiIiIiEZqx619u7s7Z4DvCxMREXmKKqqE78C380ggoixfjfcr5I9DrU1fAeDYsWNDqVTvOQDOA+SD1iLcnx0r/zIopYo/i2C5qtwfi8XWMpLcxjd6KCetrZszy8K9GcAhTGMnm1Xli9WNS37zv3ECuJyq58eKeI9F6olX6mvOOLSh6ZV8eMnVi5a0Amga+MErV160t/p63qeK6QqZAcFxYAGR51jre5kp5L0+VawVwVRGkY5zwp4I4DUmQURERETD4HMc5ygRnaWqMwFM4woJRERE3iWCamYALlFERFmdowFS0DukieiICgADgcB4v998ENCaVKrvA4CM4WGTcV0i+KMqViSTdnlHR8cmRpI/WABIOaW5vvY4ADdZxUlM4203TKApZXo/N2Xhvdve9p86mA4JcGBKzZ/WXl1zxuSFTXlXRHXojXe8CWDFwA9euvKi8hJf99EqvumieiaA6QBK2dMFrXvKa33rGEMhTPDkX4CyADA9k+VTAdzDJIiIiIhoMBzHqVDVc0TsLEDOAWwFi/6IiIhogOcLAFWVn6cRUdaMHVu6bypV8PU5oaHnEpiaSslsAOcBOFZVuV5tholgoypWqMryWCz2RwDdTCU/sQCQcsLq+rkHGdWFUNSC24C+3XpR89nKRfc8+vb/0BqZVRbvwl6MiAbsY615tPnqeWdULbxnTT435Mgb7+gAsHLgp3FVpKbY1yPHQc0Mgc6AYgbArcELa3SJFmlqSjGIQqAvApjLHNLiZEZARERERHviOM4kwJ4pglmq9iwRFPOtNSIiInobAWQyYxCuAEhEWdPX5z/QmAK/yooGBvFrxnGcowdWq5+TSmEKj46sWCeiD4hIU3t7/M8ALCPJfywApKx66cqLykv8fVdBtQ5ACRPZiULxs2SZvWJqZGniHf8xEjEtXS/fCeBgRkU7mAibemp1Xc2ZUxqb/lUojZoaaeoF8MzATyMAtNRfMAmwZ2p/QeBJAA5i9+cxK6sYQsF05guAYQzpUV1WVrZvZ2fnRkZBRERERAP84XBghqp8GMC5gK0EAK70R0RERLtTUVFxgLXJgNdzEOGOWkSUPT4fJhT6vM1a2eUKgPvvj9JEIniWKs4FMAuw4zmHzbgkgD+JyApVud91Xe7KVoBYAEhZ0V+8tvrjQO8iKCYwkXd4xVj7mck3ND21u19o6Vp9AyDnMyraxTR2bx/kqTUL5p5VvWjJ84XaysqGu9cBWDzwgzUL5k6E0emAzjBqpiv0GHDZg/y5LwCrmUJhMKb4eWuTyvMvPYqKzMkAljIJIiIiIu+aMGFCeW9v5+nWYiaA2cr30oiIiGgIUqnUFOE7dVDlCoBElM1rEMYWehuN+V8bQ6HQWBF7hojMisdxHoAgj4KMH3WdIvK4KlYkk/b+jo6OzcyksLEAkDKupX7OmS3dq28CcATTeIekqN4kXfFvTP7+Qz27+6U1C+ZeAuhXGRft9nYOVIjoo80Las6uWtT0Vy+0uXrRklYATQM/eOXKi/ZWX8/7VDFdITMgOA5AMY+OXJ0U2JeZQmFob293HSf4KoBDmUZazo5TwQJAIiIiIs8JhUKTjdFZqpjZ3d15Evg+LhEREQ2bPZTf1QUA5QqARJQ1Igh7YNW7SeFw8KuqmA3odEB8XOkv4zYAskIV98di8ScB9DAS7+AbR5QxLQtqp6joDQNblNA7vWTFXjKlsemFPf3S6ro5Zwv0J4yLBiEMMY+sXVB7zuRFS5/1WuMPvfGONwGsGPjp33Lc1320im+6qJ4JYDqAUh4muTLxUa4AWFg9+gKgLABMCz2FGRARERF5gs9xnKNEdJaqzgR0Gj8oISIionQQkQOZAgBILzMgomzxwgqAqjgMwE3s7Uzf5/GyKlYYgwfa2+PPAOC7CR7FAkAadc1XzBunRamvqeILgPiYyDt0Q6Qx3ha67tjFi/v29Itrr645zFpZwnOXhsCxgkdX18+dNaVhyZNeDuLIG+/oALBy4Kfxicip/n26xx8pamYYYLpCTgd0Lx4yWdHXOwavMIaCmua9AKCWOaRFdXl5+QQuzU5ERERUeN6+tS9gJ7Doj4iIiNJP9+cKgIAIkjwWiCiLV6GxrMuiNEmJ4FlVrLAW98bj8RZGQgCLiGgUvX55TWnHGN+XofYaUQkxkV3NufAMfOYzVQvvWfNuv7r26prx1prlAMIMjoYoYFQfWFM/79zqhnseZxz9Tos8mQTwwsDPrQDQUn/BJMCeqdAZUMwAcDCTyoi1UyNN/PZlIU1jRf+myjcV0xWn3y+nAFjGKIiIiIjyH7f2JSIiosyT/ZgBYK1NMQUiyqIwI6ARcAF5WBX3G2MeikajUUZCb8c3mCjtFJDmujkXdqpcL6oHMJFdiqloXVXjsp/KIEr9WyOzyuJdvgcAPYTR0TCVi9rlLALcs8qGu9cBWDzwgzVX1hwsPnMSIDMAnQFgClMalfvGc0yhsJSVhf7a0RHvBVDMNNLBsACQiIiIKH9xa18iIiLKNn5WB0BEWABIRFlkx3I1Vhoa/S8gDw9s7fsHAFxMhfaIBYCUVi1Xz31fi9XvCvB+3r926yE/7P87pKHpv4O6rAPS0lX2C0CPZ3Q0QuWi9vdr6+bUTG5ctoJxvLvqG5vWA1gP4NcAsDZyYUi7+46HxZkKmQHBcWCB00i8DKCxqnTKnYyisLS2tnY6TvBFAO9jGiMnoqcyBSIiIqL8EQ6Hw9YmzxHBLEDOAexYFv0RERFRlgiAiYwBALgFMBFl9XIcZgb0LhTQF1Wx3Bi7PBrtfJGR0FCwAJDS4tW6mgOTYr6jVj8Olq7vbobVDpH6yoYli4fyd80LahsFmMsEKU3GWMhv1iyYW1O9aMlyxjE0kyN3xQA8NvCDl668qLzE1320im+69G8bfDIAbnn+7tYAWFi5zt4lTU381mXhWgkWAKZnxqeYEggE9k4kEm8yDSIiIqLctOPWvqqpk0SE77sSERFR1gUCgXEASpgEIMICQCLK7rSREdAu9AL6pCru9/tTK9raul5nJDRcfCOKRuSf9RdUlNhkXRJyGRRjmMhuJhVAk0kVf/HQG+8Y0gf3a+rnfFoUVzFBSrNiEW1qrp87t6phyb2MY/iOvPGODvQXOa0E0PhE5FT/Pt3jjxQ1MwwwXYHTAIxjUm95TUQWvlGy6ZenRZ7kmy2Ffu8TPKOKK5hEeuI0xpwJ4G5GQURERJQzfOFwYIaqzAQwC9AqrvJHREREucbvt/ur+hgEAEA4WiOibCpiBDSgXUR/r4rlPl/xw21tbTFGQmkZ9zECGo7n588vCoVjn1O1X1eRvZjIbr2hKp+vGsZKay31c85UlZ8wQholxVBdumbB3AuqFy35DeNIj4GithcGfm7VSMSs7l19mEnhJAAzBHoyIPt7MJr1ovj2G2Wb72Dhn3ckk7rS5xMFVwZOCxE7EywAJCIiIsqqCRMmlPf2dp5uLWYCmK2KCUyFiIiIcpvvAGbQT1kJSUTZxcWUvO0/AP5gDB5ob4//AUAvI6F0YwEgDVl/YZp7iwJTmcbu5xEQ3JnssZdNvbmpbcgZL6idooom8JsANLqKRHTJmrraL1U3Lv0x40g/iUQsgH8P/PwYANYsmDsRRqcDOsOoma7QY1CoBVKK11Vwk68z9pPJ33+oh0eEtyQSiS2OE2wBUMU00nJFOWdg7M4iWiIiIqIMCoVChxqDWao6s7u782Tw/VQiIiLKI/zCwk44jiMiXoMoY7dgAM8Der8xury9veNfjIR4kaGcsfaq2mPU4CZVnMo09mi9iM6vbFj22HD+uPmKeeNU7HIAYUZJGeAT4EctC+a8p3LRsnrGMfqqFy1pBdA08IO1kQtD2t13PCzOVMgMCI5F3n8LSN9UMd8dU1py68GR27rZ6572FFgAmC4V4XBgejSaeIpREBEREY3uPDkcDkzfYWvfam7tS0RERHmsghH0U1V+Lk5E2VTMCApeN4DHAV1eVGRXbN3a2cpIKJM40KF3tWbB3IkC/YYVXAKAy2PvnoXi58kye8XUSFNiOA+wPnJxSU9n93IBDmWclNGJr0hdc13thNbSzZdyi9bMmhy5KwbgsYEftEZmlcW7So5R8U0X6AwoTgLg5ElztqrIjeU99nsH3Lyki71LgD4GyHzmkKY0+z+EZgEgERERUZqFw+GwavJsEcxSlQ+qYixTyYjXVPU+Y3CvqvwOwF6MhIiIKP1DHUbQzxjDz8WJKJtYAFiYtqniQRFdXlxc+octW7YkGAllCwc6tFutkVllse7yL4nqtQCCTGT3RPFv+OQzlQuXPDfcx1BAmru6fiGCE5koZcnF+3XvPfb1y2vmHnBzE4u3smRiZEUngJUDP41aU+N7ZZK/WkWnQ/VMBU4FMD7HroLbIPiBKfF9d6CgkQgAYK08bgwsAMM00mIWgKsYAxEREdHIOY5zMGA/0F/0lzoLkGKu9JcR60T0ARFpam+PP4P+bZHgOEGmT0RENDr4xYb/4SInRJRNLAAsHOtFdIWqrnDdjqcA9PX/a9b+UXaxAJDeQSMR09z98sXxLvm2QCcykT3qher1fWW6cGqkqXckD9RSP/c6Ub0g1xsskBdUcBeA1yxS/zVqngQQ4KFQIOe/yrmdxeaRf9ZfcO4RDXe3M5EcOOeamlIAVg38LFZA1i6orVbRGRA5aWCFwIOy9PLaALkpWZr63nBXPqXCFo/HtzlO8EUA05hGWlSFQqHJsVhsLaMgIiIiGjKf4zhHiegsVZ0J2Gn982AGM+rzWsHLgDQlk3ZpIpFYzUSIiIgyeieuGKi39zxVHcMUiCiLWJuTvyyAF0XkAVVZ4bruC4yEeJGhnLemft7pLV2rbxLIUUzjXT2X8uEzh12/7N8jz33Op6F6dR5MFLeJ+s6rbLxrA9C/amFLXW0XWABYaNPgGSU29fTaBRd+cPKi/r6mHDoLAcWipasBrAbwMwBovrZmP0nJyaqYDsjJAKZidFdcc6F6sykrupkr/tEgPAoWAKaNMZgJ4GYmQURERPTuAoHA3saYs0TsBwE5B7BjWfCXEUlAnlS19xYVpe7ftq3rDUZCRESULdYBhDEAAIS7nRFRtvjAnZLyTZcqHhPB8mTSrujo6NjMSCjXsQCQAACrr66t9Fl8R9XWMI1BXOxFvln1aurGgZW5RqSlbs7JqvLjvGi52s9MXrTkrYKwtVfVHImc24qU0tLVgsMVyefWXDnvg9U33vNPJpLbqq5regPAPQM/WLPg3KAxJe9TmBlQnQ5gBoCSNDxVQlR/2G38jUc0coVIGiz7R8DUM4c0XZ9VWQBIREREtHs+x3GOAuyZ/Vv74kRADT/0zohuETymihXJpL2fH44QERHlCuEWwNuTEC1nCkSUJSn0L8fKyWlu2yaC36vqiqKikoe3bt0aZySUT1gA6HGrLq8ZW1QkC9TicuW+84OYHeBPau2l1Y1Nzel4uOar51XD2vuQD9kLflDVuOy+nf6dz3yAK8cXtInGZ59srqs5t6qxaSXjyB/Vi5bHATw28IPn588vKh/bfoSomWGA6QqcAWAob/x0qOgvio3v+knX38MPcWhIXLdjpeMEuwCUMo20OKmiosJpb293GQURERERUF5evk9RkTlHVc4B9AOAHQtwa98MiYrgAVW9r7w89FBra2snIyEiIso5YUbQT5W7WRFRVvUC4FbkuacZwP3WYnk8Hn8W/cWaABJMhvIOCwA96vn584sCFe7nBYgoB/+D4SrwjaqSKd+XSMSm4wFXX33+XrB2hQIVud54Ufy7tNcueOdkST/ALyoU+IQYqADMoy31cz5e2bDst0wkPx27eHEfgBcGfm7VmhrfK5P81So6XaEzAJwMxXt28ac9UNye8hdFDrv+zo1MkoapWwR/VMVMRpEWRdb2nQ1gGaMgIiIij/JVVARPtBYfAvQcQI5ShYDfUMwIEWxUxXLA/M513ScA9AGA6/LDESIiohwVZgTbKQsAiSib+sACwFyQUsVfRLB8oOivmZFQoWABoNeGtoA019d+TNRtADCJibw7EV2uPv18df8Wm2mxPnJxSW9X13IAh+bBMdNpfLb2gEVNXbtowwweIZ5QoipL1tTP+Wx1w7JfMo4CuK71b1++auBnMQC8Ul9zqIVvhlU9WYATADyW8hUtZOEfpeVeolgBsAAwfWMTmQkWABIREZG3FIdCodNF9CMAZluLvQdGRkwmM14FcK+1uHdgRQTLSIiIiPJGiBFsJywAJKJs6mME2aKdgDwiguXJpD6QSCS2MBMqRCwA9JA1C+Ye2yJ6kyhOZhqDmAYA7RCpr2xYujittxdA1nZ3/RzA+/MjB71s8sKml98xQununAEIt3P00P1CVH7eXD/3wKqGJRHGUXgObWh6BcArAG5jGpT2WW1fakVRke8n4Ce06RlLKGah/5uCPUyDiIiICtX++6O0oyN4pipq+sc/GmYqmSOCl1Wxwhg80N4efwZcYpGIiChfFTOCt1QwAiLKoiQjyKitInhIVVcUF5c+tGXLFi5bTwWPBYAesHbBhftbJL8G0c8AMEzk3QnQJMZ+YfLCprRXfzfX135bFBfmQw4K/La6cdnPdv0f5QM8Ujx4aqh+o7luzrjK0sO+nK7tsImo8HV2dm50nODzAI5jGmkRDoeD50Sj8fsZBRERERWSCRMmlPf2dp6uipp4HOcBCDKVjLEAXhSRB1IpvYfbIBERERUEP/iF3B2NYwRElC2q6BNekUfbOhF9QESa2tvjf8Zbq9ez9o+8M/CjAvXSlReVl/j7rrKaXACAK7UN7ta7EYrPVy5adt9oPHpzXe1cKK7JjyjweqrPzt/9fwYLAD1LvtDS9fLE9ZGLLzg4cls38yCiwU1udYWIsAAwbXnKPAAsACQiIqK8N378+EBPT8/5Ijqvu7vzDHCVmkzqBfQJAPcmk3p/R0fHJkZCRERUOPbfH0XxOHPYQQX6F0rh4gZElHEi6GUKaZcCsFIEy1XN/a7rvspIyMtYAFiAnoic6t+va8Ilip5vQWVvJjIoKsBPpLSofnLkrthoPMHqurnvB/R25Me3rZJWZO7Um5vadvUf115dM95aHMnDxtPD1PN7uzofXBu58PzROmeIqLAYo8tV5VtMIl3srPHjxwe4bD0RERHlKX8oFPqAiP14b2/XeSJSxkgypgPAw6pyrzHmwWg0GmUkREREBXrT76go5o6TO/EFg8Gx8Xh8K6MgoixgAWB6JAA8LCIrUil9MB6Pb2MkRP1YAFhgWurnnKndcpMCR3BV70Fbp2IurWq45/HReoJVl9eMNaJ3Q/PjW+yiiExZtOTPu/vv1pozwO2kCXK6diafab625pyq65reYB5EtCfRaMdLjhNcD+BgppGWa3BZT0/PeQDuZBZERESUL4LBYKUx+AyATwA6ge9dZUybKlYYg3sDgfgjGzagi5EQEREVvmQyWWT4Sc7bjQPAAkAiygauyTpMqmgVwQpVuT8Wiz0OoIepEL0TCwALRPPV86qh9gZVzGQag5/7qOiPepJjrjnyxjs6Ru2GFImYtV2r71bFe/LiBiryVOW6VMOefkcgH1AojyCCCg5H0qxcs6DmnOpFTc1MhIjeRROABYwhPUR0HlgASERERLmvJBQKfVREPwPgFLDqL1PeEJH7VFP3um7HUxhY/ofr/REREXnHmDGp4r4+H4PYgd+P8QDWMAkiyjyJgp+vD8U/RWS5tVgei8WeB8MjevdxDiPIb6uvPn8v0aKvw9rPsz+H5F8QXFLdsOxvo/1ELV2rvwHg7LwYdgDtfk19QpqaUnv6PQs9k+/W0w4OEjF/Xnt1zczJC5v+wjiIaPfMMsCyADB9PhAMBsdx2xIiSjfHCV4PyHGZfE5V3B+LxX7A9IkKx157le6XTPq/AOBSQMcxkYxoAXCvqvwuFov9DfyAhIiIyNOSyeIiIMUgdpBK6X5MgYiyQ6PMYM+3LQBPi8hyVVnuuu56RkI0NCwYy1OrIjXFvi7zObH4JgCHiQxan6h+t69Mvz410tQ72k/WvGDuGYBemy+jDgt8qrKx6b97+qU1C2qqBDiQhxK9zVhrzaPNdbU1VY1LH2IcRLQrruu+4DjBtQAmM420KDJGawD8mFEQUbqEQqGxgH4V0DGZfF4RPM70iQqD4zjTROxXkknMBVDEREb9+vkyIE2qssJ13ReYCBEREW1nrS0WrubwtrGTHMAUiChLoozg7bRTRB5XxYpUSu9LJBJvMhOi4WMBYL5dAgFprq/9mHShEcDBTGQI2an8xedLfWbywqaXM/F8axdcuL+V5D0A8mJ9dQG+V9W49P53/z3zAR5NtBvlAJavqZ/z2eqGZb9kHES0G00ArmEMaRvfzAMLAIkovS4AMCbTT6oqGxg9UX5znPIzAPM1wJ6iXHduNKUArBSR+wBzbzQa/Q8jISIiol2x1vp9PlYA7khEWQBIRFmhCpdF2QAgrwNYAcj9rus+CaCXmRClBwsA8+WGAEjLgrkfbxF8UVSPZyJD0qHAtVVl1d+XSMRm4gmfnz+/KIXYMgHG50lG/5DOWN3g7sl6OsDRCe3+viIqP2+uqw1XNS79LuMgonfcRsQuUzUsAExbnpgRDocPikajrzENIkrPdUUvzsbzGmNZwEKUpyoqgjOsxbcAnMY0Rk0PIH8SwQO9vcllnZ2dGxkJERERvfs8yyQBfjNjR6qyP1MgoixdgaJe/YxdBC+rYoUxeKC9PfYMeHMiGhUsAMwDzdfW7NecNL8U6FlMY8g30kc1pZ+tvrEpo3vEhyrcRQqcmCchdcCYeZO//1DPIG/RU3PgNacAWHAroZwdxwG4aU3dnH2rGpctEA7iiGgH0WjHS44TXAOgmmmk55qrmpoDYBGjIKKRqqgof6+1mJaVmZv6uAIgUd5dM4IzrMUia/Pm/Y98EwfkIcD+zucrfqitrS3GSIiIiGgojDF9qikGsTOuAEhE2boqRz36kelN0Wj8SvY/0ehjAWCOW1NfW4Ok/FigezGNIXFFZMHkhqU/y3Tx0Zq62tkKfCVfghLFlyoX3rNmML/7/Pz5RYCb7a2nnwBwuQpqRHEtD/UcPrYgV7bUzd3n+fbQp49dvLiPiRDRDu4AcB1jSNsVdx5YAEhEaZBKmYuztBWJdV33DfYAUX4IBAJTjJGF1mI200i7LQCWq8q9sVjsjwC6GQkRERENlzE9yVSKHwW/zUGMgIiyJOrFRovwS4NEGRv7MYLctPrq8/dqrpu7VBTLwOK/ofpdylc0pbJhyeJMF/+tvrq2UoBfI3/W711SuWjprwb7y+V7uQcje6vudShwXlXj0tOrGpe+1JMsXgjF6zzcc51+PFThrlgVqQkwCyLazudL3oH+lVwpPdfao8LhsqOZAxGNUJEILszSc78JoIddQJTbKioqnHA49AOfT/4pwuK/NI7l/quqt4roqa4b39d145+JxWIPgsV/RERENEI9PYZfzH+ncaFQaCxjIKJME5HNnpzxKt7H6y5RZrAAMAetra89y9jilwCdwzSGZDOAT1Y1Lv3oYdffuTHTT74+cnGJsVgCIJQnea33w/6/ofyB32pVFl/vK9WNS+/f/g9H3nhHBwQLeNjnwcAOONvfZZ545cqL9mYaRAQAbW1drwP6RyaRTv5LmAERjUQ4HPwggAlZevr/sgeIcltFRXCWtcl/q+oXwB1F0mGdiH7PGJzkuomDYrHEZdFo4ikA3KOPiIiI0sbn87EAcNcOZQRElPlrcsqru1/4AJzNI4Bo9LEAMIesitQEmhfU/tQqHgawHxMZApHbk732sKrGpb/O1kvo7er6MYB8WX2nT4zMO6SxyR3KH1lBZbZesPYXeO6ksnHpUhV5qjAPan1TIC8I5AUI/lMADTo25ev905oraw4GEREAVfMrppDOPPXC/fdHKZMgouFfR3BxFp9+A3uAKDeFw+GDHCfwiLVYDmB/JjL8yyyAvwK42lpUu278kGg08ZX29vhKZHj3CiIiIvIOv9+fZAq7VMkIiCjTUilfq1fbbox+iEcAUQbONUaQG9YuqD2hqMv8HYL5yJ/tY3NBqwLnVTUsuXjqzU1t2XoRzfW1nwGy+oHZUH29cuGS54b8V1ayNikSkXes6iiA+lS+AKDgJrECubuyccmxlY1LjjUdsSoI7iiESbX4zJ/X1s/lNpVEhFAodh+AKJNIm3AiEaphDEQ0HOXl5RMAfDhbz6+qr7MXiHJwcBEOfUI19RIgH2Aaw5IE8LiqfMnnSx7ouvH3uW68IR6PNzMaIiIiyoSysjauALgLxmAyUyCiTHNdtx3QTi+2XRXnoH8lQCIazTEOI8iu5+fPL2qunxuxgpUKDjiHcp+AYrFqV/WO28Jmw5or5x2hilvzJTgBnqxcZ28YVuhGsrYFsKhu3tW/n9x4zypAf1rIB/vk7z/UU9mw9JMqUg/A5nlz9rGqT6+trz2LlzEib9uwAV0AljKJ9LFWP8MUiGg4/H5zCYDibD2/McICQKIcEgqFxjpOaJmq3g4gxESGpEsVy0XwKWuxj+vGz4jFYj9oa+viSqdERESUcRs2oAf5/5lC2qmiiikQUXaIV7cBHhcKhY5j/xONLhYAZtHL19QeHqxwn4PqN8CK56F4VVXPqFq09LPVi5bHs/lC1iw4Nyg+u0yAsjzJbotVuVCamlLDGpKozaktgLfrEf/XAGwt6OEgoNUNSxpVpVaBfP92SMAqVjTXz63l5YzI80PRnzODNN4rBDMCgcAUJkFEw3hf4NJsvgCuAEiUOxzHmSZiXwSUKwsPngvo3YDWlJSUjY/F4rOj0fht8Xh8G6MhIiKiLLMAEoxhZyL6XqZARFni1QJAiOh57H6i0cUCwCzQmhpfc11tvS+FFwBwK8zBSwJ6fXFp6eHVi5Y9kfV+BESk5HYgb74ppDB6cfWiJa3D+eM1C84NArJP1l687r4A8IiGu9tV9GsFNStXKdnVv69etOQ3ovY0QDfmeROLoXp3c93cL/DSRuRdrus+D+BvTCJ9c2ifz3yRMRDRUIRCoXMAHJTVsa/lCoBEOXI9uAiwfwLkQKbxrjYDWKwqH3Td+N6um7jQdRO/2bx5cwejISIiotwiLjPYmSoq998fpUyCiLJwBWr1cONrAAiPAaLRwwLADFtzZc3BLZPM4wAWIotbLOXf/AT/VJUTqxqXXXtw5LbuXHhJa+vmXgHI+XmU4s1VC5f9ftjDETOmMqs3ZWP2WPBWVXLYYgDPF84xr59YfXXtLldcrFrU9Ff49TiBvJD/9yD9QcuCOQ3KAR+Rd2/xgh8xhbS+gfCJcDgcZg5ENITrxv/L9isoLk7+l/1AlFW+UChws4j+GuAHoXvQIYI7VeUc143v57rxz8ZisYcB9DIaIiIiytkZn2qMKbyDPx53pjIGIso8z24BDACTHMeZxmOAaPSwADCDmutqPyE+808AJzONQeuGyDeTJfa46kVLcqa4a+2C2hMUel3eTPCAv5vO2DUjeQyf+rK60qFPkpv2OFyKRKyFfKW/uQUw/APKjMXtWlOzy+3Bq65reqMrVXQKgPvyva0qUtdSP/dXz8+fX8RLHpH3BALxpQC4PVoaIwVSn2YMRDQYY8eWHiCCD2X5ZSS3bevaxN4gypoxjhNcKiKXMYrdztD/AeAzJSVlE6LR+EWxWOwPAFLMhYiIiPKBMeAKgLtkj2QGRJR5+qrHr71zeAwQjeK4jxGMvnXXzJuwpq52OYDbAQSYyKD9WRTHVDUsiUyNNOXMt6lfufKiva3gN8ifFRw7oPaCyd9/qGdEwxFBZTYbkURy87v9zpTGJX8Wwd0FdA6c0HKwLNjdfzzyxjs6KhuXfgQi38z/8a5+MlDh/rY1MquMlz4ib9mwAV0AbmMS6byk4gsc5xPRYFhbdCkAX5ZfxhtgIQ1RVlRUVDiOE3wYwEeZxjsvkQB+YwxOdt3Y0a4b/wW39yUiIqJ8pAquALgLInoEUyCizF970OLxCLgNMNEo4geDo2xNfW1NX0pXCTCLaQxyMgJ0qkh9ZemUkyoXLV2dU68tEjFJX+8dAPbLo0g/X72oqXnEj2KzWgDYW73w3rbB/GJfyl4JFNCEVuSbq+trdrscsgBa1bAkoqKXIM+3HRJgVryr7PHmK+aN45WQyGP3fpWfoP9DVkqPSeFwcCZjIKJ34bdWL8n+PQCvsyuIMi8YDO5lbepJAKcyjZ1YQJb6fHqE68Zr2tvjf2IkRERElN+EKwDuci4qxzMFIso0v982ezyCg0Kh0Pt4JBCNDhYAjpJX62qc5gW1PxXFMkD3YiKDHnE/bJO+w6obljRKJJJzhQBru1+OCHBWHk3sllU1Lv11Wh4pmysAKjbLILf2nXpD0yYACwvorCgyan69PnJxyZ5+qbph2S/V6OkAtuR5e98Hv3361bqaA3lBJPKOWCz2CoCHmUQ6h1S4gikQ0Z44TmC2CCZmfcYiygJAogyrqKhwjMEfAD2Kaex0RXrMGD3SdWNz29oSq5gHERERFQZlAeCuHQ1gDGMgokzaurVzI4CEp2feop/ikUA0OlgAOApaFsz7QBLybwjmM41Bi4rIZysXLfvQYTfd/Z9cfIHNC+aeoSrX5FGmr5pS36VpmyJCJ2dvJIDNQ/n1ZKn9LlBQSygf1tvd/fV3+6XqhcueMRYnAlid5+2dkoQ821xXeyQvjUReojcxg7Q6ORgMvp8xENFur7oql+XGKxEWABJl0Pjx4wOqyd8DmMY03vIfEf2o68Y+0N6e+DfjICIiokIiIpuZwi6NCQaDxzAGIsowBdTr2wDPnThxYhkPBaL0YwFgGr1+eU3pmvo5t6rYPwCyPxMZ7OwDD8BvD69sWLJ4sKu8Zdor1849AKJLAPjyJNU+o/j45MhdadkK9+VrPr4vgFAWj5FNQ/n1qZGmXiP4UmENB7Wu+aq5J73br02+Yemrql3vg+L3eX5h2FeAJwbTZiIqDK6beBzQvzOJNF5JBXVMgYh2JRQKHSeCGbkxzGUBIFEGFff2dt+vCn5JYOASBGBxcXHJ4dFo4neMg4iIiApywKN2I1PYNZ8PJzIFIso84/UCwFBnZ7yGxwHRKFxdGEF6tFw9932dxeYfovJlAMJEBmWTqtRUNSydVXVd0xu5+iKfnz+/KNWn9wAYly/BiuDayYuWPpu2x7PJqqw2yA6tABAAJjcsfQTQBwvqem30tlWRmsC7/WL1ouXx1rLNsyH4QT43WIEKGH10zYK5H+PlksgbVA1XAUzveGBWIBA4jEkQ0TuvD/bynBnkGm4BTJQpjhP8EYDTmQQA4E1Vmem68c9u2bIlwTiIiIiocOd/sokp7JqqnMAUiCjz12V4vQAQqvg0jwSi9GMB4Ag9P39+UXP93IhafQZAJRMZ5I0NaLKm9/DqRUt+k+uvNVjh3gTB9Ly5YQKPTC6ZktYCCl+Wj20d5gTVWPkKgJ4COnUm+bvNwsH84mmRJ5NVDUu/JCKfBZDM4zaPEdElLXW1n+WVk6jwxWKxZQD+wyTSN+QyRhYwBiLa0dixpQcAkjNfsFA1LAAkygDHCV4J4BImAQD6d58veWwsFvs9syAiIqJCZ61wBcDdjwtPAhd1IaKMX5exhingpGAwyNoaojRjAeAIrK2bNzVQ4T4L1W8gf7aGzbbXRM1ZlY1L50xZeO+2XH+xa+rmzAHyaStZfdP6ii6WSMSm9VGtZvUGLKqbh/N3k29Y+qqo3lJY81F8YXXdnLMH++uVDUsWW+hMAG4et9qnwE9aFsxp4CWUqOAlReRWxpDGe6jgAsdxDmYSRLRdKuX/IoCi3Hk9KRYAEo2yYDA4E0AjkwAA/Ka8PHRSW1sXrz1ERETkCcYYrgC4e/tUVASmMgYiyiRr7T+YAkREP88YiICJEyeWpW3cxziHTgFZU1f7FQv7ggDHMJFBxqZYnCy1761cdM+j+fCCX77qgskC+Vk+ZSxWLjns+js3pv+Bs7wCoMHm4f5tX5l+B8AbBXQuiYH84p/1F1QM9g+mNC77Q8qHGQBey+uLiEhdS93cXzwROdXPSypR4fL7i38OoJ1JpE0RYL/GGIgIAMaPHx8AcGkOvaSuRCKxlT1DNHoqKioONAa3g+8BQhW3u258bmtrayePDCIiIvKKaDS6CYAyid2NEc0ZTIGIMimRSLQA6PB6DiLy6YqKCodHBHlZIBDYu6Mj/no4HFwVCgVuCYVCHx54D39YWAA4RKvr5x7UXD/3CQFuATCGiQzi4g2sNdaeVrVo6WenRpoS+fCaX7+8ptRnUssAhPJnkoIbK29Y+sAo9WFVVo+hlAz7G2pTI00JVdQV2Gm13xhNfXcof3DY9Uv/bU3vsQCezuvJOPTTE7smNL1+eU0pr65EhWnr1q1xVeUqgOl1USgUmswYiKinp+dTACpy6CW9Dn4QRTSa/KrJuwGMZRT4eSwW/zSAFKMgIiIij+kGv2y7W9YqCwCJKNNSIniJMSComryEMZCXGSM3ABirisNE5Csi+kBvb3eb4wSfCoUCXwuFQidgCLvRsgBwCJrr5lxqVP8lqqcwjUHpE9FvS2fsvZNvaHoqn1545xjfjwEclUcv+W+pMvt/o/HAA6utZXXrQOvXzSP5+6pFS+8GZGWBnV8Xr6mrnT2UP5iy8N5txaWlZ4vgrjxv+3mdxebBNQvODfIyS1SoA17/rcjvrctzjd8Y5SqAROQT0a/k1ksSbsFJNIrC4dA3VDHd6zmI4AHXjf8/AJZHBREREXmT/ocZ7HaseAoA7jpERJm++rzIDABVfAlDKG4iKiThcOAUEVy0i/9UBOBkEfmWiP7FcYJbHSf4O8cJfC4UCh26p8dkAeAgrLtm3oSW+jn3A7IYQICJDMpLxuKEyoZlX5/8/Yd68umFt9TPnQ/VT+bRS05Yg49PjTT1jsaD79MzYdLARSZ7Q6BU14i2NRZAjeDLKLBv+gvws3XXzJswlL85OHJb9+SGpRepSD3y+8OP04yUPbH26prxvNwSFZ5oNBoVEa4CmN6J9AXBYLCaSRB5VygUqgVwSG5dm5QFgESjJBwuO1pVr2ES8o+iopJ54Mp/RERE5GnmFWaw++lyOBx4P2MgoszSvzMDAMBBjhM4nzGQBxUD8iMAMojfDQM4H5Afiehaxwmud5zgYscJzAkGg3vtNOJjrnu2pr62pi+lq1TlXKYxKF0iWFC5zk6bfMPSvLtxra2fe3S+bTuo0M9NWbi0ZbQe35dEZXbbh87qRcvjI32cyQ1LXlSVnxXY+TY+mUr9YKh/JIBWNyxpVMFcAF15OzSGTrPWPLV2wYX789JLVIDTX5VbAMSYRPpu6cbINxkDkWcZIPcKgYzhCoBEozeW8t8Avu8XA+SjW7ZsSfCIICIiIo+PDl9lBnsaO/MzYCLKtBRXAHyL1GFwRVBEBcNxgleo4rBh/vlBAC4FZKkxeNNxgn9znOBCxwmczgLA3Xi1rsZpXlD7U1EsA3QvJjKoi/NKGHNMZcPSG6SpKe++Wb3+svPCVrUJQEn+RC63Vzcuu3NUJz4+rcpqE4FNaRtK9aWuBWRbQU1MIR9rrp9bO5y/rW5Y2iTWvh+KfP7gdYo1yZWrr66tBBEVFNd12wH5PpNI612jJhgM8hvNRB4UDgfOE8HUnLsqqf6XvUOUfqFQ6EOAnuH1HETkS67rruMRQURERAQWAO7ZeYyAiDIpGu1cBaCHSQAAjg0Ggx9mDOQVFRUVBwK4Nk0PZwAcC6BeRO5kAeAutNTPOTOp5l8QzGcagxJT4LLK0upTqhbesyYfG6CA9I4Z8wvk2JZY7+IVU+L78qhnozI5y+1MWwHg1Jub2gB8o+DOQNUfDHUr4O0qb2j6h0JOEMgL+dt+vMdYPL22fu7RvBwTFRZr9WZwFcB0EhE0MAYi71GVa3L0dW1g7xClnU9Eeb8H7otGY79mDERERESAiHIL4D07JBAITGEMRJRBvQD+wRj6GYNvgKsAkkeoJn8EoDz9j4tmFgDu4PXLa0pbFsxpUJU/QHAAExmUh/yw761uXHqrRCI2Xxuxtr72SgAfyaOX3CdGPj45cteoF0UYoCrLbd2UzgerXJf6CYCXCuw8HNeXsj8d7h9XL1rS2pUqOgXAfXmcwQSr+kRzXc0MXpaJCkc8Ht+mqjcyifQRwUnhcHA2kyDyjlAo9EEA03Lxtfn9llsAE6VZOBz8BID3ejyGHsBcwaOBiIiIqJ8xKRYAvgufj9sAE1HG/YkRvIWrAJInOE7wUlWM0rEua1gAOKB5Qc3xncXmRRWpQ/8yibSnQwdoF5HPVjUu/dAhjU15vW3T2qtrTlTFdfnVAVJXuXDJc5l4KgUqs3ysbU7r4zU1pQD7xf6mFZTZa+rmzBnuHx954x0dlY1LPwKRb+bzPVNh/tBcV/tBXqWJCkdpafl3RbCRSaTx3q5oBFDEJIg8c9Zfk6uvzJgSbgFMlOYptCquYgy4lVv/EhEREf1PW1vXGwC6mMQefYwREFFGJ/DCAsAdGaPfBFcBpALmOM4hAG4axWsKVwB8InKqf0393DqIWYnsr3SWHzcjoEmMrapsWLI439vyypUX7W2taUI+fQiu+nBlw5JbMvFUqyI1AQD7Zre5ujndj1nV2LQSimWFd27KD4e7FfDAua1VDUsiKnoJ+peezsfrUxmA5c0L5nySV2uiwrB58+YOVf02k0jvrTAUCn2WMRAVvnA4cJoIcnWFZHfr1q1x9hJROs/54LkAPL51mXZai0U8GoiIiIh2HiQB0swY9ujYYDBYyRiIKGMXZjV/AmCZxHZyjOMEPsIcqEAVAfYeAMHRegJr4e0VAFdfff5eE7sm/EVUG8BVUAbjDQM9t7Jx6ZzJC5u25P1NtabGl/L13g1gvzx61Rt9dswnJUOr1xV3mEpkudJeDTaPxuP6iuQqAB0Fdo6OS6bs90f6INUNy35prD0LkG15moMfIr9cU1f7OV62iQqD6yZ+DqCFSaRxKi36rUAgMJ5JEBU2a3N6dWdu/0uU9nMeV3KMY34Vj8e38WggIiIi2pmq/pMp7JnPJxcwBSLKFNd12wH8i0nsNKtvBFDMHKjQOE7oGwCOG9WzR8S7KwCujVwYMrb4YQDH8nB793kBBHcke+0RkxuXrSiURjUfYr4J4Iw8eslWBJ849MY73sxYx/s0+6tiqozKto+HXrfkdVEsLLyTFTVr6v9/e/cdHkd1tQH8PbMr2bJ2ZlbGxmBMx5ZtWgKmh1AChBJqcKGFlpBKB9sQkigfxZJNJ5BQQse2LAgtdAIktFCCbZorNgbjgot2ZlaSLe3e8/0hkVBsrLIrzey+v+fhSUJs6c57p9y7e+be0SO7+nMGT6r7p4i1O4BZEY3CEuCWuWNHVfMWTlQQWgD9LWPIqYpYTCYwBqLC5TjOESLYN8RN5Pa/RLm95vcI8Yqf3TYlNgbX82wgIiIi+ibLAgsANzSYVGUBIBF1KxHlNsBftW0yaZ/NGKiQVFTY+wI6Ps+/JuV53sdFWQD46fkjy7Jrso+BxX/tsUBED6msrv3J9tfVrS6Ug5ozbvRhorgkYgOAK4dUT3u+Wyc7Bj2+3LllybJ8/eyWPmaSAPMKbrCouGX+Rads3NWfM6R68gLVpj0AfSKyE3aRcXPGjb5Rq6qKfst7oqjzvPRDAN5gEjl1uuM4uzMGooJkiehVYZ+as5uIcvmZgTm32DNQxau+78/n2UBERES0rrGSxQLADRvsOM5ujIGIunEe+y+m8I1MLrNtux+ToEJQUVHhGoN7AcTy+5vkPwC06AoiPqgaWdpYYj0oqvvxdPtWBorbMmVm5+4uOsu3+b8dszmAewFE5/wXvPxZ78//r9sfsCI9XgCY1fxsAQwA21fVNRvg4gK8fvtlYy035eIHDZ34WDBkgR4N4KYI53H23DWz7n6xav84b+1EEZ/3qZwHQBlFzlgienOkxkRE1C6O45wAYKeQ39ZZAEiUIxUVFS4gxzAJncoMiIiIiNYtk8mwALAdRPRMpkBE3Xdv1n+B33l8XTIW0z8wBiqEYYUxmbsAbJX/X6VvA0X2ZZ+OHBmLN8Xug+BwnmvfchYq3oeavSon1v58+6q6dCEd29tnnVWSzehUAJGpGhegPq7m5AOqXsr0wO/u8QLAxNrs8nz+/KE1tY8CeKoA73ijZo8dc3xOzoO6umxlTe05IvJzAJloxoFTNluz8UMLq07rzbs8UXT5vv9vVdzHJHJqhOsmfs4YiApKqYheHvp5jlgsACTKEWMyowCUFXsM2aw+yLOBiIiIaN0aGhqWA1jOJDboxP79+ycYAxF14735HSbxVaryS9d1d2USFGWOk/g9gGO76ap5CyiiAkAFZO421p2AjuKptl7NAP7Q0sfsWjmx7s1CPEC7wrsGwN4RO3VP2bam7pMe+v09XQDobX5dXVP+BxHm/Lbzv6CImJvnXHhCzopdh1RPvQ3AUQD8iA4Wj2puanr8g6qRnLwTRVgmkx0PIGASOX1iVPftWzaIORAVygcLzlkAtg5/Sw0LAIlyNvfDqUxB3m374oSIiIiI1ku5CuCG2c3Na05gDETUfXN6eZIpfEMMyN6GvG+bSpQfyaR9rIh020qWIvHiWgFw4aUnbAzgJzzV1mu6JbJnZU3t/21fVddciAc4e9yoUQDOjtZcDNcOqZn6RE/86g8vPXlTAE4PJ7C0O37J0Il1cxR6YwEOGTdGzPwplz+xsqb2qWwM+wBYGNFQDoo3WS/msjCSiLpXY2PjUgBXMImccjKZ+C2MgSj6+vfvnxDRy6LQVmO4AiBRTh7ijrOdaqRedMwLVX2RZwMRERHRhshbzKBdzmIERNRdjAELANf9zNolmbTPZQ4UNRUViR1UcQ8A6aZf+XkqlVoEFFEBYDYLFnusgwKNELlgyAKz2+DqqdML9TjnXHLCUIHcEbGH2puZPubSnvrt8Wzz4BCE8Hl3/aJYWcnlgC4tuJNfMHru2NHH5fJHDr+q9v1YtnRPAK9FNJUREjMvzh47ZiCfAkTR5HnB9QDmMYkcPi4ERzpOYgyTIIq2lpa1YwEMiMJU1Pf9xewxolw8w/V4dN8HiqFlWXiJZwMRERHRtzMGrzOFdhnhOM5ujIGIuoPv+28BWMkkvkkVf0wmk1syCYoKx3H6GiOPALC78de+/MV/KZ4CQM1uzNPtawQvq4XvVlZPvU7q6rKFepgfVI1MwJiHuvki6ypPs9kxPbkaowKVPf9UR7cV5A2uesCH4pKCHBwJbp1/0Sk5vQdud/V9n1uN/oEA7o1oJjuI6KsfXnziYBBRFDWrynmMIcdDQ5EbbNveiEkQRZPrulur6sURae4KAGvYa0Q5mNsoDmcKABCbyQyIiNr13ChhCkRF7XUAyhg2TAQXMgUi6iZZETzNGNYpoZr9C/jiI0VDXAS1ALbt3jmevvDFfy+aAkBYwhUA/8dT4LwhvYftP2xC7dxCPlAFpKTJuhPA8GhNLPSXQ6+uW9jD2Q0JwQRrWXf+viETp90L+V+FdAHpl40135DrHzr4pqfWVtbUnqrAeQBMBHPZKmZlX54zbvTOfCwQRY/v+08CMo1J5NTGliU3MwaiqDLXAugdkcZy+1+iHEgmk0kR7MUkEKRSqU8YAxFRe0hvZkBUxIOmIFgFYC6TaA/9seu6WzMHIuoOxgi3AV6/Qx3H+TVjoLBPtFzXvhnQg7p9xKJSfAWAYtCf5xwA6BOxuOw4tKb2BqmqMoV+tHPHjR6nwMhInavAn4dUT5vS0+2wpOcLAFV1eTdnr1Y2ssVsGzJm7vhRP87HDx5aU3uDiI5SoDGCuQwA8NLsS0btw+cDUfRkMtlzAaSYRE6fvqMdxzmRORBFi+u6hwA4JkJNZgEgUU7mzJlDAMSZBD4EV7IhImrv06OMGRAVvdcYQbvERbLnMQYi6ibPAMgwhnUT0YmJRGI4k6Cwcl37SgBndfvsTrEkCILZX/zv4lkBUFDkKwDq5wBOrayZ9qPtrpxaFF+2zB5/woEArojUaap4v6zZhGJZcVWp7PnLVpZ19+8cPKn2HSjuLMi7gMqfc70V8BeGVE97yDJmH2gkv8xNwsizs8efcCiHJ0TR0tDQsAzAOCaR88n0zX37lm3OJIgiowQwN0SpwSLKlbqIcjPHO4wpAIB8zAyIiNqNKwASEQsA2z/ePsNxnL5Mgojyzff91cD/tvGkbyiLxawHAJQyCgqbZNK+EMAlPfG7LQtfuW9YRZR7ERcAyv3GahleWVN7b7Ec8UfjRm4hamoBxCLU7AaNWSM3v66uqacb8mLV/nEAPb+0ucjnPXKjjJlLUZgrSvXPWi3X5+uHD5lUN8NCfG8A0yN3lwT6iJpHZ48fPRJEFCmeFzEnKdgAAHb7SURBVNyhileYRG7nK9lsyV1FNlcgivIHDOcAGBqlNqvKYvYcUS6mzNiPKQCqZilTICJqN64ASFTkslllAWD7JURwAWMgou6Z40stU/jW2f932lZZIwqNZNI+XRWTerAJRVsAWIRbAOtSqB5bWTP1lGETHl5VLEc97+zDemVgPYjoFX3+qnLClNlhaMiAhoFbIwQV9GK0Rz7EHzyhboUCVYU5etQT8rUVMAAMnvjA4jXZ0n0h+HsE0ykVxZS548ecBSKKEmOM/hxAM6PI6TjyB8mkcy5zIAq38vLyTVTx+wjeY7gCIFEXJRKJ/gjDi3thmOZK9+8eQEQUYTEAJYyBqHil0+lZIuALFO2fv55j23Y/5kBEeb/bqPUw+D3HhlyYTNrHMgYKg2TSPlYVtwOQHmqCaWkxT375X3AFwAJ9PkBwi+qaysqJ0x4ptgvN9HFuBrBbxJp9b5hWaIxJZvtQ9GWpWd5Tv3tp2fKbRfF+YQ4g5U+zLjl2o3z9/J2vvq9hSe/lxwJyewTjianqX2aPGzWWwxai6Ein0x+q6hVMItfPC612HGc3JkEUXvF47EYATuTmbEY+Ze8RdY1lWbszhVYiWMEUiIjar6Kiog9TICpqagyeYwztZlsW+H0BEeWd53n1qniGSXz7RwCquNu27UpGQT3Jdct/oIop6MEdSUXwekNDw1fqabgCYOH5SMU6qLK69tdDJz4WFNuF1rZy15mRekoB81SbfhOqRoXjiwQNVlR83lO//ICqlzLGsgp15aNNxJTemO/8KmumnqXAeQBM1AaPAqmZPX7UDdpzFftE1EG+n54A4E0mkVOlIuZBx3H6Mgqi8Ekm7aMAHRnFtpeUZLgCIFGXp+3Ygym0MkaamAIRUftlMplNmAJRsRMWAHbMb/r16zOQMRBRN9yfpzKDDXIsC4/27dvXYRTUE5LJxAGA9QiAXj3ZDlU88vV/xxUAC2jeLqo1fZrNjkOrp7xQjBfanLEjd1fVGyPW7DUKjAxdsaaaESFoxaoRt93W0pMNaLuWCnKgJcCJs8eNPjrvGdbU3gCV0xDBJatF5Zy5Y0f/RUeOjIGIIjEWymb1dABrGEVO74ZbiOgdYEE0Uag4jtNXFbdG9X69enUTt+sk6uq0XZWr9LaxLLOWKRARdeS+qZsxBaLils1mnwOgTKLdylpa4pcxBiLKt169ej0GaCOT2KDKbLblTvB7C+pmyWTiOFV5GkCip9tiDB77xlyviPqikAsA34Ng7yETp43f/Lq6onzredYlx24EsWrRw1W2HaXABZU1tTND1iYBZNcQNGVpKALJWGcD+nkhXjcC3D7vkpF5Xx21cuLU+1SswwCkIhjSWXO3sR5cWHVabw5piMIvnU5/KAJ+GJd7xyaTzjmMgShUo/ZrAUR05RZZCiDDPiTq8n1gODNoZYzFAkAi2vAIRISFLl88QdRiASBRkWvdLk5mMokO3T3Pqqgo35E5EFE+rVixIg1YTzCJdvmx69pXMAbqLsmk8xNVqQVQ2vPzW3wYBMHcr//7oigAnFd1koOIFYa1U4uo1mTKzIjK6tq3inbIPXJkTEzpZABbRardwENDa2r/HLZ2zbr4xO0AhGCrPw3FqiCV10xZKbDOL9DLp7+qdV13/KKh1VNesGB9T4Eobvd2THNT4xOzxx5lc2hDFH6pVHCdKl5hEjl+KqtOrKiw92USRD3PcZxDRXBqVNsvop+yF4m6rBcggxhDq1hMLaZARBseg0iWKfx3PMZnCBEBUG4D3MFhpzHW9YyBiPJ+d1bcyRTa7VLXTfycMVC+OU7iV6p6F4B4SGZ1f1vXvy2OD8gaMv0L7ZBU5XXLMt8ZMnHa+O2r6pqL+WKbs41UC3BIpPoP+CTbbM4KY9viscyIcLTEWh6WTIbUTJ0MfHMP9QIZRJ40d+zo47rjdw2umfKBiZXsCWB69JKSA0X6PD/rkmM34hCHKPSMiHUagDSjyKlSY1DXt2/Z5oyCqOf069fPFjG3RvkYVIUFgERdZNv2ViiuXT2+ffBntA9TIKINicfjLUyhlYhwBUAigog+xRQ67MBk0j6GMRBRPvm+/yyARUyi3U+0PzmOcwRzoHxxXXu8iNyMEH0Wl83q/ev698XxYaGgYAoAFWhUkfGVC7P7Dp5Q92GxX2xzxo46RiAXRqzZLTHLjNn+urrVoTzHFLuF41w3y8KVi/xagPpCvI5UcPMH54/sllUfh191/9JMmfk+gAh+uKC7W6b0X3N+O5IfkhKFnOd5H4ngN0wi5wZks7FHBg1CGaMg6qGJRMva6wHZIuKjTxYAEnWRiGzLFL6SBwsAiWiDSkpKMkyhlTFcAZCIgFQq/TKAlUyigzNaxTUDBw7k+JOI8jpcU9W/MoZ2i4toreM4uzEKyrGY49jXApgQsna9EQTBnHX9H0VRAKiKfgVxHCL/NCb2naHVU2ukrq7otyyYPXZkJUTuASCRarjoJYMn1L0e3gZaoXg4WiFaARAAhk6cukSh4wr0ctok3qv7lq7fvqouvaRs+VFQ3BbBrIYjY708f/zI7TjmIQq3VCq4R0QfYBI5H8jsEgSJO5gDUfdz3cQoAGdEf37OFQCJcmAbRvA/XAGQiNpjxYoVXAHwi1mdYBhTICIAGQCPMoaOj8UbGoL/YwxElE/xePYuAFkm0W7lIvp0Mtnnu4yCcqGiosJ1XftxEZwftrap6r3r+/+4AmA0pETk55XVUw8YPmnyPF5uwOyxR9ki1t8AOBFr+lNDqqddG9bG6ciRMUBD8WA0IVsBEACG1Ey7A9DnCvKiUpwyZ/yYY7vr1x1Q9VJmyMTaX0DkjwA0YmltnVXr5dkXnbAT78ZEYZ8k9/4lgPlMIueD6xNd176EORB1n2QyuRUgtxbCsVgWVwAk6vKTWLAJU/hyHlwBkIjahSsA/s92/fr1sxkDEanK35hCp5zHlaaIKJ9Wr25arIonmUSH9FWNPVdRUc7vb6lLXNfdVjXzGoDDQti8ZlWpXd//WRQFgJl4ydMA3ovk4Bt4KGPMsCHVU2+T6BXJ5CsTEel9D4DhEWv6Z8hYPwlzP84abA0DUB6GtlgaWx62fARQkfgvADQU5sVlbn53/IkV3ZlnZfXUKlX5GaL3IewmEtMX5owduTvvykThtXLlygCwTgDQzDRy7krHcU5kDETdIq6anQwgWRBDTrU+YZcSdXEuJcZlCl+RZARE1A5ZAFwFsJWVza7dmTEQke/7/wDgMYkOi4noHQBKGAUR5e1GE8PtTKHDNjLGer6iIrEDo6DOSCYT+wPmDdXQ1iI9EQTBqvVO9Iqhk4Zfdf/StRLbD8BrEWr2cgCnDq2pPX77SXXLeKn9z9yxo8YDcmzEmm1UrJ9UXjNlZZgbaRkNTTFTJm6WhjGjIdWTF6jissK8umTTXpq9vrt/69CJU/8qoocB8KOVl24EsV6YN370IbwzE4WX53lvi4Cr1eXhoSGid7ZOhogon1zXqQKwV6EcTzab5QqARF1/DCeZwZcHJdiCKRBRO/mM4IsxmXB7NCICgLWAPsEYOmWnZNL5HWMgonyprw+eAoSfo3Vcf2Pkea4ESB3luvZZqvIsgI3C2kZV+dbCYKtYOmun6sn1a7KlhyjwbNjbKkAdMtYOlTW19/Iy+6o5Y8f8ACKXR63dqlI1tHrKC2Fvp6UyIixtKVGzPKw5VfYZdiMgrxToZfaT7twK+AtDqqc9b2C+B+jiiOVVbhSPzx475njeoYnCK5UKrlPFY0wi53qpyt8SicRwRkGUH8lk4gBAC6mIeU06nV7BniXq+u2BEfyPMdiKKRBRO7EAsI2IsgCQiNruB3iIKXSOql5aUWHvyySIKE8ygN7IGDplgDHWP5PJxPcZBW3IwIED+7iufTuAWxHu1X3n+77/zLf9AauYOm7nq+9ryJaZIxWhHcx+bAl+OKSmdlTYV4rrCR+NG7kFRKcCiEVqAiDyz8qF2asi0VZgt7AMaLbrtf2q0E6Iq6qMavanANYU5qzV3PzB+SP7dvevHVZT9x7iuieAmRFLrFREp84ZP/qnvFMThffOFovFfwJgLqPIuYpYTJ7caKOyzRgFUW61XlfyQIHN2xe3TjuIqCuMYQHgV+boIlsyBSJqJxYA/s+ujICIACCVSj8JoJ5JdErMGL3fdd0KRkFE+WBZ8ds5hu20pKo8k0zaxzAKWp+KivKdGhqCtwGE/nt+EbkFgPnWe0axdeD2VXXNlQvMaIHcGaJmKRS3qTbtNLi69lleZt+0sOq03hlYDwHoF7Gmr4DBiVJXlw17Qz+oGlkKYMeQNGe5VFWZMOc1dGLdHCB6q1G28/GxabxX7Nqe+M2VV9Z9Vrp27f4CvBS1iT4Ut80dN+Yi3rGJwqm+vt6zLP0xgDTTyLktM5n4c4lEoj+jIMqZ3plM/GFVbFpgx8VtS4hyMWMT9GIKX6YDEe43tInazRgjTCGPdwvll6dfsmOfPn02ZQxEBGANIFMZQ6dH51sA5jbmQET5UF9f7wG4nUl0Wm9VPOi69s8YBX39Ae44zm+Msd4AMCwC7W0ArLs29IesouzJurrs4JqpPwX0uhA0Z74RObByYu3Ph058LOB1tm7NTU1/AjAiYs1WMThj6MSpS6LQ2Pgaa2cgHF8iKLA8CpktKVs2USD/KciLTvXUOWNHHdMTv3rr6x9JtZSZH4rggag9XhQ6ae7YUdW8axOFdbKcfh9QrtaZH8NiMTxdUVHhMgqirksm7dsRntW5czjEZAEgUY5kGMFXxGzb3pYxUCFobm5mMWseWRYLAL9ESktjhzEGImqbq93DFLrkeMdxzmEMRJSXCW8scwOAFibR+QgB3OY49jUA4oyDbNvu5zj2IyJ6E4DeEWn2A6lUKrXBOW/Rzm4BrayZdoGKjO+hJmREtaa0rGzHYdVTX+Jltn6zx4/6BYAzI9j0miGTav8emdaa8HzBKIplUYjsgKqXMgo9s2AHXYJb3h1/Yo8sXb99VV3z4OraUyDyx6jFpiLjZo8d82etqiraZyxRmHleulYV1zKJvDw4dlHNPDFgwIByZkHUea5rX6SKkwvyLiHCAkCiXMw5FFmm8I37y25MgQpBNptlAWB+75+fM4Wv5MECwCISi4Vm9x8KId/33wAwi0l0ZTyq17hu4kAmQUS5tnp106ciOo1JdPU+jQtcN/Gk4zh9mUbxct3yH1gWZojgqChN3SxLb2rPHyz64oSh1VNrIHoRAM3Tr1imKq8rMFkFV6rKT1WsH6jKlkMmThu/ddXda3iZrd/cS8bsISrXR63dqvJ6UO/+PlJtlvCssKgSjRUAAaCypnYmoJMKdCi0aS+YHlspVQCtrJ5a1fYFeKS27BTRX8xtnH3/22edxQ/uiULI94NxAF5kEvkYA2GfNWuaHhk0CGVMg6jjHMc5DEABryZsWABIlJP5BlcA/DrLwh5MgQpBr14sAMyzZYzgKw4Gt1AvBnHXta8EZDKjoA3gKoBdvNYAqU0mk1sxCvo2rutuDcBmEtQx5hpmkAtysIi+WVGR2IFZFBfHcfq6rv1XwHoOwGZRarsqHm/d4axdgxGqrJ52zZyxYz6H6J2dyGQNgCUAFkCxQC1ZAOgChVkgZu1cbuvbefMvOmXjrFn7ICC9Itb0lFo4ccRtt0VqVThLsZtKSB690KWRyq4x+D/TxzkawPYFdyG2bgX8SOXEaY/0VBOGTqx9YPbYkW+LZU2DYqfojCH1BDvpuUuqjhw5sOrxRt7ViUIloyrHi+jrAIYwjpw/PA4KAvvvAwb0OWr58uUNzIOofRKJxDARnYzWbSkK8+6gFgsAiXIz2cjk7z3WqN5fdHemQIUgm+1VAjQxiLzdK2SZCO+fX+Imk4l9Uqn0S4yiMPXtW7Z5JhOfDOB7TIM2JB7P3J/JxK8s5DlpN+inmn2kf//+31uxYkWacdDXJRKJYYB5DgB3UKEOSaUap7uu/RTAFZxzYFtj5PVk0j47lQruZhyFz3GcE0T0OgADonkEclW7/yS7+39mjxt9tAC1AL5ccNYMYDHWWeAXWzp04tQlTC73dOTI2Nxt5ClADo7e9SfHVVZPfThKTV5SdWSfoKmPh5AUBYvKuUMmTr0xShnOvWTMHmr01cKcHOvStRLffqfqyfU92YqFVaf1XrumsUZUzonWPQEvx9UcuW1Nnce7O1G42LY9xLLwOgAu+Z4f/yop6fWjlStX8oUYog3o27dsUDYbexWQLQr5OC3L7FRf3/Aee7x9kkn776o4othzEMHp/ED2q9o+9D+USXxFs+cFDoC1jCKy5/UKAP2KPQc+K/N9niVGAVLLJL7iTs8LzmQMhaeiwj7SGNwFYCOm8ZWx5aupVMCCyPVwHPsRERzNJLpKn/G89JEAWpgF/W+O3+e7qrFnAPRnGhz7dm4s644AzJtgjU8uRwa1ItYvUqlUilkU4n03uZVq9hZEunBWnvc8v901U1wB8EuG1tQ+OnfcqEMMsAUsLETWWsgCv54xd2urBq1bEETNTVEr/gOAoKn3LmG6H6gVnS2AvzBkwtQ35o4bfZMC5xXg4GfTXpq9FsDpPdmKti3Tz50zbvR/ANyCqLwhpdg3A+vF+Redcuh2V9/3Oe/wRCF6/gXB3GQycbyqPANue5QP389k1j5dUVFxeH19PYugidbDtu2NjMEzALYo9GNVLeEKgEQ5uZbQIvy4/+tKHcfZ3/f9ZxgFRZuVZAZ5TNeSpcYwh68ZXVFRcQHnbIX2TEzUGINzwQIB6iARvREQFgB2PckfJpOJu1Kp9Cng0t0EwLbtfVTxdwAc61GneZ73tuvajwI4hmnkio5Wze5ZUWGfXF8fvMI8CkY8mXTOVs1ejoivuCpirurIn7fY9181pGbav4bWTLt/6IRpr7L4r2fMGT/mWAguiN7Vh3dLy8rGRjN1K1Rb5VjZ7LIoppgoa/wtgPkFemmeNnvc6FBM/Ctrau9VNbsCiNJbQd/Nxppfn3fx6G15lycKl1Qq/SKAXzKJPE2fFXsbk3k+kUjwzVaidRgwYEC5ZeEJVQwvgsP1+TYtUW6IcCWRdeeixzKFaHLd8oMA2EwCAL8UzvP8JPYJU/iG8my25WTGUCj3U3db17VfFZHzwOI/6gTPS78I4H0mkYtnjpzkOPbVTIJcN3G8ZeE5jvMoFyzL/AEAX2nJrS2NwUuua189cODAPowj4hPqpH2M69rvqeq1iHzxH15r+w6z/fcIngIUJrPHjqyE6t0RnJym1ZhRbSuURdFuYWpMVhDJAsCBVY83GpGfoUDf6BLglnfHn1gRhrYMnVg3p7SsbHcobotQhNsYS1+eNW7kjrzbE4WL5wV/BTCJSeTNiFhMXnFdd2tGQfQVpWvWNDwEYI9iOFhVcPU/otzNzpqZwTpSERwFftYZNXHXta8ErGcA9GIcgKpUMIX8SaVSiwHwHvqN+6ecxRSir3WLa/MOgBFMg7ryKAJwE2PI2fj0gmTSqWISxXxvtscBUgugjGlQLtTXN7wLyINMIudiAC5saAjedxznh4wjemzb3juZtF9RxcMAhhbIsOzSjv4NfihGoTF77FG2iPUwACd6MyL95dCJdXMiHH+oCgBLIloACADDqqe+BMgdBXqZDuytJjRvrG1ddfeayom1PwdwKoCGiEz5N7VgvTRv7Og9edcnChfPC8YBOplJ5M0QEfNqMlm+M6MgAgDEXNe5B5Ci+UBJhAWARLmiqmuYwrpywaa2bXOuFREVFRVbJJP2SwAuBT+j/vL1PYAp5FUWwELG8A07VVTY32MM0dSvXz/bde3b2wpMHCay4akJI/h25eX2/QDqmUTOnu1/cF3nCiZRdEpc174DQDXHupTzAW3WVLWNayn3thbRp5NJ+z7uahQNtm1Xuq79kGXhVVXsUzADVsETqVT6nx39e3zgUDgGwIBAyu4CMCyCzf/r0Jpp90c1+w/OH9kXwDYhatKabWvqvCifz1ZZ7CIU6AonCj1jzrjRh4WpTZU1tffCskYgOlsC9zWC5+aOPeFg3v2JwnWL87z06YA+yyjyFLBiU1Xrn8lkYn+mQUUu7rqJewEdU2THzQJAotw9VVPMYN1isaK7t0ZSMmkfbUxmeiF9OJ8rIro5U8i7BYzgm4zB5Uwheioq7H1bWtbOAPBTptHOUZQizhS+3ZIlSxoB3MEkcnrm/dZ17QnMoTiUl5cPcF37WQBnMo0NjT/iJUyh49Lp9CxV3M8k8jpeODkWk3mua48F0JuJhPFzheRWruv82bLwPoDjCu32KGIu6cxfZAEghcK8saMvFeDHEWz6h3ZZ4zlRzr60lzUC4XrrbVnUz+fBVQ/4iOkvCviSvSMsWwF/oXLClNl9ms0e0Mh8MJFQMY/PHTv6OBBRmDSXlpb9GMBbjCJvXFV5Opm0T2MUVKRKXdeuBeTEYjtwVWUBIFHucEWW9d5r5NR+/frZTCK0eiWTiRvatuTpyzjWeQ6zADDPRPQjprBO+zuOcxhjiIzermtPMgYvIVwv90fhTstik3aIxTI3AljLJHJqfDKZuAH8br6gVVTY+8Zi1jsA9mca7Rn78p7cWaWl2UsBpJlEXrkAalzXnuU4zgngKsIhuc+W75RMJu5Xzc4D9BdA4b3coYr76usbOrXwEQcZ1OPmjB3zAxX8MYJNXwPgxIFVjzdGOX+jMiJkTVpWCOd15YRpTypQqFtJDuyl2Ulha9Tm19U1VU6s/RmisyVwLxVMmz1+1Bl8EhCFx4oVK9LZrB4BYC7TyOP9T3GX69qTAMQYBxWR3smk/TcU3huJ7WJZwgJAotxdUSwAXD+nubn5NMYQwo5xnO1cN/GaqpwDfnHybVgAmGfGYDZTWDcRnQB+ZxSF++lujmO/DeAi9lenznQWm7TD6tVNiwG5i0nklqqc47p23aBBKGMahXdzSSbtC43BCyIYyDjaJxZjAWBnrVzZuAQAVxbtHluJ6GTXtf/NF2Z6TjKZ2M917SeMsWaoyklAwa7qvMayYn/o7F/m5IB61IcXnrglRKciil/+Cs6urKmdWQBTjt1C1qBlhXJ+q9V8DoDlBXr5nhm2rYC/UFlTe68odhPF+1GY34jKHXPGjb6ATwSi8Ein0ysA61BVLGEaeXVRMmk/ylV6qBgMGDCg3HWdx1VxRLFmoGpYAEiUO6sYwfqJ6NngZ56h4jjOiSL6DiC7MI0NGgwWSOZVLCbvMoX12tlxnBMZQzgNHDiwj+vaV4vo6yLYnol0WjkjaO+YyqoG0MIkcu64dNp+3rbtfoyiMCQSif6OYz+siqsBbjPeEdmsJJhC53lecC2ABUyi2+wuok+6rv1WMmkfw3lb90zfkkn7WNe1X1eVlwAcXui5i8ikVCq1qLN/nx+GUY9ZWHVa73jcPAQggoNcmVZZXXtHgXRFqAoAtYAK5oZNeHgVRM4t4Ms4dFsBf2HIxNpZLX3MXiJ4IAo3FADXzB07qppPBqIwTZ69hcboQQA+Zxp5fO4rjmhpWfua4ziDmQYVKtd1K5qaGp8C9KBizsEYiwWARDliWWYxU/hWg5NJ+2jG0PP69etnu679VxF9AABf+mgfJ5lMbskY8jkHib0HQJnEuonopEQi0Z9JhEsymTigoSF4F8CF4Er6XX48MYL2afvy+T4mkY9nEfa2LLzWt2+CxbwRZ9v2j2IxeU8EnH90Tl9G0CVrRPRixtDtRqjiYde1Z7a9PFPKSHLLdd1tXde+0nXtRar4G4A9i+TQFyYSfpdW9mQBIPWYlqY1Nyt01wg2/SOrLPazQuiDDy4euQmAzcLUJhFZVkjneWX11FoAfyvQy3hgL5OdGNbGbV9Vlx5SXXsygFMVCP1W3Soybs64UX/Sqio+m4lCIp1Oz7IscxC4yk6+7SCib7tu4seMggqN67rbAuY1Eexb5FGo6wYsACTK1QWlMV5PG8wI1eCH8D0qmUx8v6Vl7UwAZzCNjslmszswhfxJpVIpAJ8wifXaJBaT2xhDONi2vZHr2reryj8AbMtEchMrxwgdGVPJBAAZJpEXg7NZecNxnBMYRfT0798/4br2rZaFxwEMYCKdthEj6OrYNv03AC8wiR6xo4g+4Lr2omTSubxv37JBjKTzBg1CmeM4J7mu/QJg5gG4FCGrY8k3y8K5ixejqUs/g6cS9YTZ40b/UqFR/ACwRSw5aXDVA34h9ENMYruHb0KpBbdlbsaYXwtQX5AXs+CnYd0K+AuVNbX3xiyzG4APIhDor+c0zbrv7bPOKuGTgigc6usb3gOsQ1Co9/HwcACpcxz7WgC8B1JBqKiwvweYfwMYyjSwqqsfXhDR/3ietwRcvWpDhiSTzq8ZQ4/o7br21aryIoCtGUfHWRZ2Ygr5pQpuA/ztjkkmbRbv9vCtwHXtn1kW5gD4KbjFXI7nahWbMIX28X1/vgimMIm8KRfRyclk4kbw87DIcBzn0ObmNTMBnMU0ukZEN2UKuZg/mPPALdt70iaqelk2G1/ouvZDjuP8EFyxud2nr23b+ySTzp+CwF4iovcDOKAYx76qeLy+Pni8y4HynKLuNm/s6D0FuC6SAxGVi4ZMmPpGAQ0IRoRvsFdYKwACwPaT6pZBcWEBX9a3LzzvmGSYGzh4Qt2Hqk17QSX0H1YIcKLd1/vbp+ePLOMTgygcPM97R1UOBeAzjXwPA3B+Mmm/yLflKOocxznZGDwPbi/VRrnKDlFurVXFUsawgTuP6u9s2+aKEt3Idd1dHMd+G61bVPJz587bhxHk/Q7xFjPY0D0U17euZk09cC8d4br26wBuA1dGygtjmgczhY7cD6w/AFjLJPKZsZztuvYrtm3zBcIQ69Onz6au60wV0acAbMNEckG2YwZd17qIASYxiR4XB3CciD7tuvZnyWTiRtu29wJf5Pi6UsdxDnVd+1bXtZdYFl5R1V8DSBZxJk0i1rm5+EH8IIa61YJLTxhgBA8C6BXB5j86eOLUmwpsUhG6AkCjWF6I5/7gibV3K/BsgV7amzX36j0x7I0cOvGxoHLi1BNV9JcA1oT74sSPGkuljk8NovDwff9NY3A4gIBp5Ht8gn2y2fi7rpsYxTQogiSZdP4oovdGdM6Tr3kHtyslyvXNRmQWU9igilgsmi+gRlDccRKXAebfItiecXTZPuCKEXm+h+prTGGDbMA8Yds2X2jpJuXl5Zu4rn0bYN4AsDsTyetdgAUnHeB53kIAf2ISebe7ZeGdZNI5FywWCZuY4yR+XVISmwXoaMaRS4b345zdq4PLAcxmEqExQFXOtiy85rr2fNe1qysq7H3RWiRYdFq3TU+MdN3EZNe1P28rpD4L3EK9bX6K37WNt7qMBYDUbV6s2j/ebLQWkdyrWxcbq/lMKbwtdkJXABgTa1khnv8CqMnEzkLBFo7oT2ePP+HQKLR0aPW0v4gxewkwL+RnzWHzqk5y+PQgCo8gCF5VlUMApJhG3lUAUptM2vdWVFS4jIOiwLbtjRzHflRVfw9+WP/VDx4sZQEgUa5nC8IP9ts1U1Wc4jjOyUwir8+/Ste1XxWRy8Gt63LFTSb7cBvgPCot7fMGgAyT2KBKy8LjAwcO7MMo8mfgwIF9HCfxu3jcmgfgZ+D3dt0xQ/kOM+hwZlcCWM0c8q5MVa93Xft513W3Zhw9z3GcwxzHnikifwLAzyhzP7MdBr5AmytrLAs/A2AYRehsA2CcMfiX69qfu64zNZl0flJeXl6wxW99+/Z1HMc5wnXtGte1X29uXlMPyDRATuC99Gt3QcFrqVRwfc5GbIyUum0i27TxRFHdL4JNz6iFMcMmPLyqkPpj9kUjtwbQP2ztasrElhfqNTD8msmLoLi0YJ9Pau4I+1bAXxgyqW6G0aZdAUwNcTMt05jdjU8PonDxff/fItkDAaxkGvmnilOMycxoezuOKLRs297HsvQdERzJNNZ1LXMFwM7lpiykaX0WxJnCNxljuAJg+yerN3Mby7yIJZPOeZal74ArVeXh3mcdzhTyZ8WKFWlA32US7bJnY2NQC/B5nAdWMmmf1tAQzBGR/wOQYCTdNs7mZwwd5HlevYhcwSS6zYGA+cBxEr8D0JtxdL+KivKdXDfxrIg+yRWu86p3RYXN78FypL4+eEVE/swkwn17AXS0qt4Tj1vLXNee7br2ncmkfbpt25VRPaiNNirbLJm0j3acxHWua7+dzbasFtG/AxgLYE/OJdarKZvF6QCyOZtgMFPqDnPGjR4DyPkRbf7vhk6Y9mrBdUpMwjig8ne++r6GQr4WhvQZdgsELxfo4W3WXNqrJiqNHTrxsaCypvYEAKcCaApjG0XMXnyCEIVPKtU4PRbT/UWwlGl0i62MwUvJZOKmfv362YyDwva4dl17vGXhJUC2YBzrxgLATudWxhSYw/pYFt5jCu3mAGbKoEHguZQjyWT5d1zXfl1VrwOEK4Plx48ZQZ4HcYJXmUJ7n8X4kes694Mr9OTsMe66idGua7+virsADGIk3X79D08kEhsziY5JpfybAXzEJLpNmYj8n+va7zuOcwTj6B62bQ9NJu37jLGmA3IwE8k/YyK5eFBoxeOllwD6CZOIjEoAp6viTsvC7NYVAhPPuK49KZm0T3VddxeEqBC8f//+Ccdx9nBd+2fJZOJG17VfdF17VSYTX6yKR0TkPAC7Aoixa9szJpXfBkEwN6c/k7FSvn146egdYlm8jgi+wabAs5Vlww6TqqqCWy537rjRNdpadR0m8ytragcX+jUxe+zIShFrBgrzzS0VtX44ZOKU56LU6HkXj97FWJgGIFyrQiierJxYy8k9UUg5jjNYxDzPop9uvTF+omr90vf9J5kF9bREIrFxLIZ7Afkh0/h2loV96+uDV5hEx7iu/RaAEUwCYz0vmMQYvqp///6J5uY1KfBD1XYTwd9TqeBYcNvPThs4cGCfhobgjwDOA9/g744n6Hae57HQIk+SSftoVTzCJDrkX6pyrO/73Aa0k4+iZDJxrKpUAdiRcfTwpwuqv/H99M1MoqP3zsRxqvIQk+iRs/ZZVesy3/ffYha517dvYvtsFr8FZDS4gFJ3m+l5wXcYQ+44jnOoiD4J1gIViiyAhYAuBGQRoB+rWotiMf04m5XlAFblanyeSCQ2jsfNZiKxQdmsbi4im6likAg2B7AlgK15XuVqLIpXfD/YDznetpudQ3k1e+xRtkjZGwCGRbD5y7Oxku8Ov+r+glzdZ8640S8AOCBUjRK8XFld+/2iuDbGjxknqtUFenifla5du8PW1z+Sitz9CmW3QzA6RM1aPaSmtp8AyicKUTglk8ktVbPPAhjCNLp1ejQ5m8V56XR6BbOgnuC6ieMB+ROAAUyjHcN8iW2VSqUWMYmOcRz7fW41BKjqH3w//X88I3iO5OZ8wj2+H5wOzrE6Me5NHKcq1wDYiml01/NTrkil/N8xifzo16+f3dKydiWAUqbRIbMB6wjP8xYwinaLO44zSkTHAtiZcYTG654X7M0YOjMmsP+uCr603kPDWQCPWJb+vr4+/T7j6Drbtve2LFwA4Fiw8K/HWJbuyHM6158XJK4XkXOZRNEwAFYDWNX6n9IAAKraICLNbY+QABAb0HIAZQAcAOVoXbDIbfvvnBt1j3qR2C6pVOrjnN9PmS3lcRQqImV3I5rFf0bUOqVQi/+0tfj3u2FrlyiWFcv1sbT3smsAFOqbWput7dUrcsWNQyc+FlROrB0jIj8HsDYkzeo7Z+xIFhURhVgqlVpkDPYB8AbT6NZRw4mxmMxxHOdscPUZ6kZ9+vTZ1HXtvwFSBxb/tVc2lUotYQyduNMJ+jEFwLKwEVNYL67+0fHr6lTHSVwLvhTdbolEYrjrOs+1rfazFRPpPqr6M3DL1bxZuXJlAOB1JtFhQwHzekWFfSSj+HYDBgwodxznHNe154noA2DxX9jsVVFh78sYOiP2G0AbmUPPDGcBHGuMzHRdp9ZxnD0YSaeUOo5zsuvab1kWXgXwY7Bmokdls3IxU8gt30+PAzCTSRQNC0A/tG4pvBegBwF6kAiOBnRk6z84o+0/D0frIlG7to7tsRWACrD4r/se5qI/zUfxH/gwo3yaM3bMZQCOi+hFd2XUtjDtiNmXjB4MIBm2dimKpwDwgKqXMgbmTADNBToLPWvWuFGR3A5vSPXU2yyDvQGEYpsdy4rtxScKUbgFQbCyvNw+UARPMI1uVSGiN7quPd11EwcyDsr38CaZtM8oKYl9gNa3wqn9lgFoYQwd1hvAxowBUJXNmcL65gp4mSl04oYucl4yad8LFlZ9K9u2N3KcxPWxmMxo/fKAesCAZNIZzRjy6hlG0CkbG4PHHMe+q6KiwmUcX+W67taua09Ys6bxExG9ASyeDi1jcDlT6LjWL6yFK3T38FQA0FEi+u9k0n61dZcCxBjLt3McZ7tk0rncde1FInofgBFMJSxzNJyUSCSGMYmcWpvN6gks2CYK2/1Obk6l0n/L4wCBKPfmjh91kIj+IZpXHV7+rPfnBT15ianuGsroFcuL6ToZVlP3HoBC3QZYLJFbZ489yo5i4wdPqn3HKovvAsi0nm6LUd2TTxWi8FuyZEljKhUcA+BOptHtdgDkH65r17muuw3joFxzXXdb13WeVcVf0fo2JHXMp4yg4xzHGQSuUPYFFgCuf3b/AjPoHFWc7Lr2M67r8r7+NQMHDuzjuvalloWP2raMKmEqPXmu6u/AlRjyxrIMX+LqAhGcZkz2Pcdxfsg0EEsm7aNd134KMPMBjAfQl7GE3n6ua/+MMXSc5wXXAuB2neEY1+4NSJ3r2h8lk84f+dnYV1VUVLiua/80mbRfEdG5qnoZgE2YTPieo7GY/BXc6SWn0un0LEDOZxJEoZlBzUil/IvyOsdlyJRrH1544paqMgURfNtEgPpsS+yUA6peyhT0hMBIKAsA1SquAkAAyJSZK0ULdKKs2BLoMzGqzR9c9YBfWTN1dNuWwD22UqMIuAIgUYRu654X/FRE+AZ5zzgeMLOSycRN5eXl3JqVuiyZTCZd154EmA+48lGXRjOfMIPOjAGzWzGF/2IW69G2XcgCJtFp+wHmtWSynFsytip13cQvGhuD+QCuBMBVvcJhu2TS+SVjyI/6+oZ3AcxhEl2hm4vo066beMZxnN2K7egrKhI7uK49wXXtj1XxCIBDEd7v3eYCUJ6z3ziHr6+oSOzAHDqsxRj8AoBhFKGxpar+HjDzXdf+ZzJpn9a3b1+nGINwXbfCcZxTXNf+mzGZpQBuV8U+4Et2YbeX69pcXTTHPC+4DcDfmARRj/ON0dEA1uTzl7AAkHJqYdVpveNx8xBa9xiP3EzPAKcPv2byooKf0loSymWtJVs8WwB/YfuqumZt3Qo4W4jHJ6I/nzd+9CFRPoYh1VNvM2L2Rk99sabYYV7VSUU5USeK6mM2lfJ/L4KC3eY95EpV5TfxuDU/mXT+r1g/6KQuK3Ec5zeq2XkALgK3iOzqbZErAHaKtSsz+K9+FRUVWzCG9XqeEXTJUFXrTde1L0GRbps2aBDKHMc523Wd+YD8WRWb8rQI2ZNU9ff9+vUZyCTyQ6Tnd38okCQPEdE3XNd+uNCLqfr2Ldvcde2xrmvPNEbeQ+tqf4NC3uyVlqU/Botf1nXu9jFGnrNtu5JZdEwQBK8CuJZJhO+kBvB9VdyVzbasaC3QTvyqb9+yQYV80K27NyR+6bqJZwGzXETvBXAsgDKeEpFyievaFzGGXLN+CmA+cyDqMcaycHIQBHPzfrUza8qltU1Ntyg0ql9UXDe0pvbRQu8jraqyRPW7obzziSwrxuumcmLdm1BcX6iTTQPcFtWtgL8wrLruP1ZZ/LsC1PXEyNw0ZncDEUVKKhXcaVk4CMBKptEjEqr6u2y25SPXtS+tqKjgCjbULrZt/8h17XdF9CZE86Wm8A0GRVgA2Dl7MIIvzRVNy+5MYX3Z4HGm0GWlAK5KJu1/2bY9pFgO2nXdCte1xwaBvUBEbwSU222HV9+WFutusHAnT2OVbB1TyF2cAI4xRma6rvOc4yTGoDBephHXdXdxnMQfXNd+O5uNLwJQA2CniLR/jTE4uqUFn/MUXa9NYjG8mEwmvs8oOsbzgssAvMckwjzOlUNE5OZsNv6J6yb+47r2RMdxjoj6Z2Xl5eUDHCcxxnXt213XXti6/brcAsjBAEpC3vxFANI8PddrkuvaE8DtgHN4r/bqLUuP5XlH1FP09/X1Qbd8fscCQMqZOePG/FqA0yPa/LczZeaSYuinuWvnDAEQytVwYogtK9brp0+L+Z0A8wrzmYYtLSmrifphDK56wB9cUztagfPQzat6iRhuA0wUQfX1wcuAtbsqPmAaPaYfgCuNySxyXeeKRCLRn5HQuriue7Dr2v+0LDwOYCgTySXDAsBOjf+wJ1P4SiIsiFyPIAieBz/Ez83UVbG3ZeF913VuKS8v36RQjzOZLN/Zde3bgexitBawbMLej8R98GDXtccxh3zM2xreAzCLSeSUBehBIjLFde3PHCdxveu6uyJCRaz9+vUZ6DjOCa5r3+q69ieA+Y+IVAGI1HEAMICeGgTBa7FYzOap+a3jgE1V5R+Ok/g9uAp8R6y1LHMygLWMIvyDCUB2AXCxiP7dmMwq17XfdpzEdY7jnFJRUb4TQlo4N3DgwD62be+TTDrnu64zxXXtBfG4tUxEpgD4KYCtItQPzaoyGixu25DxjmO/UEwvaOV/zJt+H9DTACjTIOrWx2+d56Wv6saHPVHXzbtk5F7GWC+h9a3pqPFEYrsMqZ68oBj6avbY0SeJ4P4wzrEzZab39lV1Rbtd4ryLR+5nLOvFAr03q4p10NDqKS8UwsHMvWTMHqpaC8WW3RIe8NDQmtrj+bQhiqa+ffs62WzLFACHM40e16Cqt1tW/PpUKrWIcXD2nUzaR6ritwC4ulj+BoG7+77/FpNov9YvyM3bTOIrZnleMJwxrO+csesAcL6Q4zGDiFwHWNekUqlU1A8mmUwmVbMjRXCqKvYJcVMXANiGp9/6H6sicloq5d/LKHJ+H70YwEQmkXfLRfCsMfK0qj4bBEFYVsyPV1SUD1ONfVdVvwdgPwCFUnAw3vOCmtZnQfl3VK3pPA3bZaGqXur76ToAWcbB+2gRaQb0A1V5F9CPAGuBqi40xixoaGjI9wIevVzX3UwkO0hVhqD15czhbf+5JQpkUSNVOdf3/b+4rs2i2fZpUdWbs1mtbmhoWM44cnG/dq4A9LdMgqhbzOzdu88+y5cvb+iuX8gCQOqyBZeeMKAla/4DYLMotl8gJw2pmTq5WPpr7rjR17WtYBa2nlhVWTO16LdZmz12zJ9F9BcFengfqzbtNHTiY0EhHMxH40a6WcgdCsn3F20ZyzLfHzyh7nU+cYgiLea6djWACzkGD4UsgEdF9KZUKv0S4yg6lusmjgfkt4jOtl2RlcmYTbvhi4KC4rr2RAAXM4mvXbiW2bm+vuFdJrGucyYxCpBaJpEP2gjIFMD6s+d5/4lSywcOHNinsTE4WFVOAvRIAL1D3uSZqnKgCGZwO+Jv1aKqP/H99FRGkTuJRGLjWEwWI/xbBhYSo4pZlqUzVGUmYM3IZrMz0+l0PrepLbVteysR2RbAtiK6I4BdAOwQgXtkZ9zmecHPv/gfFRX2vsbgXzz1OuRjAH/JZMzdLDxpzzzbfgGtBbRUmJoAfA5gBYCVIroKwCpVaQJQDwAislZVG9c5qlaNi4gDIAmICxhXRBxVHQjIQAADCj9CqfM8f5Rt2/0sCyt4SnXIWhHUZbP4SxAErwMwjKTz9+tk0n5MFUcwCqL8UcUSy4rt3d0LUfDLR+qSF6v2j2+6ZpPnRXW/aF548pehE6f+spj6bM740f+CYt8QNu2DypraHYr9mppXdZKTbcq8J8AWhTm/wS2V1bW/LpiHNyBzxo0+R1rfbszPCqgif6ysnlrFJw5RYWgrOroTALfeCY93AdxUXm5PXrJkSSPjKOTrz60Q0Z+o6q9QOCt6hN1azwv6gB/MdoTluomFgGzBKL5hgucFlzKGdertuvZSAElGkVdvAnp3LJZ9fPXqpsVhbOBGG5VtlsnEDxfBUar4AYCyiGQ7L5Mx+zY0NCx3XftqtL40Q9/ycYSI/F8q5f8R3MIrh2NF+0EAP2YSPW4VgCUAPgWwVEQWq5rlqlZKxGRUrUAkm1GN+SKSVdUSkWyi9a+KCyCuin4A+lmW1b/1v+smaP2sdQsAsaK4SSge8/3gxwAyX/w7x3GOENG/8xTrFKOK1ywLD4uY5+rrGz7gHGe945D/oCgKuYg6Pt6NxUpGrF692nddd2vALGAknX7GLRGRR1XxRCwWe6W+vt5jKh3TtkL862hdYZOIcs8XMd9PpRpmdvcvZgEgdcnccaOvV+DcKLZdFO+XtZjdN7+urqloBkVVVdbcplkphLPo4B+VNbUH8aoC5owd8wOIPleg92gVtX44ZOKU5wqqz8aP3g2KWgBb5/hHvxXUu/uMuO22Fl4ZRIXDtu2hsRgeUgW3MgwXD0Ctqtzp+/4bjKNwOI6ze9sKy2MQnUKIQrHA84JtGUNHztfEGBGZwiTWaVVJSa+tV65cGTCKb3Jd+1YAZzGJ7pnXAjpdxPq7MXjC9/3pAHpizmbZtr1dLIa9jcF+ItgXQATvufKpiLXvF2/FO46zm4i+ydOsXV4yBr8IgmBOTzaivLx8k3hcvg/Itp4XTIjwmPFQEX2KpxUVgBc8LzgCwBqOM/OmXhWvAPqWZcm7qta7nud9DBZlI5lMHKAqzwKI8zQh+q8mEbPXF4UgyWT5zqrWDMaSEwbAe4C8BpiZxsi7vXv3fm/FihVpRrOh+3VyKyD7mio2ZRpEOdUM6GGel36hJ345CwCp0+aMGz0GQFQnjA2i2G3IxNpZxdRn8y4ZOdwY64Mwtk2ByUNrak/ilfXf6+seAD8p0MMrqK2AvzDrkmM3skzJPYDkatnshqyJfXf4pMnzeEUQFZ7+/fsnmpvX3gHoaKYRPiL4EMCdLS3mfm7zE+VrbM0JgP4CkF2YSI/5p+cF+zOGdou5rv0++Ab2t/mt5wVXMYZvsm17b8vCq0yiR6wFMBOQt0X0P6rWzGw2+2mutrHs16+fnc02bQVYW6nKNqq6PVq3sN8BQHnEs/vcGHz/6wVsrmvPRySLGXvm/FPFLZYVu6GbthayHMfZBsBeIvp9APsCqGz7/zSTMQMbGhqWRXUa4Lr2BwCG8bSiCHuzpKTXQet6YcJ17Z8BuI0R5U1aFYssCwtV5RNAFwG6SNValMlkFjU2Ni4tliBc1x4LoIanBFHr+EhVTvJ9/7/fp3NL9m4Y1AmWqmIRIG33Yl0EWIvicfNxLFa2iAWCrZLJ8u+oWv8E4DANopwwqnLyl+/53X7/Yx9QZ8waN3JHC9briOoHjaqnVU6cdk+x9duccaN/AiCsx31tZU0tt3hps/C8Y5LNvXq9D2CzAp3z3FxZM+03BXdU/9sSeBKAkq5NUOT0IdVT7+bVQFTok2znXFXt8j2D8iYLyEuAqTNGHgqCYCUjCa8BAwaUr1nT8CNARgI4HFztr8eJ4P5UKjiFSbQPv5Rtl1XZrA5Lp9MrGMU6z6EZAHZmEqGxBsAiQBaLmGWq0qCqjSKyFq0rDxsAFW1/NgbAUUVvy0JfAH1VsRGA/gD6Fmg+KRFzQCrVMGMd5/JVAC7hKdQhGQCPqcrDqvp0Dsat8b59yzbJZq2hIrEdVHUHtBaeDse3fB4sgjNSqeCuCN9HzwRwB08niqj3jcH+QRCsWvfnD/YFqriGMfXouGAVgJWArATM5yJYZQxWAtYqwKwU0RWWhRWWZVatWtW0Eq0vGURyKui69kMAjmW3U7FT1d/7fvryL/87x3EOF9EnmE6PagB0FSArAKwQ0bb7MVYBWCWCFa3/6Kq1a3VlY2PjKgDNhfk5QvlBgPUEgFKeFkRdHACJnJ9K+df3aBvYDdRRs8ceZYuUvYnorkowtbKm9oSi7Lvxo24QlXNCOQiGjhtaM20ir7AvX2tjjhLRRwt13lOIWwF/Yc7YkbtDrFoAW3XyR/ytsqb2x7wKiIpD2zZnkwFsxzRCLQPoi4DUZTLmMa4MGA4DBw7s09DgHwHIKEAPB6QPUwmVCZ4XXMoYNsx13W0BMx2AzTQ2MJFQPOb7wdFM4puSSfsMVfyVSVAEBMbgsCAI1rlqZUVFYgdj5D3G1GlZALMA+VAEs1XNMlUrEDFrW++jVi8R7aMqvUW0TET6qKKfqg4SwUARbKaKAQCsTvzuBz0vGBnh7Hq5rv0xgE14GlHELCgpye67cmXjkvV/9pD4g4hUMapISQOo9bzgp1FreEVFhWtM5k0AQ9iNVKxEcF8qFZyKr20Pzi3ZozuHEYntlEqlPi60A3Mc5yQRvQ+sHSLqilDsWmKxH6gjFBCR3vcgusV/81WbzirawabKiNC2DbKMV9hXDZ049TEFHirc09HcNnvsUQX5BWflxLo3kbF2g+LJTvz1z4zVfBavAKLi4fv+WyUlvXZRxb1MI9TigBwM4LZ43FrquvZbyaTzR8dx9uC8qnvZtj3EcRK/dl374YYGfwUg0wAcz+K/UM4gP2UG7VIKmPvB4r/2TSQER7lu4hdM4ptSqWAyAK6OSKEf/hqDQ9dX/AcA9fXp9wG8yag6LQZgB0BHqervAbml9Qs9mQbItLYv924V0RsAVLf+Gf2VCI4CMEIVm3ZhfHswor26+VoAN/EUooj5DLAO/rbiv7ZRFLf3i56EKvpHseH19fWeqvwIratpERWjf6VSwc/wteK/1jkt78cRZRtj4gU5QfP9BwCMZRcTdY6I/DEMxX8Av6iiDpozdsxlgER12e41AI4fOvGxoBj7TkeOjCHEWwEZKFfRWYd4tvRXAAq1OHIrscquKtS+q7xmysohE2t/BNVL0boVT7suBRXrJ8MmPMwPRoiKzMqVKwPfD05VlZMA+Ewk/HM6ACNU9fci+m/XtZclk4n7Xdc+03EcruSYY4lEYmPHcU5wXfuvrptYZFmYIyJ/AnAMi/7CzRhhAWA7hvyua08FsCej6NBt+MZk0uYqgN+0RlVvZgwUYilVOSQIgtfa8We5DWs0uclkYp8oH0BJSa+bAKxkV1JExkSfqsr+nuct2OCfFL5sQt3L9/15loVj0PrdHFExmWcMjsP6t/FmASCFjucFV7e+GEREHTQhlfKrwtIYFgBSu80de8LBIvqHqLZfgQsqa2pnFmv/zd4GwwGUh7V9FlcAXKftrr7vcwM9Det4S6ggKH49d/yogwq1/wTQyonTJsDIgQA+22AcimuGVk95gWc+UfHyfX8yYH0XwL+ZRqT0byvevENE57muvTiZtO9zXfuniURiGOddHRJPJst3dl37p65r3+q69sxYTJa1bZN9BiBbMKIIdWbcfMIUvj0i103cC+BYRtFhJaqodRznUEbxtTmIxG4E4DEJCqF6wDrY9/032nWRl/SaitatDyliVOWwKLd/5cqVgQgmsCcpAhYBsr/v+/PbOUpgASB1/8O/PngFhfz9BtE3rVCVI4IgWLX+ORvvxxROvp++XET+yCSI2u0azwsuDVOD+EUUtcvc8Sduo2KmonULichR4NahNbV/LuY+tFR2CXP7MsZwBcD1GFYz7RkVLdTtR0RV/jLzolPKC7kPKydNfdlq9LfNxrAjVI8VyMVQ3AboCwp80nqbwoxYk/87nvFE5HneAs8L9gX0MgDNTCSSNlPFyQBuj8XkQ9e1U65rv+i69kTXTYxMJpNbMSIAQLx1O1/nRMdJXJdM2q+4bsJTtWYAuB3AWQB2QuuKixRBxsS5AuB6lJeXD3Bd+3lATmAandZLRB9PJp3zGcVXxhH1InIjk6CQWQVYB3me93Z7/8LKlSsDANMYXfSo4oioH0MqFdwCYDF7k0JsoUhsv/as/PcFEWXBCfXQ+DRdC+BSJkFFoF7EHOL7/rxv+0PGGK4ASCEeB/tVInIFkyDa0NhaLve84KKwtSvOrqEN+fT8kWWNmn0IQN+IHsLUyrJhvyr6jrRkRIjfscoO/xgreLWtX6/efcY1NzUdAGDHAjy8bXvHmicAOKeQ+3DwTU+tBfB+2z9fsbDqtN6mqaHXtq1/hogIADKel76yoqL8cWPkbkC+y0gizQawf+s/AtUsXNf2AHwI4AMR+VBV3o/FmmetXt1UcF80Oo7TV1UrYzEMVUUlgCEAhgLYFkBpax28QBVgrV9BSXueV88YvimZTOyvKvcD2IxpdFlcVa91XWcPVfzK9/3VjAQwBteL4GwASaZBIbBSxByUSgUzO3Eu32FZOIMRRosItk8mk1umUqlFET6MNQD+iNaXUojCZn4sljlw9eqgQy/bqHILYOo5nhdUu66zJaC/YBpUoHxVOdTzGmZseKwkLACkUEul/N+5rm2BxdtE6xxWi+CiVMq/NpTzcfYPbciccaPvAnBaRK+/56zG4MjBLKrBnHGjXwewZ0ibt6yypnZTXm3fbt64E7Y3MG8BKCvAwzOWMQcOnlT3T/Y0EdE3lCSTzm9V9VIAJYyj4DWJYKEqPhaRhar6MaAfGyOfWZa1rLy8fPmSJUsaw9JYx3H6xmJmYDZrDbIs3dQY3VzE2lRVNxPRzdq27O3Hbi1KszwvGM4Y/mejjco2y2RikwAZA34ekw8rAVziecGdAEyxh+G69kUAJvG0oJ6ln2SzODSdTs/q/Lmc+A8Q7l0taJ19/yvPS0d9NxbLde03AezK/qQQmRuPZw5ctarps47fT53pgH6HEUbsbqp4zPeDowvkcCzHse8SwU/Ys1RgGiwLh9XXBy+3c65WB+B4xhbFe7IM9n1/fhF9rnAVgEvY80T/lRXBWalUcGdYG8gPnOnbZ5PjRp+tQCS3jlGV19eakoN3vvq+hmLvxxer9o8PbBrgI7yFYzMqa2q5slE7zB43+lwBri/Qw1uYKTM7bV9Vl2ZPExF9UzLZ57uqsXtQmKvBUsekASxRxeciWCGCtKoEgAYAUqoaWJakVbXxf2NjKxDJZr46Xo6VipjyL00PK/7730TKjTEJEXEBuIC4ACoAbfvfSLb9Zy92B61nRvas56V/yByAfv36DGxpiZ0H4JcAEkwk7+feOwAmeF76byjuQsBermt/CGAbnhPUQ96PxzOHdqZI5cscxzlJRO9nnNEigr+nUsGRUT8Ox3H2ENHXAFjsVQrDGCeT0cMbGhqWd+Zvu649H62rsFOUer2wCgABIOa6zgOAjmbvUoFYA5gjPa/h+fbfjxNPA8LPSyJ5Ty6uAkAASCbtC1RxNVhXRLQW0JM8L/1QmBvJLYBpveZdMnIvY3B1RJs/s9myjth5Iov/AGBg04DtEeZV41SXsZfap7Km9sa540cfBMWPCvDwto6tkSsBnMueJiL6plSqcTqAXV3XvhjAZSjMFWGpfRIAhohgSOtQCmjdRreVyDe30xVRfP17y9Z/J+sZnilEvvz/KVOnDpJPiz0Bx3F2F9Gft7TgZAClPCe67dzbBUCd69rzVfU6kdiUIt2Oei2gYwF5kOcEdTdVvCxiHb1qVVOXrz3f96e5rl0NYBCTjdI5oAcC6I3WrXQjy/f9N1zXvgvAmexV6uHxzfMlJb2O87yVQRd+CLcApjDIep5/iuvavQAcwzgo4pqNwcggaH/xX9s9nVsAU2SkUsG1juN8LqJ3grsTUfFaLaLHpVLp0O9kyDfXaJ0WXHrCAGOsOkTwSwoB5pXErB/uVD25nj3ZSlVGhLvThAWA7T+/NZYpPRNAQWYmKr+Zd/HI/djTRETr1eJ5wVWAtSOgzzIOIgrpqO4fqnJrMR654ziDHSfxO9e1Z4voGwDOAIv/esp2InIzYJa6rv23ZDJx3KBBxVU873nph0Twd54K1M0e9v3gkBwW3rYAuImxRm4s0MdxnP0L4UiMwXgAy9mn1HN0iuf5R6xc2aXiP4AFgBQeLZ4XjAbwFKOgCGsArCODIOjwfEsVLACkSPF9/35VObr1vCcqOvONwV5RKP4DWABI6/Bi1f7xlqyZBmCzCE6GF2cysYO3uWoKP5T58oUuumvIm8gCwA7Y7ur7PlexTkdhLsVjGcu664OqkdwajYjoW3ie95HnpX+oKifyOUpEIZEBdLJIdhfP8w/yff+tYjjoQYNQ5jjOoclk4gbXteeK6FwR+T8AlTwlQqMXgGNV5aEgsFe5rv2U4zjn2LY9pBgOXiT+awABTwPqJrd6XjASOV71TSR2G4A0440WyzKHFcJxBEGwUgS/YI9ST1DV6z0vfTKA5i7+qBJwFwEKl2bPC44F8DCjoAiqNwYHe57XqZezRZQF2RQ5vu8/pSoHAVjFNKh4xuJ4xRjsFQTB3MjMw9lt9HWbrtn4GgDfj+Al+Lmx5AfDr5m8iL34tWSAXULdQJHP2UsdM7R6ytOA3lKgh7d1vCl2KnuZiKhdE+8pIrFhAG4FYJgIEfWAQBXXWVZ8W89Ln9S2XXnB6tu3bHPXTYx0nMR1rmv/OwhsT0SfUpVzAAzm6RB6ZQAOFdEbLAtzXNduWx3QvtC27b0LcYXA+vr6T1Tlt+x6yjMD4BLPC34BIJvrH55KpVIA/sKYo0VVDi+UY0mlgkdUcS97lbrzEgIwzvfT5+diru84DotNKIzWtr04cBejoKgQwVLLMvsFQfB6F34KVwCkSPJ9/9/GYB8Ac5kGFcFwfLLvBwcFQbAySq2Os+Poy+aOH3VC2xcXUeNZRg6rrKnlA+dr3j7rrBLA2znUA2YYrlzUCaVlfS5qbmr6PoAdC/Chug17mIiofdq+EP2F67q3qZrrRbAvUyGivI/WFEtEcKNI7FbPS6UK7fj69u3rZLPZwao6XER3BuQ7gH4nm8VGACDCc6BAbALgWFUca1lAENiZZBJzVXUmIDNVZYaIzPU87xPkoaipu/i+/yfXTfwIkEPY5ZQHgWXhpPr64PF8/pJsVifGYvJzcAvLKNnOtu3KIAjmFMLBWFbsXFVzAKCbs2spzyPtRgCne156Wu7OX8tWzTJaCqOs5wVnOo5dL4ILGAeF3AJV6+BUKljQhZ8hHM9SpCd/QTAnmUzuoZqdAuBQJkIFKCMiY1Op4LooNp4FgPRfsy8aubWq3Bq56TDQKEaOHDxp6jvsxW9y+/o7GEXvMLfRGG5d2BlbV9295sNLR58Yy+ItINx93Ik50CD2MBFRx3ie9w6A/Vw3MQrAREC2YCpElAdvi+BPnhdMQde3IutRAwYMKF+7Nr2dqgwGZDCAwaoYLILB2WzLAODLhX7Kni8OcVUMB2Q4gBNEFIDCde1mAAtFMM8YzAN0vkhsPoB5ESkO1JYWc1pJSWwmgP7sZsqhBZalR9fXp9/P9y9Kp9MrkknnBlW9jLFHRywmhwMoiALAVCqVchxnlAj+CaCUvUt5emR/ImKOyfWq2iIZW5VvsFB4T3zfDy50XXsVgCsZB4XUuy0t2UMbG4OlXfwcos+aNY0xxklRHxcD+JHr2jUALmQiVECWiejoVCr4V1QPgFsAU+vouqrKQjx2F6L31kGLAMdXTpr6Mntx3YyaEeG/EQkLADtp+FW17wMouO2cVMG3qYmIOnkL9bx0bXm5M0xVq9pWDiAi6qpmQCeryl6eF+yWSgX3IMLFf47jnOi69uI1axrTqtYMQOoAXAXgdBF8D8AAdjl9TSmASlX8SATni8jNgHkGMAtc1250XXt2IpHYOMwH0NjYuNQYnAFWs1LuvGQM9uiO4r//sa4BkGL0EZqcqDmskI7H9/1/q8pF7FnKBxG8msno7rku/gOATEa42hSFnucFV4ngDET8RTMqxPEMHi0t7b1PY2Pj0q7+rCAIuP0vFYqs5wUXqcpPAKxhHFQA9/pXWlqyu6RS6X9F+ThYAEgAgLlrZp8rqvtF7cECkVMqa2qfYg9+y80KsmvY27jGirEAsAuG1NReB8WThXRMIoYFgEREXbBkyZJG30//MRbLDlXF3QAyTIWIOjyXUCxR1d9nMmZLz0uf5Pv+vwvhuCxLNwGwGXuYcqQUQGVpabZX2BsaBMHfReQKdhnlwK2eFxwSBMHK7vylqVQqparXMP4oke/3798/UUhH5Pv+TYBMZd9Sjv01lQoObGhoWJ6f8a/FAkCKhFQquMuycBCAFUyDQkABXOX7wXErVqxI5+IHxmIxFgBSQfF9/z5V2R/QT5gGRfhef43vBwfmotC7p7EAkDB77MhKqF4ZvQtRf1lZPbWWPbihi1zCvgLg2h2rJ6fYU50ngJbErTMALC+go9r0xar9uU09EVEXrV7d9KnvB6cbg+0BnQzAMBUi2uBkS/EyoKN9P9jK99OXNzQ08IUdogKRSvlVqnicSVAnnxCNIjjd84JfAGjpiRaUlZVfB8in7IvIiLe0NG5baAdVXp44E8Cb7F7KgRZVOdfzgp8ir6ueZVkASJFRXx+8LBLbHcB7TIN6UJOqnOR5wW+Rw89TWZBNhcj3/TdUre8CeJhpUJSIYClg/dDzgovQQ59x5BoLAIvci1X7x0WsewCURexiHFdZM+129uC3+6BqZKlCdwhzGxVYLtyCqMu2uWrKclhaSNs5xTZv2WRT9iwRUW4EQTDX89InxWK6E4CHwGcvEX3TahG90bLMzr4ffN/z0tNQIB98ENFXmFgsfooIPmQU1BGq+CCbxW6pVHB3T7Zj+fLlDYC5kD0SCc2AjkmlGmYW2oEtWbKkMZMxRwFYyG6mLlhkDPbzff/GfP8iEeGKUxQpqVTq45KSXvuo4jGmQT3gM8D6vu/7U3L/o7O8H1NB8n1/tecFx6nqb8AtgSkCVPFoNoudPM97rpCOiwWARW5g0yZjAewRqYtRcOWQ6tpJ7L0NizXGdgIQ6m2IBMLVRHKkcsK0JxW4rVCOpyUDbgNMRJRjq1enP/C84HgRswtX/yEitBYDv9D2VvtmqVT63Pr6hncZC1Fhq6+v9ywrcyiAxUyD2umuRMLePZ1Oh6Jw1PPSdYD8g90S6iFGo6oc5XnpBwv1CBsaGpYbg8MBrGZ/U4evEMWjgPXdIAhe747fZ4xwxSmKnJUrVwa+Hxyrqr8HkGUi1E1ebGnJ7uZ53tv5+OEsyKZC5/vpm0XMngBmMw0K61wV0F/4fnBMEAQrC+3oWABYxOZdMnI4oL+LVKMFtwytrr2MvdfOC1x019DfYqHL2VO545Q1XlAogyqBGcQeJSLKj1SqYYbvB0cB1q4AHgS3BiYqKqpYAuAqwBrsecEPfN+fDL6dS1RUVq9u+tSy9DAAKaZB36JBRE71vOCMJUuWNIapYdmsORtcqTa00w1j5BDf958p9AMNgmC2qhwOwGe3Uzs1i8h5vh8c63lefXf9UhHDAkCKKuP76ctF9EAAnzEOyqOMqv7O84KDGxsbl+bxjswCQCr8yUCqYWbv3n1GALgD3ImIwuUlVWtnz0vfWqgHyALAIvVi1f5xNbF7AfSOSptF8MCQ3sPOZu+1n0JCXwDIFQBza2DV442WwUkAmqN+LCJcAZCIKN88z3vH84KRxmA4gDsL4flBROvVrIpHLQtH+X6wpecFv/U87yPGQlS86uvT7xuDIwAETIPW4T/GYEQq5d8bxsal0+lZAK5hN4WNfhKL6feCIHi1WI7Y9/03jMFhANLsf9qABYC1Tyrl34Bu/zKcKwBStKVS6X8Zg++I4AmmQfkYv1gWDvD99BXI82qTxrAgm4rD8uXLGzwv+BlgHQpgEROhHuYB+LnnBQf6vj+/kA+UBYBFatOmTf6gCP/qcP8degGP+6vd06WqiqvTdCy5EWFvoYhhAWCODZ5U+45GbXXPdZ0bKiwAJCLqJkEQzPG84MxYLLOdqt4AoIGpEBXGhEAErwL6K2Mw0PeDY+rrg8cBZBgNEbWNAV5rK1xhESB9oUVVf+95wZ5BEIR6hwHPC6oAzGSXhWbY8U5Li9lz9er0B8V4LxXRIziPom9xp2XFd8nXlpIbxgJAKoh77cpUKjgSwMXgC6yUOw+rWt+trw9e6Za7MbcApiLjed6zpaW9dxCRm8FdiKgnZqmKx+LxzPaeF9yGIliRkgWARWjexaN3Eei4qLRXgJd6lZWNGnHbbdzWoyP9fPZhvQDsEP6brsUtgPOgsmz41QD+EeVjMAC3ACYi6marVzd96vvp84zBVqpaBYDPaaJomq2qvwOsbVOp4Huel/5zEASrGAsRrUsQBK8ag0PBLSwJmClidvf99OWIRrH4WsvSkwGsZdf1LBE8UVpatl9+t8wLt1Qq/S9VOQgAx1z0ZYtV5TDPC86sr6/3eu4aVRacUKFQzwuutiwzAsDbjIO6IA3orzwvOM73/dXd+Ht5P6ais2LFinQq5f9GRA8AMI+JUDeNgD8FdKTvB0evWtX0WbEcNQsAi8y8sw/rpYJ7AJREpMkzStauPXbrqrvXsPc6xpQldo5CP3MFwDzlWlVlEDenAhLZDx0FXAGQiKinBEGw0vfTf/S8YEsRORXAf5gKUegtU9XrAWs3zwuG+X76Cs/zFjIWImrns/81EbOfCJYyjaKUEZErPC/YPZVqmBGlhtfXp98XwW/ZhT1GAdSkUsHRK1asKPotcH3f/3c2q/sC+glPDV4baF31bwff95/u6cYYA64ASAWlvr7hPc8L9gJwCQB+f0gd9bRIbAfPS/+5u3+xCFdkpeKVSqX/ZdvBzgAmgC9xUf6sAeTK8vLEUM9LP1hsB88CwCJjypwrVcK/KlybuSUx69Ctr38kxZ7r1OU9IgqtVFWuLJQnlVfWfQbBzyJ8x2IBIBFRz1ubSvn3el4wwrKwL4AHwa1DiUI0lsYSEblZRA/0vGCQ76fP77ltxYgo6loLv2J7A5jDNIrqaTIdsPZKpfzfIaLb6aVSwXWAPse+7HZpQEd7XjAeQJZxtIWSTs+Kx7N7A3iXaRQr+VRVDu/pVf++0iJhAWBkzyYRFkisX8bzgmpj8F0ArzMOaodVqvITzwsOS6VSi3po7M0VACN8zxERjnm7aPFiNHlecClgba+KR5kI5fQOq3gcsHbwPP+yJUuWNBZjBiwALCKzxo3ZG4LzonF14tM4zMHbXDWFxWGdnxjuGoV2xgRcATCPKqunPgzgrxE9iwd8UDWylL1IRBQO9fXBK54XjLSs+LYAasDtgYl6yiJVXGcMvuf7weaplP+bVCr9IvjFOxHlQCqV+tgY7APgRaZR+N2tqr/xvPRuBVA8blStMQDms1u7zXzL0r08L13HKL5p1aqmz3r37rM3INOYRlHJiOifLCu2YxhW/fsaFgBGw8cAHlHVKhEcbVnxLT3PH8VYvl0QBLM9L/ieqv4GwGomQusmU7NZHe77/n09Omg13AI4ItIieE1EbgbwM8Aa4XlBgjtt5I7neR/5fnAMYP0QwCwmQl30rqoc5vvBUZ7nfVTMQcR5LhSPmOqtKohFoKnLYpY5cNvqOm6V0AUK3SUK7cyYtSweyLM12dJze8ea9wUwJGJNt6w1sYFo/eCDiIhCor6+/hMA4wH8znUTRwP4KSAHgy8XEeXTfAAPqcpDvu+/jdYtxYiI8iIIglUADnGcxNUici4TKTiqinuM0XHpdPrzQjko3/dXJxKJo2MxeR3gF6t5PoUmx2Klv1y9erXPLNZv+fLlDQDGuK79DoArgUh8Lk+d9y/LMmfX1zeEdeVHFgCGSwbALBHMADAD0OmqsRme59Uzmk4zvp++2bbtqZYllwN6Fu+71Ga+MTg/CPy/h6ExIhynhnHYBugMQKYDOt0YmREEwXwAhtHkn+d5zwLYOZl0fq2qfwCQZCrUAR+pyh9835/Ca7btOcMIioOOHBmbu421NgIDXs8SOWBw9dTp7LXOW1h1Wu/mpiYfQEnIm9pQWVObYI/l36zxI3e11HoNQMRW1DP7VtbUvcIeJCIKt2QyuRVgzjRGzxDBQCZC1GVZEfxbFX+3LPNEfX3De4wkl/cs+wJVXMMkKJdiscwWq1c3fVpox+U4ziki+mcA5ezlQiAzjNFfB0HwWqEeYUWFfaQxeAR8OSUfGkRwdioV3MUoOsZ1y38AWPcA2IxpFJzPVGVs25eOoX1Jx3HszzhX7zFpEbyrKjNaC0ys6Z7nvQ9gDaPJ53igfCdjrBsA7M80ilZKBJenUsGfADSHZ0xgvwVgBLunRyiAj9oK/WaoyvRMJjOjsbFxKaMJy/XhVgB6IaDngC8v0LdbpqqX+376dgAtjON/uAJgkZg1uNfGsWxLqIv/FGgUmB8Nrq5j8V8XZRqbvgMJffEfAG7/212GVdf9Z87YUVUQuSpK7RaRzdl7REThl0qlPgbwOwB/TCbtw1VxKoAjAPRiOkTtthrQZ1Stv6vqM20rcBER9Sjf9++zbfsNy8JkALsykchaDOCPnuffhQLfMr6+PnjccRLniMhN4MvvufS2MTglCILZjKLjPK/hH7Zt72xZuA3AcUykIDQDuL60tPflK1asSIe9sSL8Er2bfLGK1IwvrSI1D1yRpgfGAw3vAjjAdRPHA3I5gKFMpWhkROTWbFargiBYGcL2cQXAbntO6/uAzFCVGbGYTo/Fes1cuXJlwGjCPGb26gFcZtv29ZaFcYD+CpA+TIa+NKZdCuCaXr36/KVtxXX6GhYAFomSlpZNTbjfe11rqXXMkIm1XOkrB0x03h7h9r/daEif4TVz1sz+oajuF5lzWcECQCKiaMmkUsFjAB5rfWPPHA/gZAD7gl/AEq3L+wCesCw8UV8fvIYCL8ogomgKgmAugL1d174CwAXgdmpRshpAtW0Hf1q8GE3FctC+n745mbR7cbXXnFgD4I+eF1yN1i0rqfP30lUAfuy69pkArga3N4uqrAgmq1p/9DzvIyASdQQWuJJvrrWtIoUZAKaryozS0syMlSsblzCacPG89IMAHk4mnZNU9fcAtmUqBe2pbFYvTKeDWSFuIwsA83CpA5ihqjMsS2YAZnoq1fAhvrEqGGv/IjRuXgng4vLy8mtKSnCpqpwFLjRQ7BYCOjGVSt8FYC2v5/VjAWCxsHSzEH/nmlXBKZU1U55jR+WGWNhTNfztVIDLKnfneVFVZeaNPelkI5mZAPpGos2QQew5IqJoantj73YAt1dUVGxhTOYkVZwkgu2ZDhUrVSyxLPwDkOdjsZZ/rFrV9BlTIaKIaPa8YKzjOA+K6O0AdmIkodYA4AaR2KRUKpXyvOILIJUKrnVduxeAq3g6dNq/s1k9I51Oz2IUuZwnBX/t06fPkyUl8esBHcVEojOUB/BQNqt/SKfTH0ap4f369StvaVnLbdG7MAYC9ANApretIjVDpGTm6tWrfUYTGdlUyr8XwBTXtU8FcBmALRlLQd2in7UsuaK+Png5Ao3liqxds1gEM1pX9jMzgNh0z/MWMJYCndQ2NCwDcE6/fn2qW1piZwP4OYAKJlM8RPChMVLt+/4U8IW0dmEBYLEMfcTaFOGsCFMIfjG0uraOvZTDUBV7RuKmDeUWwN1s8MQHFs8dP+osVXkwIk3mCoBERAWgvr7+EwATAEyoqCjfSTX2Y1U9DsAOTIcK/fQH8JKq/sMYvMAv0Iko6nzffxPACNdNjAXktwDKmEqoNIjoX5ubTXVjY2PRv3TpecEE17UB4EpwNeqOWA3obz0vfRu4bWVetF2fox3HuUdEbwKwDVMJLxE8AWR/l0o1To/oGWdz8d72PzoAzFTV6W2rSM1IpRo+wDdWkaKIavG84A4A97qufRpaV7auZCyRpSJ4whi5wveDNyLS5jgAbmfaPlkAc/+3rbo1PZvNzkin0ysYTfFpW2H3kv79+1+5du3a00X0PI6fC5pRxRMi1p9SKe85tL6IQx140FAxjIKAgeGcPevFldXT7mAP5c6cC0/oB5hIPPRULW4B3AOGVE97aM640XcDOC3sbRUICwCJiApMfX3DuwDeBfAH27YrLQvHAfgxgF2ZDhUAD8BrAP6lKv/wff8dcFtfIio8LZ6XvrKiouI+Y1qqARkDFlf1tBWq+idVuTkI0qsYx5cezF4wwXGcRSJ6J7ht1IYYAH81BpcGQXol48g/3/efBPCPZNL+tSp+i4js2FEs14MqnlDFhCAIXo/ygaxdG3Msrv+3Lp+1rSI1/UurSC0Ev2QuBs2eF9wG4A7btg+3LJwP4EDGEqnxyiMi2SuiVpjtuq4NGM6bvqkJwHsAZgA6XdWakUgk3l2yZEkjo6GvTHpXrEgDuAnALa6bOBaQCwDsxWQKRgrAXwHrFt/nyp6dxQLA4pmubhq6j2JF/lhZXXsNOye3rHh2LwOJxADSssACwB6yJlv6m96x5r0BDAlzOxWGBYBERAUsCII5aFsZMJlMbgWYY1X1RwC+B6CUCVEELBLRV4zBa7GYvlJf3/A+uFIOERWJthV+T3Qc50bL0qtVsQ9T6XYLVPXaRMK5i1+QrZ/v+5Nt215kWXgEQD8msk4vqso43/ffYhTdbm0qFVzrOM7dInopgF+Bq6v2IG0ErHuN0euCIJhbCEckInaR17RlAcxrXUFKp3MVKfoSEwTB3wH8PZks/w5gXaCK0eDnUWEVAHJfNmtujtpW7F+wLMs2pug/MloNyPTWQj+ZEY+bGatXp+fga1t7+j53Wadvf7Z7XvpBAA8mk+U7A3KmqpwEvkwT0bEqXlXF3b1795myfPnyBibSxTwZQXGYM37041D8KEQT6Zsra6b9hj2Te7PHj75CWt8YDT1VOXroxKmPsdd66FwZO2aEiL4GoCTMp0lpWVmfravuXsMeIyIqHv369bMzmbUHqeIwAIcBGMRUKASygL4rgleMwWvxePaV1aubFjOW6Ekm7QtUwZfRKKdiscwWq1c3fVrMGbiuewhgqsA38PM+TwbwEqB/8bz0Q+BKsx05R7cFzFQAI5jGf0+nd1StS33ff4ZZhEN5efmAeNy6EMAvASSYSPcQwVJVvdkY+UsQBAW1kqrrJg4E5B9F0pVNAN4HMB3QGarW9LKysvf4ZTK1VyKR6B+PWyep6hkAdmQiobg/f2iM3hKPl963evXqSFeFVVQkdjBG3iui7vsYwIwvtlUXic9oe4mMKB96O45zrAjOBPQAAFz/ONwWA7jPGNxdKC/dhAVXACyWAZLKphqat7zk/iFlw85hr+Srr7FHZNqK7DL2WM8ZOnHq27PHjrlcRP8vzKdJpqFpMwAfsceIiIrHypUrAwAPt/2DiorynYyxDgPwQ7QWFfRmSpRnWVXMBvAfQP6jqm/btj2DqysREa2f53nPAnjWcZxDRfRicCu1XPscwN2qcofv+/MYR6fO0Y8A7J1MOr9X1UsAxIo3DZ0O4Kq2IlJudxkiDQ0NywGMtW27JhaTc1T15wAGMJn8XAiqeMWy5I5Uyq8FsLYQD1JEbC3Mq/yLVaRmtK0iNZ2rSFFXta0MeT2A613XHQHoGYCeACDJdLpVC4BHRfSWVCr9YqEcVCYjhbolewbArC+2VQfMDNXYDM/z6nkqUzda4/v+FABTXNfdWkRPVdVRAIYxmvBMyUXwuDFyv+/7z4MvM+YFCwCLZSYLMzAMCz6K6GOf9V5+emXVVG6LlY9+rqqy5jbN2i0yNyABCwB7WGWfoVfOa5p1oAL7h7OFsqq5PMutoomIilx9fcO7AN4FUAOgdzKZ2BOwDjBGDxDBHuD2LNQ1WRHMQVuxn4j+p7S0z/SvrxIRBAGTIiJqB9/3nwbwdDJZvrMx1nkiOAFALybTKQbQ5wHc7nnpxwA0M5Iua0ml/N/Ztv2kZeE+ANsW08Gr4mVAJvh+8DRY+BdqbavQ/QHAVY7jHC+ivwGwJ5PJiUUicq+q3OP7XsG/dGyM2CKRv9w/RusqUjPaVpGazlWkKN88z3sbwNsALnDdxJGAdTygh4Ors+ZvmKJ4FdApxuDBdDr9eaEdYIFsyZ4Wwbuq/91WfYbnee+hQIvoKbL374UAqgBU9e2b2D6TwfEicjyAHZhOt1sN4FFVeait6I/3inw/axhBEYyYRo6Mzd3GWosef6tVXygt63MEt/LMnw8vHb1DLIvILB9dWlZWxvOh580be9Iglcy7ClSE7iGluGzIxNor2UtERLQ+AwcO7NPQ4O0NWAcA+B6AXQGUMxla54xEsUREP1CV9ywLHxgj75WVlX3ILaGKC7cApnzgFsDr96Wt1M4EP3BvDwPgFVWpKy3N/G3lysYljCQ/Bg1CWRDY5wEYD8Ap4ENdo4ppgNzi+/4b7Pkoj2H6fNcY61QRGQOuCtjRmUCjiDykqnd7XvqltnttUXCcxK9E5OaINPdLq0i1FvwBselcRYrCNHZIp+1DAPxYFUeCKwPm4v78DiBTLCs+rdALe103MRKQaRFq8nJAZ3yx2qoxMj0IgvnF9AylwmLb9lARPV5EjgHwXXCb4HxZAMjTgDzqed6LaF3VlboJCwCLwOyxYwaK6Gc9fKq9qdp40NCJj3HZjDyaM370T6G4PSI3n/ohNbV92WuhuU8cL6J1IWuWV7p27VZbX/9Iij1EREQdEE8m++yoau2pKnu2rRA4hHOforNSFbNE5ANV01bsZ73n+/5qRkOO4+wmotyalHKqpKTXLW1b2NMGrj/LMqcYIz8WwUAm8l9ZAC+r6oPZrD7U0NDAHRO6USKR2DgWs6oA/RkKa8ec2SK4I5vF3W2ryVEBzXkcx/mhiDkJkCNQ2AWsXZ0TPGFZ+livXuXPFOtLP65rjwNQHcKmfXkVqRmANd3zvPcBcMEAiopSx3EOAPQQERwEYEfws6f2yKjidRE8bQweCoJgThHdj88EcEcIm6YAPvrytuqZTGZ6Y2PjUp6uVMBzwP6WZR0E6CEADuHnE13SBOAlVXlaVZ8OgmAuI+k5HIgUgVnjR+5qqfV2j51kivezseb9h014mB805dmcsaNvh+CnUTk1K2tqh7PXQnT+jBtzH6Anh+YBJXr5kOppv2fPEBFRVzmO0xfAHiL6HUC+A+jOALZDj6+QTV20GsA8EZ1vDOYB1rzW/y3zuUIEEVHoWbZt79X29v3RALYuwgwWq+J5QJ4zxjxfiNucRXDMuJ1lmbNV5TREt6DqM1XUiliTPc/7D3u1KJS6rrs/oEcDehSAQUWexzwAj1oWHquvD15Da4F1UXNd5wpAf9vDzfi8davI1i0jjZEZQRDMA1eRogJSXl4+IBaL/QDQg9sKAgcxlf+NewE8DegzllXyXH19vVeMISSTzvmqem0PN6MZ0PcBmaEqM2IxnSFSMnP16tU+T1MqZhUViR1U5RAAB6piTwAbMZX1agDwhoi8rJp92fMaXgVf4AiNOCMogk5WGdiDs6gFBvJDFv91DwH21Oi0dTl7LFwyZdlfljRZeygwOAyDBxG9ib1CRES50Lbq21Nt/wBo3To4nU7vKKI7A/IdVd1RBEMB9GNioZEWwSeq+ATAp6r6KWAtADAfwDyu5kdEFGkmCIJXAbwK4HzbtoeIyCGWpYeqYj8AiQI8Zk8V/wTk+baCv1k8DUI3ZpwP4Nx+/fpd1tzcfJqI/gatK0mH3fsAnrAsPFFfH7wKFtQUm2bP854F8CyAX/ftm9g+k7EObFvteD8AFQV+/ItE8LKqvmqMvFhMK0m1l4ixVbttLRAFsADAdADTVWVGaWlmBrezp2LQ0NCwHMDktn/guu42qroHYHYXkT3Qut1k7yKJYxEg/xbBGyLZ5+vrG97jGQIYY2yRbl2byUPbduqWJTMAMyOVavgA3I6T6Bvq69Pvt82rrgUA27YrYzHZQxV7AboXgB1QvIsJLALwjgheMUZe9X3/PwAyPGtCOvZnBIVv7rgxRyj0EXR/wecSkdi+Q6onL2Av5N/ssUfZImX1kXn4KGorJ9aOYc+Fy6xxY/a2oP9EDxeIK/TqoTXTLmaPEBFRd2tbLXCIZelQVVQCGKKKShFsi+L5oLY7rBTB56pYIaKLVeVTVf1UVT6Jx80nxsQ/5Sp+RERFK5ZM9tnJmPj3RMxegOwFYKtoHYI2ish0Y/RtwHpLVd9u2wZH2b3RkkyW7wzEjlXVYwDsHI5Wyaci+k9VvCwSeyaVSi1iT9H676flO6haewDYHcBuALZHdL+8zAL4EJCXVfFqPN7yr9Wrmxazm7+d69p3Ajg9Dz+6GdAP2laRms5VpIg2qMRxnO+0FQTuCGBY2z056qtMBQDeBvC6CN5saTFvNDQ0LGN3r/N+fDWAC/P04z8TwfTWe7KZAcSme563kPMPotzo379/oqWlaVdjsIOItQOgw9FaFNi3gA6zBcD8tlWbpwNmumpsOl/CjxYWABaJWePHbGUZvQSCM7tpgp8SYw4YMqluBtPvHnPHjzpIVZ6L0M3n+iE1teez58JnzvgxVVD9Qw82YY2qbDt04lS+GUpERKFSXl6+SSwW20LEbCEiWwC6pTGypYhuAcimAPqjON8EXAMghdY3i1MAVrcW9mGFCJYCssIYrLCs7NJ4XD9fubJxBfi2MRERdUAymUwCmZ2MsXYW0Z3QuirbtgA26+GmpQDMA3SeKuYC1rxYLPt+fX3Dh+Ab8QXHdd1tAHMggD3RWkw1PN9jPxEsVdV3AZmpKjMsy3qNBX/UFQMHDuzT0NAwXMTsoIovvrgcCmBzhGfHKANgoSreF8GHqvK+ZWVmpVKNs8DtxTpx77IfBPDjLv4YD8BMEZ3R9oUwV5EiypFEItE/Hsf2qhgmgmHGyFYi2AKtWwiHqDhQPgUwB8BcVcwWkTkiMieVSn0CFpm19358G4CfdfHHZNvmH23bqlvTs9nsjHQ6vYIJE3W/8vLyTVrv4bHhgNlWRLYEdAtAtkA4dxpqBrAUwEeAzBXRecbIHFWdFwTBQo7too8FgEVm3iUjh6uxqhQ4Pl/9r0AjLD1k6IRprzLx7jN33KjLFHJ5hJp8SWVNbTV7LnxerNo/PrBpwD8B7N1DT6Y/VVbXns2eICKiKEokEv0B9I/H0V8VA1StjS0L/QFTYYzYIrABcQF1Adho3eKwHICD3H+BnMLXPoRVRZPIF1+aiQ9oFpB6wGQByxcxzarSoKpNIrJGVRtEpBlAPaCeqpUCkFLVlDHGa2hoSIFfwhERUQ8ZOHBgn6Ymb9tMxtrSsrCpqg4UsTZp/U8kAXHanrlJAC4A61t+nLY9OwFoAEijKlaKYAUgS0WwwhisFDHLjZHFqjqfX7QVt7ZVIHYBZFtAtjRGtxLBlgAGtp1zJVj/9qvZ1vEVVolgpTFYJYLlABaq6kLAWqCqHwVBsIpJUzeJJ5PJQUBmK0C2MkY3tyz0V7U2BnQTEfRXRd+2+UtXtmlfq4pVIliiiqUi8pmqWdb6n7LUsrKLE4mGuYsXo4ldkhuum3gGkEM68Fc+E8EMVZkBmOlAbIbneQvAAh+iHhnr+r6/ZSwWGyRiNlPFxmhdbaoCkIrW/26++O/Jtr9W0o779Bc7LvhtY5I0gCWq+FwEy0VkqTFYIZJdalmyPB4v+3jFihVp9khX78fOVEBHd+CvNKF1S9LpgE5XtWaUlZW9t3z58gamSRSZe/hWlmVtYVk6UBUbobWwu+9X/5G+gCbaPq9wO/hrmvC/l/Lb/pEUgJQIVqiapZYli42xPstkMkvatqvnmK6AsQCwSM0ZP3o3VVwhwCE5/tFrVKwjhlZPeYEpd6/Z40Y/JsCRkbn5KM4YMrH2LvZcSM+ni0ZuLTFrBlqLEbpDCwTPiMqURFnDIwOrHm9kLxARUbEaMGBA+Zo1a0oBIJPJ9IrH430AoKSkZU1LS8k3vgjr3bt3Mz/8IyIiar9kMplUVQGA8vLytUuWLOEclPKpxHXdBAB4npcGV1WgAuC6bkUs1pzIZktLVNUSka98WWlZmRZj4ulYrLklmy1Nc84SjmfeBm9WJSWZlStXBkyNqPDGILFYLMstuntW//79E83NzSXt/fOe5wXgquJERX//LilpKVuzxsrEYrGWtntDI4C1jIjWhQWARW7WuDF7W9ArAByQgx+XVZUxQydOfZDJdr8540YtB2TjqLRXxTpsaPWUp9lzIT6nxo45BaL35vFXGCheV0FdPFs6Zbur7/ucqRMRERERERERERERERERERG1HwsACQAwa9yoH1qt28fu1skf8YYFvXJwzbTHmWb3mzv+xG1Usx9Fqc2Wwa6DJ9W+w94Lt3ljR++pgp2NyndEdCcAO6J1u8IuPHjkPwqdjLiprbyy7jOmTERERERERERERERERERERNQ5LACkr5g7ftRBqjIRwHfb8cc9KGotS/4yuHrqdKbXc2aPHX2SCO6PUpuzsZKBw6+6fyl7L4rn25iBMTG7ZsUaLtDtodgVwFAA1rf8tY9FtdZA7xo6sW4OUyQiIiIiIiIiIiIiIiIiIiLqOhYA0jdoVZU1r2n2GECrFBi8jtPmFUBv79Ns6ja/rq6JifW8OeNG3wjg7Ag12SwpW97rgKqXMuy9wjB77FG2Sp8dRcxOMNbOIrqTAP0N9NGYkSlc7ZGIiIiIiIiIiIiIiIiIiIgo91gASOulVVXWnDWzfiyKCQA2gmKaGuvmoVdPeZfphMuccaPfROe3b+6Js+vzypppA9hzRERERERERERERERERERERESdxwJA2qAPqkaWlq5Ky+CbnlrLNMJnYdVpvZubmjwApRFq9nuVNbU7sfeIiIiIiIiIiIiIiIiIiIiIiDovzghoQ7avqmtmCuG1dm3jrgKJUvEfFFjKniMiIiIiIiIiIiIiIiIiIiIi6hqLERBFmyj2jFybgWXsOSIiIiIiIiIiIiIiIiIiIiKirmEBIFHEicoeUWuzKpaz54iIiIiIiIiIiIiIiIiIiIiIuoYFgEQRp1FcAdBSFgASEREREREREREREREREREREXURCwCJImz22DEDIdg8au1WI9wCmIiIiIiIiIiIiIiIiIiIiIioi1gASBTlC9gye0Wx3QIWABIRERERERERERERERERERERdRULAIkizBjZI5I3HmEBIBERERERERERERERERERERFRV7EAkCjCxMKeUWy3yWA5e4+IiIiIiIiIiIiIiIiIiIiIqGtYAEgUUS9W7R+HYpcINr1liF25mj1IRERERERERERERERERERERNQ1LAAkiqhBDQN2AlAevZbrcqmqMuxBIiIiIiIiIiIiIiIiIiIiIqKuYQEgUUQZieb2v4AsY+8REREREREREREREREREREREXUdCwCJokqwRzQbrsvZeUREREREREREREREREREREREXccCQKKIEqAhmu22WABIRERERERERERERERERERERJQDLAAkiqishesBaNTabUSXsveIiIiIiIiIiIiIiIiIiIiIiLqOBYBEETVsQu1cQJ+P3E1HwRUAiYiIiIiIiIiIiIiIiIiIiIhygAWARBEmRm6MWpuNYBl7joiIiIiIiIiIiIiIiIiIiIio61gASBRhgyfVPgFgTqRuOqpcAZCIiIiIiIiIiIiIiIiIiIiIKAdYAEgUYQKoAn+OUpuzlnAFQCIiIiIiIiIiIiIiIiIiIiKiHGABIFHUadOdALyoNDfeK84CQCIiIiIiIiIiIiIiIiIiIiKiHGABIFHEDZ34WKCi90SkuU2Dqx7w2WtERERERERERERERERERERERF3HAkCiAhCH3gTARKCpXP2PiIiIiIiIiIiIiIiIiIiIiChHWABIVAC2q66bD+hTYW+nqrAAkIiIiIiIiIiIiIiIiIiIiIgoR1gASFQoF7PIjWFvo4hhASARERERERERERERERERERERUY6wAJCoQGxXXfscgFlhbqOqtZw9RURERERERERERERERERERESUGywAJCoQAqgCN4W7jVwBkIiIiIiIiIiIiIiIiIiIiIgoV1gASFRAnLLGewCsDmnzPi6Jx/7CXiIiIiIiIiIiIiIiIiIiIiIiyg0WABIVkIFVjzdCcVcIm+YbmKO2uWoKtwAmIiIiIiIiIiIiIiIiIiIiIsoRFgASFZhsNnYTgGyYmiSQE4fV1L3H3iEiIiIiIiIiIiIiIiIiIiIiyh0WABIVmOHXTF4E4PHQNEhxzpCaqU+wZ4iIiIiIiIiIiIiIiIiIiIiIcosFgEQFKGtiYwF8GIKmXFs5sfYW9ggRERERERERERERERERERERUe6xAJCoAA2fNHlen2YzAsBfe6wRiieHLDBj2RtERERERERERERERERERERERPkhjICosM0ZN/onCvxZgD7d+GunZ8rM97evqkuzB4iIiIiIiIiIiIiIiIiIiIiI8oMFgERFYO7FI7+jllUHYLtu+HVLYnHZc7srp37K5ImIiIiIiIiIiIiIiIiIiIiI8odbABMVgSGT6mbEYUYA+Fsef00LoA9nY/ghi/+IiIiIiIiIiIiIiIiIiIiIiPKPKwASFZm548ecpao3ASjN0Y+crSJ3l1py9zZXTVnOhImIiIiIiIiIiIiIiIiIiIiIugcLAImK0OyxY0aI6DQAW3fyR/gQPCrQe4dUT3ueiRIRERERERERERERERERERERdT8WABIVqVmXHLuRlS29F4LD2/lXDBSviyX3NmVKHtj56vsamCIRERERERERERERERERERERUc9hASBREVNA5owbfY4AkwCUrOePfSaq94vK7YMn1X7E1IiIiIiIiIiIiIiIiIiIiIiIwoEFgESEueNGfV+BqYBs2vav1grwmEDv226BPil1dVmmREREREREREREREREREREREQULiwAJCIAwAcXj9wkHrMmwuDfa63YlJ2qJ9czFSIiIiIiIiIiIiIiIiIiIiKi8Pp/upnbFQGsGXMAAAAldEVYdGRhdGU6Y3JlYXRlADIwMjQtMTEtMTVUMTM6NDQ6MjMrMDA6MDD1fRsZAAAAJXRFWHRkYXRlOm1vZGlmeQAyMDI0LTExLTE1VDEzOjQ0OjIzKzAwOjAwhCCjpQAAAABJRU5ErkJggg==;" vertex="1" parent="fD2b__GBOGLgcAUjD9c7-87">
          <mxGeometry x="8.45999999999998" y="10" width="93.09" height="20" as="geometry" />
        </mxCell>
        <mxCell id="fD2b__GBOGLgcAUjD9c7-88" value="" style="endArrow=classic;startArrow=classic;html=1;rounded=0;exitX=0.5;exitY=0;exitDx=0;exitDy=0;entryX=0.5;entryY=1;entryDx=0;entryDy=0;" edge="1" parent="1" source="fD2b__GBOGLgcAUjD9c7-85" target="fD2b__GBOGLgcAUjD9c7-57">
          <mxGeometry width="50" height="50" relative="1" as="geometry">
            <mxPoint x="730" y="530" as="sourcePoint" />
            <mxPoint x="780" y="480" as="targetPoint" />
          </mxGeometry>
        </mxCell>
      </root>
    </mxGraphModel>
  </diagram>
</mxfile>
